<?xml version="1.0" standalone="no"?>
<!DOCTYPE svg PUBLIC "-//W3C//DTD SVG 1.1//EN" "http://www.w3.org/Graphics/SVG/1.1/DTD/svg11.dtd" >
<svg xmlns="http://www.w3.org/2000/svg" xmlns:xlink="http://www.w3.org/1999/xlink" version="1.1">
<metadata>
Created by FontForge 20150318 at Fri Dec  4 19:23:35 2015
 By uniteet7
Font software Copyright 1990, 1991, 1998 Adobe Systems Incorporated. Typeface designs Copyright The Monotype Corporation. All rights reserved.
</metadata>
<defs>
<font id="GillSansMTProMedium" horiz-adv-x="500" >
  <font-face 
    font-family="GillSansMTProMedium"
    font-weight="500"
    font-stretch="normal"
    units-per-em="1000"
    panose-1="2 11 6 2 2 1 4 2 2 3"
    ascent="682"
    descent="-318"
    x-height="449"
    cap-height="682"
    bbox="-162 -234 1041 931"
    underline-thickness="50"
    underline-position="-50"
    unicode-range="U+0020-FB04"
  />
<missing-glyph 
d="M12 0v665h475v-665h-475zM88 618l162 -243l161 243h-323zM60 575v-484l40 61l80 120l41 61zM440 575l-162 -242l162 -243v485zM411 48l-161 242l-162 -242h323z" />
    <glyph glyph-name="f_f" unicode="ff" horiz-adv-x="524" 
d="M498 449v-77h-69v-372h-88v372h-179v-372h-90v372h-63v77h63v20q0 37 1 55.5t8 44.5t21 49q21 35 58 54t80 19q33 0 56 -9v-82q-20 5 -45 5q-26 0 -43.5 -8.5t-26.5 -19t-13.5 -32t-5 -35.5t-0.5 -41v-20h179v56q0 77 42.5 131.5t123.5 54.5q30 0 57 -9v-82q-30 5 -53 5
q-51 0 -72 -45q-10 -20 -10 -91v-20h69z" />
    <glyph glyph-name="fi" unicode="fi" 
d="M269 449v-75h-100v-374h-89v374h-67v75h67q-3 113 44 177.5t146 64.5q80 0 120.5 -41t42.5 -102h-84q-5 11 -6.5 15t-9 16t-15 17.5t-21 11t-30.5 5.5q-34 0 -56 -15.5t-30 -43.5t-10.5 -51t-1.5 -54h100zM433 449v-449h-84v449h84z" />
    <glyph glyph-name="fl" unicode="fl" 
d="M267 449v-75h-102v-374h-87v374h-69v75h69v22q0 96 31 145q51 75 134 75q31 0 60 -9v-81q-23 7 -40 7q-60 0 -84 -43q-14 -25 -14 -94v-22h102zM437 682v-682h-90v682h90z" />
    <glyph glyph-name="f_f_i" unicode="ffi" horiz-adv-x="760" 
d="M527 449v-75h-101v-374h-89v374h-181v-374h-88v374h-64v75h64v25q0 98 31 146q47 71 137 71q31 0 60 -9v-82q-32 5 -48 5q-26 0 -44.5 -9t-27.5 -20t-14 -32t-5.5 -34t-0.5 -36v-25h181q4 242 189 242q87 0 126 -43t42 -100h-88q-5 13 -9 21.5t-13 20t-24.5 17t-36.5 5.5
q-33 0 -55 -16t-30 -44.5t-10 -50.5t-2 -52h101zM697 449v-449h-88v449h88z" />
    <glyph glyph-name="f_f_l" unicode="ffl" horiz-adv-x="760" 
d="M697 682v-682h-87v682h87zM532 449v-77h-102v-372h-89v372h-179v-372h-89v372h-63v77h63v20q0 37 1 55.5t8 44.5t21 49q21 35 58 54t80 19q32 0 55 -9v-82q-20 5 -44 5q-26 0 -44 -8.5t-27 -19t-13.5 -32t-5 -35.5t-0.5 -41v-20h179v56q0 76 43 131t124 55q28 0 57 -9
v-82q-32 5 -53 5q-52 0 -73 -45q-9 -20 -9 -91v-20h102z" />
    <glyph glyph-name=".notdef" 
d="M12 0v665h475v-665h-475zM88 618l162 -243l161 243h-323zM60 575v-484l40 61l80 120l41 61zM440 575l-162 -242l162 -243v485zM411 48l-161 242l-162 -242h323z" />
    <glyph glyph-name=".null" horiz-adv-x="0" 
 />
    <glyph glyph-name="nonmarkingreturn" horiz-adv-x="333" 
 />
    <glyph glyph-name="space" unicode=" " horiz-adv-x="278" 
 />
    <glyph glyph-name="exclam" unicode="!" horiz-adv-x="271" 
d="M196 52q0 -24 -16.5 -42.5t-43.5 -18.5q-25 0 -43.5 16.5t-18.5 43.5q0 25 17 43.5t44 18.5q28 0 44.5 -18.5t16.5 -42.5zM136 691q55 0 55 -139q0 -122 -34 -306q-1 -11 -7.5 -30t-12.5 -19q-18 0 -37.5 129t-19.5 222q0 143 56 143z" />
    <glyph glyph-name="quotedbl" unicode="&#x22;" horiz-adv-x="354" 
d="M69 429l-23 134v119h100v-119l-23 -134h-54zM231 429l-23 134v119h100v-119l-23 -134h-54z" />
    <glyph glyph-name="numbersign" unicode="#" horiz-adv-x="667" 
d="M42 410h154l41 195h72l-40 -195h194l41 195h70l-40 -195h91v-69h-106l-35 -170h141v-71h-155l-41 -193h-71l40 193h-194l-40 -193h-72l40 193h-90v71h105l35 170h-140v69zM448 341h-194l-36 -170h195z" />
    <glyph glyph-name="dollar" unicode="$" horiz-adv-x="542" 
d="M470 596v-112q-62 65 -149 83v-198q87 -24 134 -75.5t47 -113.5q0 -64 -41.5 -118t-139.5 -72v-108h-82v108q-87 9 -188 71v123q41 -37 80 -60t59.5 -30t48.5 -13v215q-102 29 -144.5 78t-42.5 104q0 61 48 114t139 63v36h82v-36q97 -15 149 -59zM239 395v172
q-42 -4 -66 -30t-24 -53q0 -31 21.5 -50.5t68.5 -38.5zM321 263v-181q83 20 83 86q0 19 -5.5 33t-19 25.5t-24.5 18t-34 18.5z" />
    <glyph glyph-name="percent" unicode="%" horiz-adv-x="708" 
d="M531 297q63 0 107.5 -44.5t44.5 -107.5t-44.5 -107.5t-107.5 -44.5t-107.5 44.5t-44.5 107.5t44.5 107.5t107.5 44.5zM530 65q33 0 56 23t23 56t-23 56t-56 23t-56 -23t-23 -56t23 -56t56 -23zM209 690q63 0 107.5 -44.5t44.5 -107.5t-44.5 -107.5t-107.5 -44.5
t-107.5 44.5t-44.5 107.5t44.5 107.5t107.5 44.5zM208 458q33 0 56 23t23 56t-23 56t-56 23t-56 -23t-23 -56t23 -56t56 -23zM630 692l-449 -701h-75l449 701h75z" />
    <glyph glyph-name="ampersand" unicode="&#x26;" horiz-adv-x="625" 
d="M482 160l138 -160h-125l-79 93q-46 -39 -60 -48q-89 -54 -158 -54q-67 0 -118.5 45t-51.5 115q0 111 161 203q-77 80 -77 158q0 60 42 108.5t128 48.5q84 0 127 -47t43 -104q0 -32 -12.5 -61t-36.5 -53t-38.5 -36t-38.5 -29l96 -110q43 49 73 110h98q-34 -91 -111 -179z
M334 141l22 20l-111 128l-43 -30q-76 -52 -76 -104q0 -28 23.5 -49.5t60.5 -21.5q63 0 124 57zM271 405q89 54 89 111q0 29 -22 49.5t-55 20.5q-32 0 -53.5 -18.5t-21.5 -46.5q0 -25 15.5 -53.5t27.5 -42t20 -20.5z" />
    <glyph glyph-name="quotesingle" unicode="'" horiz-adv-x="187" 
d="M66 429l-22 134v119h100v-119l-23 -134h-55z" />
    <glyph glyph-name="parenleft" unicode="(" horiz-adv-x="323" 
d="M311 -230h-55q-64 80 -92.5 123t-53.5 106q-46 114 -46 231q0 63 13.5 123.5t30 103t47 92.5t49 75t52.5 67h55q-26 -39 -39.5 -61t-37 -69.5t-35.5 -90t-22 -107t-10 -136.5q0 -266 144 -457z" />
    <glyph glyph-name="parenright" unicode=")" horiz-adv-x="323" 
d="M12 691h55q46 -58 65.5 -84.5t41.5 -63.5t39 -81q46 -114 46 -231q0 -63 -13.5 -123.5t-30 -103t-47 -92.5t-49 -75t-52.5 -67h-55q26 39 39.5 61t37 69.5t35.5 90t22 107t10 135.5q0 267 -144 458z" />
    <glyph glyph-name="asterisk" unicode="*" horiz-adv-x="417" 
d="M237 528l84 80q25 25 46 25q13 0 22.5 -10t9.5 -25q0 -18 -11 -28t-38 -18l-107 -39q2 -8 2 -12q0 -5 -2 -11l101 -35q55 -21 55 -51q0 -10 -9 -22t-24 -12q-22 0 -56 34l-73 72q-8 -10 -20 -10l20 -103q0 -1 2 -18t2 -28q0 -42 -35 -42q-16 0 -24 13t-8 30q0 19 4 28
q0 2 2.5 8.5t2.5 8.5l19 103q-9 0 -19 10l-78 -72q-36 -33 -55 -33q-16 0 -24.5 11.5t-8.5 21.5q0 13 11.5 24.5t21 15.5t27.5 11l99 35q-2 8 -2 12q0 6 2 11l-113 42q-44 16 -44 42q0 15 11 26t23 11q16 0 45 -26l85 -80q9 9 19 10l-19 101q-7 30 -7 45q0 42 34 42
q33 0 33 -39q0 -10 -6 -48l-20 -101q12 0 20 -10z" />
    <glyph glyph-name="plus" unicode="+" horiz-adv-x="583" 
d="M251 105v195h-196v82h196v195h82v-195h195v-82h-195v-195h-82z" />
    <glyph glyph-name="comma" unicode="," horiz-adv-x="219" 
d="M49 -119v18q38 38 41 101q-52 16 -52 64q0 26 18 45.5t42 19.5q31 0 49.5 -28t18.5 -66q0 -11 -2.5 -24.5t-11.5 -41t-36 -51.5t-67 -37z" />
    <glyph glyph-name="hyphen" unicode="-" horiz-adv-x="323" 
d="M283 269v-95h-243v95h243z" />
    <glyph glyph-name="period" unicode="." horiz-adv-x="219" 
d="M109 109q23 0 41.5 -17t18.5 -42t-17.5 -42t-42.5 -17q-24 0 -41.5 17t-17.5 42t18 42t41 17z" />
    <glyph glyph-name="slash" unicode="/" horiz-adv-x="281" 
d="M7 -9l196 700h71l-196 -700h-71z" />
    <glyph glyph-name="zero" unicode="0" 
d="M254 691q93 0 154.5 -97.5t61.5 -250.5q0 -159 -62.5 -255.5t-157.5 -96.5q-97 0 -158.5 95t-61.5 255q0 165 67 257.5t157 92.5zM250 598q-50 0 -86 -62.5t-36 -192.5q0 -142 36.5 -200.5t84.5 -58.5q49 0 86 59t37 197q0 66 -10 116t-24 76t-32.5 42t-31.5 20t-24 4z
" />
    <glyph glyph-name="one" unicode="1" 
d="M300 682v-682h-98v682h98z" />
    <glyph glyph-name="two" unicode="2" 
d="M466 94v-94h-432v7q180 218 236 314q49 81 49 146q0 67 -37.5 97t-80.5 30q-87 0 -153 -92v124q80 65 165 65q88 0 146 -59t58 -151q0 -47 -14 -92t-49 -99t-62 -89.5t-86 -106.5h260z" />
    <glyph glyph-name="three" unicode="3" 
d="M64 30v106q76 -48 150 -48q44 0 76 26t32 81q0 48 -32.5 80t-109.5 32v90q137 0 137 103q0 40 -29.5 71t-88.5 31q-52 0 -118 -33v93q58 29 130 29q89 0 145.5 -47t56.5 -136q0 -102 -87 -148q51 -17 74.5 -62.5t23.5 -99.5q0 -93 -61.5 -150t-146.5 -57q-77 0 -152 39z
" />
    <glyph glyph-name="four" unicode="4" 
d="M395 691v-383h76v-84h-76v-224h-95v224h-289v43l344 424h40zM300 308v198l-158 -198h158z" />
    <glyph glyph-name="five" unicode="5" 
d="M404 682v-87h-214v-172q112 6 180 -55t68 -158q0 -93 -61.5 -156t-165.5 -63q-80 0 -161 42v101q73 -48 144 -48q62 0 103.5 35.5t41.5 88.5q0 45 -30 75.5t-63.5 41t-63.5 10.5q-60 0 -81 -10v355h303z" />
    <glyph glyph-name="six" unicode="6" 
d="M317 691l59 -75q-159 -102 -209 -250q53 28 108 28q78 0 134 -56t56 -141q0 -87 -60 -146.5t-145 -59.5q-35 0 -70 12.5t-69 39t-55.5 77t-21.5 117.5q0 175 128 326q49 58 145 128zM146 265q-4 -24 -4 -52q0 -63 37 -97t82 -34q44 0 76 30.5t32 81.5q0 56 -36 83t-82 27
q-49 0 -105 -39z" />
    <glyph glyph-name="seven" unicode="7" 
d="M490 682l-309 -691l-87 38l250 560h-295v93h441z" />
    <glyph glyph-name="eight" unicode="8" 
d="M373 348q95 -56 95 -161q0 -81 -60 -138.5t-157 -57.5q-96 0 -157.5 58.5t-61.5 138.5q0 73 50 125q17 17 47 35q-16 13 -25.5 22.5t-24.5 29t-23 44.5t-8 55q0 82 61 137t146 55q82 0 142.5 -54.5t60.5 -136.5q0 -93 -85 -152zM361 496q0 40 -28.5 71t-79.5 31
q-46 0 -77.5 -28t-31.5 -73q0 -47 35.5 -75t74.5 -28q40 0 73.5 28t33.5 74zM369 193q0 42 -30.5 74t-89.5 32q-60 0 -89 -33.5t-29 -73.5q0 -43 31.5 -75t89.5 -32q57 0 87 32t30 76z" />
    <glyph glyph-name="nine" unicode="9" 
d="M187 -9l-60 72q23 15 48 34.5t59 52.5t61.5 77.5t39.5 91.5q-48 -29 -109 -29q-82 0 -136 60t-54 138q0 80 57.5 141.5t146.5 61.5q100 0 160.5 -71t60.5 -178q0 -125 -78 -251.5t-196 -199.5zM354 416q5 40 5 53q0 49 -28.5 90t-88.5 41q-56 0 -82.5 -36t-26.5 -76
q0 -49 36.5 -79t77.5 -30q51 0 107 37z" />
    <glyph glyph-name="colon" unicode=":" horiz-adv-x="219" 
d="M105 111q24 0 42 -17t18 -43q0 -25 -18 -42.5t-42 -17.5t-41.5 17.5t-17.5 42.5t18 42.5t41 17.5zM113 458q24 0 42 -17t18 -43q0 -25 -18 -42.5t-42 -17.5t-41.5 17.5t-17.5 42.5q0 26 18 43t41 17z" />
    <glyph glyph-name="semicolon" unicode=";" horiz-adv-x="229" 
d="M120 458q23 0 41 -17t18 -43q0 -25 -17.5 -42.5t-41.5 -17.5t-42 17.5t-18 42.5q0 26 18 43t42 17zM61 -119v18q38 38 41 101q-52 16 -52 64q0 26 17.5 45.5t42.5 19.5q31 0 49.5 -28t18.5 -66q0 -11 -2.5 -24.5t-11.5 -41t-36 -51.5t-67 -37z" />
    <glyph glyph-name="less" unicode="&#x3c;" horiz-adv-x="583" 
d="M55 301v82l473 200v-87l-376 -154l376 -156v-87z" />
    <glyph glyph-name="equal" unicode="=" horiz-adv-x="583" 
d="M528 191h-473v82h473v-82zM528 409h-473v82h473v-82z" />
    <glyph glyph-name="greater" unicode="&#x3e;" horiz-adv-x="583" 
d="M528 381v-82l-473 -200v87l376 154l-376 156v87z" />
    <glyph glyph-name="question" unicode="?" horiz-adv-x="333" 
d="M65 585l64 107q60 -4 90 -21q37 -21 54 -56t17 -69q0 -36 -13.5 -75t-28.5 -64.5t-45 -71.5q-64 -101 -64 -139q0 -12 3 -21q-17 7 -27.5 14t-22.5 28t-12 51q0 35 13.5 64.5t53.5 92.5q41 65 41 110q0 26 -13.5 42t-27 20t-27.5 4q-20 0 -55 -16zM214 51q0 -26 -18 -43
t-43 -17q-24 0 -41.5 16t-17.5 43t18 44t42 17q22 0 41 -16t19 -44z" />
    <glyph glyph-name="at" unicode="@" horiz-adv-x="1010" 
d="M641 418l17 76h88l-71 -328q-15 -75 -15 -76q0 -15 11.5 -23.5t22.5 -8.5q21 0 52.5 19.5t62.5 52.5t52.5 86.5t21.5 112.5q0 135 -101.5 221.5t-247.5 86.5q-124 0 -218 -59.5t-141.5 -154.5t-47.5 -207q0 -84 25 -150t65 -107.5t96 -68.5t113.5 -38t120.5 -11
q75 0 137.5 15.5t103 40.5t64 46.5t39.5 44.5h88q-7 -15 -19.5 -34t-48 -54.5t-80.5 -62.5t-120 -48t-163 -21q-128 0 -225 36t-154.5 98t-86 139t-28.5 167q0 61 14 125t50 132.5t89 121.5t139 87t193 34q99 0 179.5 -32.5t131.5 -87t78 -122t27 -139.5q0 -111 -54 -192
t-119 -122q-55 -36 -121 -36q-30 0 -50 7.5t-28.5 22t-11 24.5t-4.5 27q-72 -81 -150 -81q-76 0 -126.5 63.5t-50.5 155.5q0 74 34 146t93.5 119t126.5 47q93 0 147 -90zM331 189q0 -64 31.5 -101.5t72.5 -37.5q67 0 122.5 74.5t55.5 171.5q0 67 -32.5 103.5t-80.5 36.5
q-52 0 -92.5 -44t-58.5 -99t-18 -104z" />
    <glyph glyph-name="A" unicode="A" horiz-adv-x="667" 
d="M362 686l305 -686h-100l-91 201h-290l-86 -201h-100l293 686h69zM224 289h212l-110 247z" />
    <glyph glyph-name="B" unicode="B" horiz-adv-x="562" 
d="M75 682h179q74 0 114 -15q52 -19 83.5 -60.5t31.5 -101.5q0 -100 -104 -144q75 -14 119 -62t44 -113q0 -39 -14.5 -71t-37.5 -52t-42.5 -31t-38.5 -18q-40 -14 -145 -14h-189v682zM237 595h-65v-205h65q65 0 92 16q53 28 53 91q0 29 -13 52t-35 33q-28 13 -97 13z
M264 302h-92v-215h97q76 0 101 10q35 13 53 40.5t18 57.5q0 66 -65 93q-33 14 -112 14z" />
    <glyph glyph-name="C" unicode="C" horiz-adv-x="708" 
d="M656 635v-105q-119 68 -236 68q-120 0 -195 -76t-75 -183q0 -104 71.5 -180.5t199.5 -76.5q126 0 242 76v-107q-110 -60 -248 -60q-91 0 -163.5 32t-115.5 83.5t-65.5 111.5t-22.5 122q0 144 105 247.5t264 103.5q109 0 239 -56z" />
    <glyph glyph-name="D" unicode="D" horiz-adv-x="750" 
d="M76 682h230q48 0 80 -2t88 -19t98 -49q60 -45 95.5 -115.5t35.5 -155.5q0 -60 -18.5 -113t-48.5 -88.5t-52.5 -55t-44.5 -33.5q-38 -24 -88 -36t-80 -13.5t-79 -1.5h-216v682zM296 595h-123v-507h126q124 0 189 39q52 33 83 91.5t31 127.5t-34.5 130.5t-107.5 93.5
q-26 12 -55.5 17.5t-49 6.5t-59.5 1z" />
    <glyph glyph-name="E" unicode="E" horiz-adv-x="521" 
d="M462 682v-87h-289v-208h279v-87h-279v-212h298v-88h-396v682h387z" />
    <glyph glyph-name="F" unicode="F" horiz-adv-x="469" 
d="M440 682v-88h-266v-189h266v-88h-266v-317h-98v682h364z" />
    <glyph glyph-name="G" unicode="G" horiz-adv-x="740" 
d="M673 335v-288q-127 -56 -250 -56q-95 0 -169 31.5t-117 83t-65 110t-22 119.5q0 92 42.5 172t128.5 132t198 52q65 0 119 -14.5t121 -43.5v-100q-122 71 -242 71q-107 0 -186 -73.5t-79 -189.5q0 -115 76 -189.5t198 -74.5q56 0 149 30v142h-131v86h229z" />
    <glyph glyph-name="H" unicode="H" horiz-adv-x="729" 
d="M654 682v-682h-99v297h-382v-297h-98v682h98v-295h382v295h99z" />
    <glyph glyph-name="I" unicode="I" horiz-adv-x="250" 
d="M174 682v-682h-98v682h98z" />
    <glyph glyph-name="J" unicode="J" horiz-adv-x="250" 
d="M174 682v-673q0 -72 -12 -116.5t-46 -77.5q-48 -46 -128 -46q-2 0 -32 3l-18 91q86 -2 112 26.5t26 130.5v662h98z" />
    <glyph glyph-name="K" unicode="K" horiz-adv-x="656" 
d="M583 682l-296 -323l369 -359h-134l-348 337v-337h-99v682h99v-312l287 312h122z" />
    <glyph glyph-name="L" unicode="L" horiz-adv-x="490" 
d="M173 682v-593h307v-89h-406v682h99z" />
    <glyph glyph-name="M" unicode="M" horiz-adv-x="781" 
d="M709 682v-682h-98v531l-210 -264h-18l-212 264v-531h-98v682h92l227 -280l226 280h91z" />
    <glyph glyph-name="N" unicode="N" horiz-adv-x="781" 
d="M710 682v-682h-84l-456 525v-525h-92v682h79l460 -529v529h93z" />
    <glyph glyph-name="O" unicode="O" horiz-adv-x="823" 
d="M410 691q164 0 266 -103t102 -246q0 -149 -104 -250t-269 -101q-157 0 -258.5 101.5t-101.5 246.5q0 92 41.5 171t126.5 130t197 51zM414 599q-55 0 -101 -16t-76 -42.5t-51 -61t-30.5 -70t-9.5 -70.5q0 -113 77.5 -185t187.5 -72q56 0 110 21.5t89 59.5q31 34 49.5 84
t18.5 96q0 44 -16.5 88t-48 82t-83.5 62t-116 24z" />
    <glyph glyph-name="P" unicode="P" horiz-adv-x="510" 
d="M70 682h176q52 0 78 -2t61 -15.5t62 -40.5q53 -53 53 -135q0 -83 -57 -138q-32 -31 -77.5 -43t-125.5 -12h-72v-296h-98v682zM242 596h-74v-213h78q79 0 108 18q45 27 45 90q0 49 -30 76q-21 20 -44.5 24.5t-82.5 4.5z" />
    <glyph glyph-name="Q" unicode="Q" horiz-adv-x="823" 
d="M763 -44l-98 -95q-152 7 -335 139q-115 20 -200.5 112.5t-85.5 226.5q0 152 103.5 252t263.5 100q111 0 196 -49.5t128.5 -128t43.5 -170.5q0 -125 -78.5 -221.5t-205.5 -121.5q136 -57 200 -57q33 0 68 13zM411 599q-70 0 -124.5 -26t-83.5 -67t-43.5 -83.5t-14.5 -83.5
q0 -110 76 -183.5t190 -73.5q118 0 192 77t74 182q0 42 -14.5 84.5t-44 82.5t-83.5 65.5t-124 25.5z" />
    <glyph glyph-name="R" unicode="R" horiz-adv-x="604" 
d="M78 682h171q67 0 117 -22q53 -22 80 -67.5t27 -100.5q0 -123 -114 -168q29 -19 57 -51.5t44 -56.5t51 -80q25 -40 93 -136h-116q-8 12 -68 103.5t-72 107.5q-45 58 -74.5 72t-72.5 14h-26v-297h-97v682zM205 599h-30v-215h38q68 0 95 10q32 13 48.5 40t16.5 58
q0 30 -14 55t-38 36q-33 16 -116 16z" />
    <glyph glyph-name="S" unicode="S" horiz-adv-x="458" 
d="M399 643v-111q-74 71 -160 71q-49 0 -78.5 -23t-29.5 -56q0 -41 31.5 -68t138.5 -90q56 -33 88 -76q37 -48 37 -113q0 -81 -54 -133.5t-144 -52.5q-101 0 -184 63v124q80 -100 184 -100q41 0 73.5 24.5t32.5 65.5q0 65 -90 118q-88 53 -118 74t-51 48q-34 44 -34 102
q0 79 55 130t146 51q84 0 157 -48z" />
    <glyph glyph-name="T" unicode="T" horiz-adv-x="604" 
d="M587 682v-86h-238v-596h-98v596h-234v86h570z" />
    <glyph glyph-name="U" unicode="U" horiz-adv-x="708" 
d="M647 682v-387q0 -35 -1.5 -56t-8 -56t-23.5 -64.5t-44 -53.5q-84 -74 -215 -74q-79 0 -148.5 29t-107.5 90q-38 60 -38 185v387h98v-387q0 -69 8.5 -101.5t34.5 -58.5q55 -57 153 -57q127 0 176 90q19 35 19 127v387h97z" />
    <glyph glyph-name="V" unicode="V" horiz-adv-x="604" 
d="M604 682l-288 -686h-22l-294 686h98l205 -479l204 479h97z" />
    <glyph glyph-name="W" unicode="W" horiz-adv-x="1042" 
d="M1041 682l-276 -686h-21l-223 556l-225 -556h-21l-275 686h98l188 -470l189 470h93l190 -470l186 470h97z" />
    <glyph glyph-name="X" unicode="X" horiz-adv-x="708" 
d="M687 682l-272 -329l291 -353h-118l-232 282l-235 -282h-119l294 353l-273 329h119l214 -260l213 260h118z" />
    <glyph glyph-name="Y" unicode="Y" horiz-adv-x="604" 
d="M604 682l-252 -321v-361h-100v361l-252 321h118l183 -235l185 235h118z" />
    <glyph glyph-name="Z" unicode="Z" horiz-adv-x="646" 
d="M628 682l-436 -596h436v-86h-616l437 596h-409v86h588z" />
    <glyph glyph-name="bracketleft" unicode="[" horiz-adv-x="333" 
d="M319 682v-81h-137v-742h137v-80h-233v903h233z" />
    <glyph glyph-name="backslash" unicode="\" horiz-adv-x="281" 
d="M203 -9l-196 700h71l196 -700h-71z" />
    <glyph glyph-name="bracketright" unicode="]" horiz-adv-x="333" 
d="M15 -221v80h136v743h-136v80h232v-903h-232z" />
    <glyph glyph-name="asciicircum" unicode="^" horiz-adv-x="469" 
d="M116 291h-90l173 391h71l173 -391h-89l-120 292z" />
    <glyph glyph-name="underscore" unicode="_" 
d="M-6 -75h512v-50h-512v50z" />
    <glyph glyph-name="grave" unicode="`" horiz-adv-x="333" 
d="M160 653l67 -147h-55l-112 147h100z" />
    <glyph glyph-name="a" unicode="a" horiz-adv-x="427" 
d="M415 80v-54q-53 -35 -86 -35q-57 0 -68 46q-58 -46 -121 -46q-48 0 -79 32.5t-31 77.5q0 26 10 47t21.5 33.5t37.5 26t39.5 19t44.5 16.5l79 28v24q0 79 -81 79q-80 0 -142 -74v97q52 61 149 61q72 0 117.5 -37.5t45.5 -110.5v-231q0 -23 17 -23q15 0 47 24zM262 91v131
q-71 -24 -106.5 -46.5t-35.5 -58.5q0 -28 18 -45.5t46 -17.5q39 0 78 37z" />
    <glyph glyph-name="b" unicode="b" 
d="M148 682v-265q56 41 124 41q88 0 140.5 -66t52.5 -163q0 -113 -67 -176t-165 -63q-102 0 -174 35v657h89zM148 332v-243q46 -14 94 -14q49 0 91 37t42 113q0 72 -37 111.5t-89 39.5q-51 0 -101 -44z" />
    <glyph glyph-name="c" unicode="c" horiz-adv-x="437" 
d="M390 427v-95q-67 43 -125 43q-65 0 -101 -45.5t-36 -104.5q0 -63 38.5 -106.5t115.5 -43.5q52 0 118 30v-88q-74 -26 -131 -26q-111 0 -171 66.5t-60 164.5q0 43 12.5 83t38 75.5t70 56.5t101.5 21q58 0 130 -31z" />
    <glyph glyph-name="d" unicode="d" horiz-adv-x="510" 
d="M452 682v-682h-190q-62 0 -107.5 23.5t-68 61t-32.5 74t-10 73.5q0 104 65.5 165t155.5 61q51 0 97 -18v242h90zM362 75v286q-40 21 -83 21q-61 0 -103 -40.5t-42 -120.5q0 -99 66 -132q28 -14 94 -14h68z" />
    <glyph glyph-name="e" unicode="e" horiz-adv-x="479" 
d="M438 131v-87q-82 -53 -176 -53t-155 63q-67 69 -67 173t59 167.5t151 63.5q77 0 128 -49t63 -125q5 -30 5 -67h-316q3 -57 40 -99t105 -42q88 0 163 55zM132 270h226q-1 13 -4 26t-12.5 35t-33.5 36t-59 14q-52 0 -86 -38q-24 -26 -31 -73z" />
    <glyph glyph-name="f" unicode="f" horiz-adv-x="260" 
d="M296 682v-87q-20 8 -41 8q-27 0 -45.5 -9t-27.5 -20.5t-14 -31.5t-5.5 -32.5t-0.5 -33.5v-27h80v-80h-80v-369h-90v369h-63v80h63v27q0 75 23 126q21 40 57 64.5t78 24.5q32 0 66 -9z" />
    <glyph glyph-name="g" unicode="g" horiz-adv-x="427" 
d="M421 449v-69h-92q47 -47 47 -98q0 -26 -12.5 -55t-29.5 -46q-25 -27 -72 -37.5t-78.5 -18t-31.5 -29.5q0 -18 32.5 -31t104.5 -27q130 -26 130 -125q0 -67 -56 -105t-156 -38q-91 0 -149 38.5t-58 97.5q0 50 27.5 80t85.5 44q-45 28 -45 57q0 22 19.5 39t51.5 25v2
q-49 21 -75 57q-24 34 -24 84q0 72 52.5 113.5t143.5 41.5h185zM296 293q0 32 -26 55.5t-61 23.5q-37 0 -63 -24t-26 -57q0 -37 25 -59.5t65 -22.5q38 0 62 23.5t24 60.5zM333 -94q0 26 -26.5 43.5t-57.5 23t-63 5.5q-45 0 -73.5 -19t-28.5 -49q0 -69 125 -69q59 0 91.5 17
t32.5 48z" />
    <glyph glyph-name="h" unicode="h" 
d="M150 682v-292q57 68 138 68q48 0 83.5 -24.5t50.5 -60.5q17 -42 17 -117v-256h-89v278q0 42 -16 69q-25 41 -71 41q-55 0 -113 -66v-322h-89v682h89z" />
    <glyph glyph-name="i" unicode="i" horiz-adv-x="219" 
d="M109 638q22 0 37.5 -15.5t15.5 -36.5t-15.5 -37t-37.5 -16q-24 0 -38 17t-14 36q0 20 15 36t37 16zM154 449v-449h-89v449h89z" />
    <glyph glyph-name="j" unicode="j" horiz-adv-x="219" 
d="M104 638q20 0 36.5 -14t16.5 -38q0 -21 -14 -37t-38 -16t-38.5 17.5t-14.5 35.5q0 20 15 36t37 16zM151 449v-476q0 -39 -1.5 -60t-9.5 -51t-27.5 -52t-51.5 -40l-67 65q29 10 53 42q10 16 12 32.5t2 58.5v10v471h90z" />
    <glyph glyph-name="k" unicode="k" horiz-adv-x="479" 
d="M461 449l-192 -220l231 -229h-119l-225 229l199 220h106zM152 682v-682h-90v682h90z" />
    <glyph glyph-name="l" unicode="l" horiz-adv-x="219" 
d="M154 682v-682h-89v682h89z" />
    <glyph glyph-name="m" unicode="m" horiz-adv-x="771" 
d="M59 449h88v-59q38 38 68.5 53t65.5 15q87 0 132 -81q45 45 77 63t71 18q73 0 111.5 -46t38.5 -132v-280h-88v274q0 53 -24.5 80.5t-68.5 27.5q-55 0 -101 -56v-326h-88v269q0 53 -19 83.5t-70 30.5q-56 0 -105 -57v-326h-88v449z" />
    <glyph glyph-name="n" unicode="n" 
d="M61 449h91v-57q59 66 135 66q31 0 67 -15.5t60 -56.5q25 -39 25 -130v-256h-90v256q0 42 -4 61.5t-20 38.5q-25 28 -67 28q-62 0 -106 -63v-321h-91v449z" />
    <glyph glyph-name="o" unicode="o" horiz-adv-x="552" 
d="M278 458q102 0 170 -65t68 -170q0 -111 -73.5 -171.5t-167.5 -60.5q-106 0 -172.5 68t-66.5 166t66.5 165.5t175.5 67.5zM273 378q-63 0 -104.5 -41t-41.5 -113q0 -77 46 -115t104 -38q66 0 107 43t41 111q0 77 -47 115t-105 38z" />
    <glyph glyph-name="p" unicode="p" 
d="M57 449h156q99 0 160 -38q53 -34 73 -86.5t20 -100.5q0 -100 -62 -166.5t-161 -66.5q-43 0 -95 20v-241h-91v679zM211 366h-63v-276q41 -21 86 -21q61 0 101 42.5t40 112.5q0 40 -13.5 69t-30.5 42.5t-44 21t-41 8.5t-35 1z" />
    <glyph glyph-name="q" unicode="q" 
d="M442 449v-679h-88v238q-53 -17 -98 -17q-92 0 -156.5 63t-64.5 166q0 28 6 56.5t23 60.5t42.5 56t69 40t99.5 16h167zM354 85v281h-56q-78 0 -107 -18q-66 -43 -66 -126q0 -67 40.5 -111.5t107.5 -44.5q23 0 81 19z" />
    <glyph glyph-name="r" unicode="r" horiz-adv-x="386" 
d="M59 449h89v-103q16 25 25.5 38t28 33.5t38.5 30.5t42 10q52 0 105 -51l-47 -78q-14 14 -38.5 29t-47.5 15q-34 0 -70 -35t-36 -103v-235h-89v449z" />
    <glyph glyph-name="s" unicode="s" horiz-adv-x="385" 
d="M323 421v-88q-77 48 -130 48q-29 0 -43 -12.5t-14 -27.5q0 -19 18 -33.5t70 -43.5q6 -3 9 -5q112 -61 112 -141q0 -18 -7.5 -38t-23.5 -41t-48 -34.5t-75 -13.5q-66 0 -150 41v96q86 -59 143 -59q24 0 46 12.5t22 33.5q0 22 -15.5 35.5t-53.5 34.5q-69 38 -104 71.5
t-35 84.5q0 50 39.5 83.5t103.5 33.5q65 0 136 -37z" />
    <glyph glyph-name="t" unicode="t" horiz-adv-x="347" 
d="M167 542v-93h142v-80h-142v-196q1 -43 3.5 -56.5t12.5 -25.5q18 -19 48 -19q49 0 101 32v-83q-55 -30 -115 -30q-29 0 -62.5 13.5t-54.5 43.5q-22 33 -22 122v199h-78v9z" />
    <glyph glyph-name="u" unicode="u" 
d="M438 0h-90v57q-60 -66 -136 -66q-31 0 -67 15.5t-60 56.5q-25 39 -25 130v256h90v-256q0 -21 0.5 -33.5t5.5 -33t13.5 -32t27 -20.5t44.5 -9q62 0 107 63v321h90v-449z" />
    <glyph glyph-name="v" unicode="v" horiz-adv-x="437" 
d="M434 449l-198 -458h-30l-203 458h97l121 -276l117 276h96z" />
    <glyph glyph-name="w" unicode="w" horiz-adv-x="719" 
d="M719 449l-198 -458h-28l-133 314l-131 -314h-29l-200 458h95l118 -272l114 272h66l114 -272l117 272h95z" />
    <glyph glyph-name="x" unicode="x" 
d="M487 449l-185 -221l198 -228h-114l-141 161l-133 -161h-112l189 228l-189 221h112l133 -154l128 154h114z" />
    <glyph glyph-name="y" unicode="y" horiz-adv-x="437" 
d="M438 449l-318 -679h-99l153 326l-174 353h101l121 -253l116 253h100z" />
    <glyph glyph-name="z" unicode="z" horiz-adv-x="417" 
d="M405 449l-238 -367h238v-82h-394l236 366h-226v83h384z" />
    <glyph glyph-name="braceleft" unicode="{" horiz-adv-x="333" 
d="M283 682h28v-74h-16q-60 0 -71.5 -25.5t-11.5 -143.5q0 -104 -23.5 -146t-79.5 -68q22 -9 38 -21t27.5 -23.5t18.5 -33.5t11 -37t5.5 -48.5t2 -54.5t0.5 -66q0 -62 16.5 -80t66.5 -18h16v-75h-28q-23 0 -36 1t-36 8t-36.5 20t-26.5 40.5t-16 66.5q-2 16 -4 93l-1 77
q-6 111 -99 113v77q29 1 49 12.5t30 25.5t15 42.5t6 47.5t1 56q1 62 2 87.5t8.5 54.5t22.5 49q16 20 40 30t39.5 11.5t41.5 1.5z" />
    <glyph glyph-name="bar" unicode="|" horiz-adv-x="260" 
d="M92 -232v914h76v-914h-76z" />
    <glyph glyph-name="braceright" unicode="}" horiz-adv-x="333" 
d="M50 -232h-27v75h15q61 0 72.5 25.5t11.5 142.5q0 104 23.5 146.5t78.5 67.5q-22 9 -38 21t-27 24t-18 33.5t-11 37t-5.5 48.5t-2 54t-0.5 67q0 62 -17 80t-67 18h-15v74h27q23 0 36 -1t36.5 -8t37 -20t26.5 -40.5t16 -66.5q1 -15 2.5 -89t1.5 -81q6 -110 99 -112v-77
q-24 -1 -42 -7.5t-28.5 -21.5t-17 -28t-9 -39.5t-3.5 -41.5t-1 -47q0 -87 -5 -124t-28 -67q-15 -20 -39 -30t-40 -11.5t-42 -1.5z" />
    <glyph glyph-name="asciitilde" unicode="~" horiz-adv-x="583" 
d="M42 262v99q52 59 136 59q54 0 133 -34q72 -31 104 -31q60 0 126 66v-103q-58 -56 -135 -56q-53 0 -119 30q-79 36 -118 36q-27 0 -53 -12t-38.5 -22.5t-35.5 -31.5z" />
    <glyph glyph-name="uni00A0" unicode="&#xa0;" horiz-adv-x="278" 
 />
    <glyph glyph-name="exclamdown" unicode="&#xa1;" horiz-adv-x="271" 
d="M74 451q0 23 17 41.5t44 18.5q24 0 42.5 -16.5t18.5 -43.5q0 -25 -16.5 -43.5t-43.5 -18.5q-28 0 -45 18.5t-17 43.5zM135 -192q-56 0 -56 140q0 126 35 306q1 11 7.5 30t13.5 19q17 0 36 -129.5t19 -222.5q0 -143 -55 -143z" />
    <glyph glyph-name="cent" unicode="&#xa2;" horiz-adv-x="437" 
d="M407 620l-63 -175q38 -14 45 -19v-94q-31 25 -73 36l-102 -281q36 -13 61 -13q72 0 124 31v-86q-72 -29 -136 -29q-45 0 -79 10l-69 -190h-47l77 209q-39 22 -73 71.5t-34 127.5q0 106 60 173t165 67q25 0 39 -3l59 165h46zM177 109l96 266q-61 2 -103 -38.5t-42 -114.5
q0 -69 49 -113z" />
    <glyph glyph-name="sterling" unicode="&#xa3;" horiz-adv-x="531" 
d="M333 373v-87h-102l-50 -189q20 2 37 2q59 0 90 -6q58 -11 89 -11q63 0 99 22v-95q-54 -18 -100 -18q-32 0 -110 13q-26 4 -73 4q-83 0 -154 -17l79 295h-72v87h95q12 42 25 80t36 83.5t49 78t63.5 54.5t78.5 22q18 0 36 -4l56 -104q-13 8 -37 11q-20 4 -36 4
q-107 0 -165 -194l-10 -31h76z" />
    <glyph glyph-name="currency" unicode="&#xa4;" horiz-adv-x="552" 
d="M104 456l-68 67l56 58l68 -69q51 36 116 36q63 0 116 -36l68 69l56 -58l-68 -67q35 -55 35 -115t-35 -115l68 -66l-56 -58l-68 68q-53 -36 -116 -36q-65 0 -116 36l-68 -68l-56 58l68 66q-35 55 -35 115t35 115zM149 341q0 -52 37 -89.5t89 -37.5q53 0 90 37t37 90
t-37 90t-90 37q-52 0 -89 -37.5t-37 -89.5z" />
    <glyph glyph-name="yen" unicode="&#xa5;" horiz-adv-x="552" 
d="M233 0v156h-203v70h203v73h-203v70h167l-198 347h98l141 -252q24 -42 37 -75q7 17 40 79l134 248h104l-197 -347h166v-70h-201v-73h201v-70h-201v-156h-88z" />
    <glyph glyph-name="brokenbar" unicode="&#xa6;" horiz-adv-x="260" 
d="M92 -232v374h76v-374h-76zM92 309v373h76v-373h-76z" />
    <glyph glyph-name="section" unicode="&#xa7;" horiz-adv-x="406" 
d="M248 593l1 13q0 8 -7.5 14.5t-23.5 6.5q-27 0 -47 -16t-20 -52q0 -63 88 -146q35 -32 47.5 -44.5t27 -30t26.5 -37.5q34 -56 34 -114q0 -49 -19.5 -84.5t-54.5 -70.5q35 -51 35 -110q0 -62 -43.5 -107t-110.5 -45q-51 0 -84.5 24.5t-33.5 64.5q0 23 15 42.5t40 19.5
q20 0 34 -12.5t14 -35.5q0 -1 -1.5 -10t-1.5 -11q0 -8 7 -13t16 -5q27 0 49.5 20t22.5 53q0 25 -19 57.5t-35.5 51t-50.5 54.5q-27 28 -42.5 46t-37 48.5t-31.5 65t-10 72.5q0 76 66 138q-28 47 -28 96q0 21 7.5 45.5t23 50t47 42.5t73.5 17q44 0 81.5 -21t37.5 -64
q0 -26 -15 -40.5t-37 -14.5q-21 0 -30.5 13.5t-9.5 28.5zM188 338l-48 46q-32 -38 -32 -75q0 -28 15.5 -57.5t32.5 -50.5t54 -59l49 -52q11 11 24 35t13 49q0 37 -21.5 69.5t-86.5 94.5z" />
    <glyph glyph-name="dieresis" unicode="&#xa8;" horiz-adv-x="333" 
d="M73 628q19 0 32.5 -13.5t13.5 -32.5t-13.5 -32.5t-32.5 -13.5t-32.5 13.5t-13.5 32.5t13.5 32.5t32.5 13.5zM261 628q19 0 32.5 -13.5t13.5 -32.5t-13.5 -32.5t-32.5 -13.5t-32.5 13.5t-13.5 32.5t13.5 32.5t32.5 13.5z" />
    <glyph glyph-name="copyright" unicode="&#xa9;" horiz-adv-x="740" 
d="M488 263l60 -18q-16 -67 -66 -100t-112 -33q-86 0 -139.5 56t-53.5 154q0 96 52.5 151.5t144.5 55.5q60 0 105 -28.5t62 -86.5l-58 -14q-12 29 -31 46q-33 29 -80 29q-65 0 -96.5 -46t-31.5 -109q0 -74 34.5 -112.5t88.5 -38.5q13 0 27.5 3t34 12t36 29.5t23.5 49.5z
M370 691q152 0 260 -107.5t108 -260.5t-107.5 -261t-260.5 -108t-261 108t-108 261t108.5 260.5t260.5 107.5zM370 630q-127 0 -217 -89.5t-90 -217.5t90 -218t217 -90t217 90.5t90 217.5q0 128 -90 217.5t-217 89.5z" />
    <glyph glyph-name="ordfeminine" unicode="&#xaa;" horiz-adv-x="281" 
d="M273 475v-43q-37 -23 -64 -23q-35 0 -46 23q-34 -23 -75 -23q-31 0 -52 21t-21 49q0 55 103 86l45 13v13q0 12 -1.5 19t-12 16t-31.5 9t-42.5 -10.5t-30 -18t-25.5 -23.5v69q53 39 106 39q59 0 87 -35q18 -21 18 -78v-103q0 -20 7 -20q5 0 35 20zM163 471v72l-31 -11
q-28 -10 -38 -20t-10 -25t9 -24.5t26 -9.5q19 0 44 18z" />
    <glyph glyph-name="guillemotleft" unicode="&#xab;" horiz-adv-x="490" 
d="M467 0h-88l-147 225l147 224h88l-148 -224zM264 0h-88l-148 225l148 224h88l-148 -224z" />
    <glyph glyph-name="logicalnot" unicode="&#xac;" horiz-adv-x="583" 
d="M528 191h-82v218h-391v82h473v-300z" />
    <glyph glyph-name="uni00AD" unicode="&#xad;" horiz-adv-x="323" 
d="M283 269v-95h-243v95h243z" />
    <glyph glyph-name="registered" unicode="&#xae;" horiz-adv-x="740" 
d="M208 119v396h137q98 0 131 -27q38 -33 38 -80q0 -39 -28.5 -73.5t-84.5 -38.5q21 -8 40 -27t52 -73l48 -77h-78l-35 63q-37 65 -58.5 85t-59.5 20h-38v-168h-64zM272 461v-119h78q96 0 96 61q0 20 -9 33t-27.5 18t-31 6t-33.5 1h-73zM370 691q152 0 260 -107.5
t108 -260.5t-107.5 -261t-260.5 -108t-261 108t-108 261t108.5 260.5t260.5 107.5zM370 630q-127 0 -217 -89.5t-90 -217.5t90 -218t217 -90t217 90.5t90 217.5q0 128 -90 217.5t-217 89.5z" />
    <glyph glyph-name="macron" unicode="&#xaf;" horiz-adv-x="333" 
d="M332 618v-73h-331v73h331z" />
    <glyph glyph-name="degree" unicode="&#xb0;" horiz-adv-x="396" 
d="M62 556q0 56 40 95.5t96 39.5t95.5 -39.5t39.5 -95.5q0 -57 -39.5 -96.5t-95.5 -39.5t-96 39.5t-40 96.5zM115 556q0 -34 24.5 -58.5t58.5 -24.5t58 24.5t24 58.5t-24 58t-58 24t-58.5 -24t-24.5 -58z" />
    <glyph glyph-name="plusminus" unicode="&#xb1;" horiz-adv-x="583" 
d="M528 -12h-473v82h473v-82zM251 116v195h-196v82h196v196h82v-196h195v-82h-195v-195h-82z" />
    <glyph glyph-name="two.superior" unicode="&#xb2;" horiz-adv-x="323" 
d="M295 327v-54h-267v7q68 68 124 139q44 55 44 96q0 33 -20.5 47t-43.5 14q-52 0 -95 -58v78q46 36 102 36q55 0 91 -31t36 -80q0 -24 -9 -48t-29.5 -51.5t-36 -45t-46.5 -49.5h150z" />
    <glyph glyph-name="three.superior" unicode="&#xb3;" horiz-adv-x="323" 
d="M46 290v63q48 -29 94 -29q6 0 13 1.5t18.5 5.5t19 15.5t7.5 28.5q0 18 -7 29.5t-22.5 16.5t-25.5 6.5t-29 2.5v52q16 0 26 1t25 5t22.5 15t7.5 29q0 19 -15.5 33.5t-47.5 14.5t-76 -20v55q34 17 82 17q51 0 88 -23.5t37 -73.5q0 -51 -47 -75q54 -20 54 -83
q0 -48 -38 -78.5t-92 -30.5q-44 0 -94 22z" />
    <glyph glyph-name="acute" unicode="&#xb4;" horiz-adv-x="333" 
d="M267 653l-110 -147h-55l66 147h99z" />
    <glyph glyph-name="mu" unicode="&#xb5;" horiz-adv-x="552" 
d="M371 449h89v-313l-1 -27q3 -29 26 -29q20 0 46 15v-70q-76 -34 -116 -34q-18 0 -28.5 9t-12.5 17.5t-3 21.5q-15 -15 -24 -23t-29 -17t-41 -9q-23 0 -42.5 9.5t-31 20t-34.5 34.5v-283h-88v678h88v-326q47 -59 102 -59q11 0 25 4t32.5 14.5t31 35t11.5 58.5v273z" />
    <glyph glyph-name="paragraph" unicode="&#xb6;" horiz-adv-x="542" 
d="M198 -232v510q-96 5 -146.5 61.5t-50.5 136.5q0 61 27.5 110.5t80.5 72.5q52 23 122 23h309v-84h-70v-830h-81v830h-109v-830h-82z" />
    <glyph glyph-name="periodcentered" unicode="&#xb7;" horiz-adv-x="260" 
d="M130 400q22 0 38 -16t16 -39t-16 -38.5t-38 -15.5t-38 15.5t-16 38.5t16 39t38 16z" />
    <glyph glyph-name="cedilla" unicode="&#xb8;" horiz-adv-x="333" 
d="M209 8l-7 -24q31 -7 43 -26.5t12 -39.5q0 -21 -12 -40.5t-27 -30.5q-27 -18 -85 -18q-21 0 -32 3v55q22 -2 31 -2q18 0 35.5 6t17.5 21t-14 21.5t-27 5.5t-17 -1l25 70h57z" />
    <glyph glyph-name="one.superior" unicode="&#xb9;" horiz-adv-x="323" 
d="M196 628v-355h-69v355h69z" />
    <glyph glyph-name="ordmasculine" unicode="&#xba;" horiz-adv-x="365" 
d="M342 550q0 -59 -44.5 -99.5t-115.5 -40.5q-70 0 -114.5 40.5t-44.5 99.5q0 60 44.5 100.5t114.5 40.5q71 0 115.5 -41t44.5 -100zM273 551q0 46 -28.5 66.5t-61.5 20.5q-34 0 -62 -20.5t-28 -66.5t28.5 -66t61.5 -20t61.5 20t28.5 66z" />
    <glyph glyph-name="guillemotright" unicode="&#xbb;" horiz-adv-x="490" 
d="M23 449h87l148 -225l-148 -224h-87l148 224zM226 449h87l148 -225l-148 -224h-87l148 224z" />
    <glyph glyph-name="onequarter" unicode="&#xbc;" horiz-adv-x="844" 
d="M775 360v-196h45v-49h-45v-115h-68v115h-170v25l205 220h33zM707 164v84l-78 -84h78zM195 687v-355h-69v355h69zM695 691l-455 -718h-67l454 718h68z" />
    <glyph glyph-name="onehalf" unicode="&#xbd;" horiz-adv-x="844" 
d="M195 687v-355h-69v355h69zM665 691l-455 -718h-67l455 718h67zM817 54v-54h-267v7q68 68 124 139q44 56 44 96q0 33 -20.5 47.5t-43.5 14.5q-21 0 -41 -10.5t-30 -20.5t-25 -28v79q53 36 103 36q55 0 91 -31.5t36 -79.5q0 -31 -19.5 -67t-40.5 -60.5t-63 -67.5h152z" />
    <glyph glyph-name="threequarters" unicode="&#xbe;" horiz-adv-x="844" 
d="M45 349v63q48 -29 94 -29q6 0 13 1.5t18.5 5.5t19 15.5t7.5 28.5q0 18 -7 29.5t-22.5 16.5t-25.5 6.5t-29 2.5v52q13 0 20 0.5t20.5 3t21 7.5t13.5 15t6 24q0 19 -15.5 33.5t-47.5 14.5q-34 0 -76 -20v55q34 17 82 17q51 0 88 -23.5t37 -73.5q0 -51 -47 -75
q54 -20 54 -83q0 -48 -38 -78.5t-92 -30.5q-44 0 -94 22zM683 691l-455 -718h-67l454 718h68zM775 360v-196h45v-49h-45v-115h-68v115h-170v25l205 220h33zM707 164v84l-78 -84h78z" />
    <glyph glyph-name="questiondown" unicode="&#xbf;" horiz-adv-x="333" 
d="M290 -85l-65 -106q-55 0 -90 21q-36 21 -53 55.5t-17 68.5q0 36 13 74.5t28.5 65t44.5 71.5q65 95 65 139q0 10 -3 22q17 -9 27 -15.5t22 -27.5t12 -51q0 -36 -14 -66t-53 -91q-41 -67 -41 -110q0 -26 13.5 -42t27 -20t27.5 -4q21 0 56 16zM140 450q0 25 18.5 42t42.5 17
t42 -16t18 -43t-18 -44t-42 -17q-23 0 -42 16t-19 45z" />
    <glyph glyph-name="Agrave" unicode="&#xc0;" horiz-adv-x="667" 
d="M362 686l305 -686h-100l-91 201h-290l-86 -201h-100l293 686h69zM224 289h212l-110 247zM336 879l73 -150h-52l-164 150h143z" />
    <glyph glyph-name="Aacute" unicode="&#xc1;" horiz-adv-x="667" 
d="M362 686l305 -686h-100l-91 201h-290l-86 -201h-100l293 686h69zM224 289h212l-110 247zM334 879h143l-164 -150h-52z" />
    <glyph glyph-name="Acircumflex" unicode="&#xc2;" horiz-adv-x="667" 
d="M362 686l305 -686h-100l-91 201h-290l-86 -201h-100l293 686h69zM224 289h212l-110 247zM500 729h-62l-104 95l-105 -95h-61l94 157h142z" />
    <glyph glyph-name="Atilde" unicode="&#xc3;" horiz-adv-x="667" 
d="M362 686l305 -686h-100l-91 201h-290l-86 -201h-100l293 686h69zM224 289h212l-110 247zM222 729h-52q7 57 34.5 89t66.5 32q29 0 92 -31q38 -18 50 -18q28 0 34 49h52q-4 -56 -31.5 -88.5t-65.5 -32.5q-18 0 -33 5t-66 28q-36 16 -47 16t-18 -8.5t-9.5 -16t-6.5 -24.5z
" />
    <glyph glyph-name="Adieresis" unicode="&#xc4;" horiz-adv-x="667" 
d="M362 686l305 -686h-100l-91 201h-290l-86 -201h-100l293 686h69zM224 289h212l-110 247zM437 860q22 0 37.5 -15.5t15.5 -37.5t-15.5 -37.5t-37.5 -15.5t-37.5 15.5t-15.5 37.5t15.5 37.5t37.5 15.5zM231 860q22 0 37.5 -15.5t15.5 -37.5t-15.5 -37.5t-37.5 -15.5
t-37.5 15.5t-15.5 37.5t15.5 37.5t37.5 15.5z" />
    <glyph glyph-name="Aring" unicode="&#xc5;" horiz-adv-x="667" 
d="M362 686l305 -686h-100l-91 201h-290l-86 -201h-100l293 686h69zM224 289h212l-110 247zM334 931q45 0 73 -31.5t28 -69.5q0 -41 -28 -71t-73 -30q-44 0 -72.5 30t-28.5 71q0 42 29.5 71.5t71.5 29.5zM334 775q22 0 38.5 16.5t16.5 38.5t-16.5 38.5t-38.5 16.5
t-38.5 -16.5t-16.5 -38.5t16.5 -38.5t38.5 -16.5z" />
    <glyph glyph-name="AE" unicode="&#xc6;" horiz-adv-x="912" 
d="M851 682v-87h-280v-206h271v-88h-271v-213h291v-88h-389v301h-186l-178 -301h-107l404 682h445zM473 389v227l-135 -227h135z" />
    <glyph glyph-name="Ccedilla" unicode="&#xc7;" horiz-adv-x="708" 
d="M663 157v-104q-101 -61 -226 -64q35 -5 55.5 -25t20.5 -52q0 -49 -51 -77t-113 -28q-27 0 -65 4v63q10 -2 51 -2q76 0 76 32q0 35 -80 30l25 66q-93 10 -164.5 62t-107.5 126t-36 154q0 140 103.5 244.5t267.5 104.5q105 0 237 -57v-105q-127 69 -231 69
q-120 0 -197.5 -74t-77.5 -185q0 -114 78.5 -186.5t188.5 -72.5q123 0 246 77z" />
    <glyph glyph-name="Egrave" unicode="&#xc8;" horiz-adv-x="521" 
d="M462 682v-87h-289v-208h279v-87h-279v-212h298v-88h-396v682h387zM268 879l73 -150h-52l-164 150h143z" />
    <glyph glyph-name="Eacute" unicode="&#xc9;" horiz-adv-x="521" 
d="M462 682v-87h-289v-208h279v-87h-279v-212h298v-88h-396v682h387zM291 879h143l-164 -150h-52z" />
    <glyph glyph-name="Ecircumflex" unicode="&#xca;" horiz-adv-x="521" 
d="M462 682v-87h-289v-208h279v-87h-279v-212h298v-88h-396v682h387zM432 729h-62l-104 95l-105 -95h-61l94 157h142z" />
    <glyph glyph-name="Edieresis" unicode="&#xcb;" horiz-adv-x="521" 
d="M462 682v-87h-289v-208h279v-87h-279v-212h298v-88h-396v682h387zM369 860q22 0 37.5 -15.5t15.5 -37.5t-15.5 -37.5t-37.5 -15.5t-37.5 15.5t-15.5 37.5t15.5 37.5t37.5 15.5zM163 860q22 0 37.5 -15.5t15.5 -37.5t-15.5 -37.5t-37.5 -15.5t-37.5 15.5t-15.5 37.5
t15.5 37.5t37.5 15.5z" />
    <glyph glyph-name="Igrave" unicode="&#xcc;" horiz-adv-x="250" 
d="M174 682v-682h-98v682h98zM128 879l73 -150h-52l-164 150h143z" />
    <glyph glyph-name="Iacute" unicode="&#xcd;" horiz-adv-x="250" 
d="M174 682v-682h-98v682h98zM126 879h143l-164 -150h-52z" />
    <glyph glyph-name="Icircumflex" unicode="&#xce;" horiz-adv-x="250" 
d="M174 682v-682h-98v682h98zM292 729h-62l-104 95l-105 -95h-61l94 157h142z" />
    <glyph glyph-name="Idieresis" unicode="&#xcf;" horiz-adv-x="250" 
d="M174 682v-682h-98v682h98zM229 860q22 0 37.5 -15.5t15.5 -37.5t-15.5 -37.5t-37.5 -15.5t-37.5 15.5t-15.5 37.5t15.5 37.5t37.5 15.5zM23 860q22 0 37.5 -15.5t15.5 -37.5t-15.5 -37.5t-37.5 -15.5t-37.5 15.5t-15.5 37.5t15.5 37.5t37.5 15.5z" />
    <glyph glyph-name="Eth" unicode="&#xd0;" horiz-adv-x="750" 
d="M76 309h-80v64h80v309h230q48 0 80 -2t88 -19t98 -49q60 -45 95.5 -115.5t35.5 -155.5q0 -60 -18.5 -113t-48.5 -88.5t-52.5 -55t-44.5 -33.5q-38 -24 -88 -36t-80 -13.5t-79 -1.5h-216v309zM367 309h-194v-221h126q124 0 189 39q52 33 83 91.5t31 127.5t-34.5 130.5
t-107.5 93.5q-26 12 -55.5 17.5t-49 6.5t-59.5 1h-123v-222h194v-64z" />
    <glyph glyph-name="Ntilde" unicode="&#xd1;" horiz-adv-x="781" 
d="M710 682v-682h-84l-456 525v-525h-92v682h79l460 -529v529h93zM279 729h-52q7 57 34.5 89t66.5 32q29 0 92 -31q38 -18 50 -18q28 0 34 49h52q-4 -56 -31.5 -88.5t-65.5 -32.5q-18 0 -33 5t-66 28q-36 16 -47 16t-18 -8.5t-9.5 -16t-6.5 -24.5z" />
    <glyph glyph-name="Ograve" unicode="&#xd2;" horiz-adv-x="823" 
d="M410 691q164 0 266 -103t102 -246q0 -149 -104 -250t-269 -101q-157 0 -258.5 101.5t-101.5 246.5q0 92 41.5 171t126.5 130t197 51zM414 599q-55 0 -101 -16t-76 -42.5t-51 -61t-30.5 -70t-9.5 -70.5q0 -113 77.5 -185t187.5 -72q56 0 110 21.5t89 59.5q31 34 49.5 84
t18.5 96q0 44 -16.5 88t-48 82t-83.5 62t-116 24zM424 879l73 -150h-52l-164 150h143z" />
    <glyph glyph-name="Oacute" unicode="&#xd3;" horiz-adv-x="823" 
d="M410 691q164 0 266 -103t102 -246q0 -149 -104 -250t-269 -101q-157 0 -258.5 101.5t-101.5 246.5q0 92 41.5 171t126.5 130t197 51zM414 599q-55 0 -101 -16t-76 -42.5t-51 -61t-30.5 -70t-9.5 -70.5q0 -113 77.5 -185t187.5 -72q56 0 110 21.5t89 59.5q31 34 49.5 84
t18.5 96q0 44 -16.5 88t-48 82t-83.5 62t-116 24zM412 879h143l-164 -150h-52z" />
    <glyph glyph-name="Ocircumflex" unicode="&#xd4;" horiz-adv-x="823" 
d="M410 691q164 0 266 -103t102 -246q0 -149 -104 -250t-269 -101q-157 0 -258.5 101.5t-101.5 246.5q0 92 41.5 171t126.5 130t197 51zM414 599q-55 0 -101 -16t-76 -42.5t-51 -61t-30.5 -70t-9.5 -70.5q0 -113 77.5 -185t187.5 -72q56 0 110 21.5t89 59.5q31 34 49.5 84
t18.5 96q0 44 -16.5 88t-48 82t-83.5 62t-116 24zM578 729h-62l-104 95l-105 -95h-61l94 157h142z" />
    <glyph glyph-name="Otilde" unicode="&#xd5;" horiz-adv-x="823" 
d="M410 691q164 0 266 -103t102 -246q0 -149 -104 -250t-269 -101q-157 0 -258.5 101.5t-101.5 246.5q0 92 41.5 171t126.5 130t197 51zM414 599q-55 0 -101 -16t-76 -42.5t-51 -61t-30.5 -70t-9.5 -70.5q0 -113 77.5 -185t187.5 -72q56 0 110 21.5t89 59.5q31 34 49.5 84
t18.5 96q0 44 -16.5 88t-48 82t-83.5 62t-116 24zM300 729h-52q7 57 34.5 89t66.5 32q29 0 92 -31q38 -18 50 -18q28 0 34 49h52q-4 -56 -31.5 -88.5t-65.5 -32.5q-18 0 -33 5t-66 28q-36 16 -47 16t-18 -8.5t-9.5 -16t-6.5 -24.5z" />
    <glyph glyph-name="Odieresis" unicode="&#xd6;" horiz-adv-x="823" 
d="M410 691q164 0 266 -103t102 -246q0 -149 -104 -250t-269 -101q-157 0 -258.5 101.5t-101.5 246.5q0 92 41.5 171t126.5 130t197 51zM414 599q-55 0 -101 -16t-76 -42.5t-51 -61t-30.5 -70t-9.5 -70.5q0 -113 77.5 -185t187.5 -72q56 0 110 21.5t89 59.5q31 34 49.5 84
t18.5 96q0 44 -16.5 88t-48 82t-83.5 62t-116 24zM515 860q22 0 37.5 -15.5t15.5 -37.5t-15.5 -37.5t-37.5 -15.5t-37.5 15.5t-15.5 37.5t15.5 37.5t37.5 15.5zM309 860q22 0 37.5 -15.5t15.5 -37.5t-15.5 -37.5t-37.5 -15.5t-37.5 15.5t-15.5 37.5t15.5 37.5t37.5 15.5z
" />
    <glyph glyph-name="multiply" unicode="&#xd7;" horiz-adv-x="583" 
d="M79 188l154 153l-154 153l59 60l154 -153l153 153l59 -60l-153 -153l153 -153l-59 -60l-153 154l-154 -154z" />
    <glyph glyph-name="Oslash" unicode="&#xd8;" horiz-adv-x="823" 
d="M717 653l-46 -56q45 -41 76 -106.5t31 -147.5q0 -149 -103.5 -250.5t-262.5 -101.5q-126 0 -212 58l-49 -53l-47 33l47 58q-47 43 -76.5 108.5t-29.5 142.5q0 146 101 249.5t266 103.5q110 0 211 -57l48 59zM605 523l-342 -400q70 -40 148 -40q119 0 192.5 75.5
t73.5 185.5q0 107 -72 179zM216 160l343 401q-67 39 -146 39q-64 0 -116 -22.5t-84 -60t-49.5 -82.5t-17.5 -93q0 -69 31 -128q14 -26 39 -54z" />
    <glyph glyph-name="Ugrave" unicode="&#xd9;" horiz-adv-x="708" 
d="M647 682v-387q0 -35 -1.5 -56t-8 -56t-23.5 -64.5t-44 -53.5q-84 -74 -215 -74q-79 0 -148.5 29t-107.5 90q-38 60 -38 185v387h98v-387q0 -69 8.5 -101.5t34.5 -58.5q55 -57 153 -57q127 0 176 90q19 35 19 127v387h97zM357 879l73 -150h-52l-164 150h143z" />
    <glyph glyph-name="Uacute" unicode="&#xda;" horiz-adv-x="708" 
d="M647 682v-387q0 -35 -1.5 -56t-8 -56t-23.5 -64.5t-44 -53.5q-84 -74 -215 -74q-79 0 -148.5 29t-107.5 90q-38 60 -38 185v387h98v-387q0 -69 8.5 -101.5t34.5 -58.5q55 -57 153 -57q127 0 176 90q19 35 19 127v387h97zM355 879h143l-164 -150h-52z" />
    <glyph glyph-name="Ucircumflex" unicode="&#xdb;" horiz-adv-x="708" 
d="M647 682v-387q0 -35 -1.5 -56t-8 -56t-23.5 -64.5t-44 -53.5q-84 -74 -215 -74q-79 0 -148.5 29t-107.5 90q-38 60 -38 185v387h98v-387q0 -69 8.5 -101.5t34.5 -58.5q55 -57 153 -57q127 0 176 90q19 35 19 127v387h97zM521 729h-62l-104 95l-105 -95h-61l94 157h142z
" />
    <glyph glyph-name="Udieresis" unicode="&#xdc;" horiz-adv-x="708" 
d="M647 682v-387q0 -35 -1.5 -56t-8 -56t-23.5 -64.5t-44 -53.5q-84 -74 -215 -74q-79 0 -148.5 29t-107.5 90q-38 60 -38 185v387h98v-387q0 -69 8.5 -101.5t34.5 -58.5q55 -57 153 -57q127 0 176 90q19 35 19 127v387h97zM458 860q22 0 37.5 -15.5t15.5 -37.5t-15.5 -37.5
t-37.5 -15.5t-37.5 15.5t-15.5 37.5t15.5 37.5t37.5 15.5zM252 860q22 0 37.5 -15.5t15.5 -37.5t-15.5 -37.5t-37.5 -15.5t-37.5 15.5t-15.5 37.5t15.5 37.5t37.5 15.5z" />
    <glyph glyph-name="Yacute" unicode="&#xdd;" horiz-adv-x="604" 
d="M604 682l-252 -321v-361h-100v361l-252 321h118l183 -235l185 235h118zM333 879h143l-164 -150h-52z" />
    <glyph glyph-name="Thorn" unicode="&#xde;" horiz-adv-x="510" 
d="M70 682h98v-148h78q52 0 78 -2t61 -15.5t62 -40.5q53 -55 53 -136q0 -82 -57 -137q-32 -31 -77.5 -43t-125.5 -12h-72v-148h-98v682zM242 448h-74v-213h78q79 0 108 18q45 27 45 90q0 47 -30 76q-21 20 -44.5 24.5t-82.5 4.5z" />
    <glyph glyph-name="germandbls" unicode="&#xdf;" 
d="M59 0v449v34t2 35t5 37t9.5 34t16 33t24 27.5t32.5 22.5t43.5 13.5t56.5 5.5q55 0 95 -16.5t59.5 -43t27.5 -52t8 -51.5q0 -15 -3 -31.5t-11.5 -40.5t-30 -45.5t-53.5 -34.5q66 -17 96.5 -67t30.5 -113q0 -81 -45 -143t-129 -62q-36 0 -70 9v87q24 -11 49 -11q55 0 80 39
t25 87q0 36 -12.5 62.5t-27 38.5t-39.5 19.5t-36.5 8.5t-30.5 1v81q28 0 40 2q33 5 52 27.5t23 40t4 34.5q0 47 -29.5 76t-73.5 29q-25 0 -50.5 -12t-38.5 -41q-10 -25 -10 -120v-449h-89z" />
    <glyph glyph-name="agrave" unicode="&#xe0;" horiz-adv-x="427" 
d="M415 80v-54q-53 -35 -86 -35q-57 0 -68 46q-58 -46 -121 -46q-48 0 -79 32.5t-31 77.5q0 26 10 47t21.5 33.5t37.5 26t39.5 19t44.5 16.5l79 28v24q0 79 -81 79q-80 0 -142 -74v97q52 61 149 61q72 0 117.5 -37.5t45.5 -110.5v-231q0 -23 17 -23q15 0 47 24zM262 91v131
q-71 -24 -106.5 -46.5t-35.5 -58.5q0 -28 18 -45.5t46 -17.5q39 0 78 37zM191 653l67 -147h-55l-112 147h100z" />
    <glyph glyph-name="aacute" unicode="&#xe1;" horiz-adv-x="427" 
d="M415 80v-54q-53 -35 -86 -35q-57 0 -68 46q-58 -46 -121 -46q-48 0 -79 32.5t-31 77.5q0 26 10 47t21.5 33.5t37.5 26t39.5 19t44.5 16.5l79 28v24q0 79 -81 79q-80 0 -142 -74v97q52 61 149 61q72 0 117.5 -37.5t45.5 -110.5v-231q0 -23 17 -23q15 0 47 24zM262 91v131
q-71 -24 -106.5 -46.5t-35.5 -58.5q0 -28 18 -45.5t46 -17.5q39 0 78 37zM298 653l-110 -147h-55l66 147h99z" />
    <glyph glyph-name="acircumflex" unicode="&#xe2;" horiz-adv-x="427" 
d="M415 80v-54q-53 -35 -86 -35q-57 0 -68 46q-58 -46 -121 -46q-48 0 -79 32.5t-31 77.5q0 26 10 47t21.5 33.5t37.5 26t39.5 19t44.5 16.5l79 28v24q0 79 -81 79q-80 0 -142 -74v97q52 61 149 61q72 0 117.5 -37.5t45.5 -110.5v-231q0 -23 17 -23q15 0 47 24zM262 91v131
q-71 -24 -106.5 -46.5t-35.5 -58.5q0 -28 18 -45.5t46 -17.5q39 0 78 37zM243 657l94 -151h-55l-87 86l-83 -86h-53l91 151h93z" />
    <glyph glyph-name="atilde" unicode="&#xe3;" horiz-adv-x="427" 
d="M415 80v-54q-53 -35 -86 -35q-57 0 -68 46q-58 -46 -121 -46q-48 0 -79 32.5t-31 77.5q0 26 10 47t21.5 33.5t37.5 26t39.5 19t44.5 16.5l79 28v24q0 79 -81 79q-80 0 -142 -74v97q52 61 149 61q72 0 117.5 -37.5t45.5 -110.5v-231q0 -23 17 -23q15 0 47 24zM262 91v131
q-71 -24 -106.5 -46.5t-35.5 -58.5q0 -28 18 -45.5t46 -17.5q39 0 78 37zM92 524h-41q1 64 25.5 89.5t54.5 25.5q26 0 71 -17q58 -22 68 -22q30 0 36 39h38q-1 -61 -25 -88t-53 -27t-88 26q-30 13 -53 13q-29 0 -33 -39z" />
    <glyph glyph-name="adieresis" unicode="&#xe4;" horiz-adv-x="427" 
d="M415 80v-54q-53 -35 -86 -35q-57 0 -68 46q-58 -46 -121 -46q-48 0 -79 32.5t-31 77.5q0 26 10 47t21.5 33.5t37.5 26t39.5 19t44.5 16.5l79 28v24q0 79 -81 79q-80 0 -142 -74v97q52 61 149 61q72 0 117.5 -37.5t45.5 -110.5v-231q0 -23 17 -23q15 0 47 24zM262 91v131
q-71 -24 -106.5 -46.5t-35.5 -58.5q0 -28 18 -45.5t46 -17.5q39 0 78 37zM104 628q19 0 32.5 -13.5t13.5 -32.5t-13.5 -32.5t-32.5 -13.5t-32.5 13.5t-13.5 32.5t13.5 32.5t32.5 13.5zM292 628q19 0 32.5 -13.5t13.5 -32.5t-13.5 -32.5t-32.5 -13.5t-32.5 13.5t-13.5 32.5
t13.5 32.5t32.5 13.5z" />
    <glyph glyph-name="aring" unicode="&#xe5;" horiz-adv-x="427" 
d="M415 80v-54q-53 -35 -86 -35q-57 0 -68 46q-58 -46 -121 -46q-48 0 -79 32.5t-31 77.5q0 26 10 47t21.5 33.5t37.5 26t39.5 19t44.5 16.5l79 28v24q0 79 -81 79q-80 0 -142 -74v97q52 61 149 61q72 0 117.5 -37.5t45.5 -110.5v-231q0 -23 17 -23q15 0 47 24zM262 91v131
q-71 -24 -106.5 -46.5t-35.5 -58.5q0 -28 18 -45.5t46 -17.5q39 0 78 37zM199 691q35 0 63 -26t28 -66q0 -39 -27 -66t-66 -27q-38 0 -65 26.5t-27 65.5q0 40 28.5 66.5t65.5 26.5zM196 651q-25 0 -40 -14.5t-15 -38.5t16.5 -40.5t40.5 -16.5q23 0 39.5 16.5t16.5 39.5
q0 24 -17.5 39t-40.5 15z" />
    <glyph glyph-name="ae" unicode="&#xe6;" horiz-adv-x="656" 
d="M623 126v-87q-22 -15 -38 -23.5t-47 -16.5t-68 -8q-54 0 -94.5 23t-56.5 47q-88 -70 -168 -70q-59 0 -90 34t-31 81q0 62 63 102q41 25 102 42l62 19v14q0 18 -1.5 29t-7.5 28t-23 26t-43 9q-76 0 -142 -74v107q69 50 144 50q89 0 135 -58q20 17 33 26.5t41.5 20.5
t58.5 11q81 0 126 -56.5t45 -143.5v-14h-277q3 -86 43 -132q36 -40 98 -40q64 0 136 54zM357 301h177q-4 28 -16 46t-28.5 24.5t-24.5 8t-16 1.5q-67 0 -92 -80zM257 79v145l-48 -19q-51 -20 -71 -39t-20 -43q0 -26 17.5 -48.5t46.5 -22.5q26 0 75 27z" />
    <glyph glyph-name="ccedilla" unicode="&#xe7;" horiz-adv-x="437" 
d="M391 426v-94q-69 43 -125 43q-48 0 -81 -26.5t-45 -59t-12 -66.5q0 -63 40.5 -106t112.5 -43q60 0 120 30v-88q-60 -22 -116 -24l-10 -21q28 -5 45 -18q27 -22 27 -56q0 -50 -46 -74q-30 -15 -107 -15q-17 0 -37 2v58q4 0 29 0.5t29 1.5q42 6 42 28q0 30 -76 30l29 64
q-56 14 -85 37q-87 69 -87 192q0 94 57.5 165.5t165.5 71.5q62 0 130 -32z" />
    <glyph glyph-name="egrave" unicode="&#xe8;" horiz-adv-x="479" 
d="M438 131v-87q-82 -53 -176 -53t-155 63q-67 69 -67 173t59 167.5t151 63.5q77 0 128 -49t63 -125q5 -30 5 -67h-316q3 -57 40 -99t105 -42q88 0 163 55zM132 270h226q-1 13 -4 26t-12.5 35t-33.5 36t-59 14q-52 0 -86 -38q-24 -26 -31 -73zM248 653l67 -147h-55l-112 147
h100z" />
    <glyph glyph-name="eacute" unicode="&#xe9;" horiz-adv-x="479" 
d="M438 131v-87q-82 -53 -176 -53t-155 63q-67 69 -67 173t59 167.5t151 63.5q77 0 128 -49t63 -125q5 -30 5 -67h-316q3 -57 40 -99t105 -42q88 0 163 55zM132 270h226q-1 13 -4 26t-12.5 35t-33.5 36t-59 14q-52 0 -86 -38q-24 -26 -31 -73zM355 653l-110 -147h-55l66 147
h99z" />
    <glyph glyph-name="ecircumflex" unicode="&#xea;" horiz-adv-x="479" 
d="M438 131v-87q-82 -53 -176 -53t-155 63q-67 69 -67 173t59 167.5t151 63.5q77 0 128 -49t63 -125q5 -30 5 -67h-316q3 -57 40 -99t105 -42q88 0 163 55zM132 270h226q-1 13 -4 26t-12.5 35t-33.5 36t-59 14q-52 0 -86 -38q-24 -26 -31 -73zM295 657l94 -151h-55l-87 86
l-83 -86h-53l91 151h93z" />
    <glyph glyph-name="edieresis" unicode="&#xeb;" horiz-adv-x="479" 
d="M438 131v-87q-82 -53 -176 -53t-155 63q-67 69 -67 173t59 167.5t151 63.5q77 0 128 -49t63 -125q5 -30 5 -67h-316q3 -57 40 -99t105 -42q88 0 163 55zM132 270h226q-1 13 -4 26t-12.5 35t-33.5 36t-59 14q-52 0 -86 -38q-24 -26 -31 -73zM156 628q19 0 32.5 -13.5
t13.5 -32.5t-13.5 -32.5t-32.5 -13.5t-32.5 13.5t-13.5 32.5t13.5 32.5t32.5 13.5zM344 628q19 0 32.5 -13.5t13.5 -32.5t-13.5 -32.5t-32.5 -13.5t-32.5 13.5t-13.5 32.5t13.5 32.5t32.5 13.5z" />
    <glyph glyph-name="igrave" unicode="&#xec;" horiz-adv-x="219" 
d="M154 449v-449h-90v449h90zM103 653l67 -147h-55l-112 147h100z" />
    <glyph glyph-name="iacute" unicode="&#xed;" horiz-adv-x="219" 
d="M154 449v-449h-90v449h90zM210 653l-110 -147h-55l66 147h99z" />
    <glyph glyph-name="icircumflex" unicode="&#xee;" horiz-adv-x="219" 
d="M154 449v-449h-90v449h90zM155 657l94 -151h-55l-87 86l-83 -86h-53l91 151h93z" />
    <glyph glyph-name="idieresis" unicode="&#xef;" horiz-adv-x="219" 
d="M154 449v-449h-90v449h90zM16 628q19 0 32.5 -13.5t13.5 -32.5t-13.5 -32.5t-32.5 -13.5t-32.5 13.5t-13.5 32.5t13.5 32.5t32.5 13.5zM204 628q19 0 32.5 -13.5t13.5 -32.5t-13.5 -32.5t-32.5 -13.5t-32.5 13.5t-13.5 32.5t13.5 32.5t32.5 13.5z" />
    <glyph glyph-name="eth" unicode="&#xf0;" horiz-adv-x="563" 
d="M302 639l109 51l24 -54l-75 -37q68 -61 104 -120q62 -104 62 -224q0 -61 -16.5 -108.5t-42 -76t-59.5 -47t-65.5 -25.5t-64.5 -7q-108 0 -173 70t-65 160q0 56 25 108.5t83 90.5t137 38q50 0 104 -23q-22 41 -44.5 67.5t-66.5 58.5l-145 -67l-22 55l105 50q-35 18 -83 29
l46 62q63 -18 123 -51zM438 226q0 75 -47 113.5t-108 38.5q-68 0 -112.5 -46.5t-44.5 -110.5t44.5 -106.5t113.5 -42.5q68 0 111 41t43 113z" />
    <glyph glyph-name="ntilde" unicode="&#xf1;" 
d="M61 449h91v-57q59 66 135 66q31 0 67 -15.5t60 -56.5q25 -39 25 -130v-256h-90v256q0 42 -4 61.5t-20 38.5q-25 28 -67 28q-62 0 -106 -63v-321h-91v449zM145 524h-41q1 64 25.5 89.5t54.5 25.5q26 0 71 -17q58 -22 68 -22q30 0 36 39h38q-1 -61 -25 -88t-53 -27t-88 26
q-30 13 -53 13q-29 0 -33 -39z" />
    <glyph glyph-name="ograve" unicode="&#xf2;" horiz-adv-x="552" 
d="M278 458q102 0 170 -65t68 -170q0 -111 -73.5 -171.5t-167.5 -60.5q-106 0 -172.5 68t-66.5 166t66.5 165.5t175.5 67.5zM273 378q-63 0 -104.5 -41t-41.5 -113q0 -77 46 -115t104 -38q66 0 107 43t41 111q0 77 -47 115t-105 38zM280 653l67 -147h-55l-112 147h100z" />
    <glyph glyph-name="oacute" unicode="&#xf3;" horiz-adv-x="552" 
d="M278 458q102 0 170 -65t68 -170q0 -111 -73.5 -171.5t-167.5 -60.5q-106 0 -172.5 68t-66.5 166t66.5 165.5t175.5 67.5zM273 378q-63 0 -104.5 -41t-41.5 -113q0 -77 46 -115t104 -38q66 0 107 43t41 111q0 77 -47 115t-105 38zM377 653l-110 -147h-55l66 147h99z" />
    <glyph glyph-name="ocircumflex" unicode="&#xf4;" horiz-adv-x="552" 
d="M278 458q102 0 170 -65t68 -170q0 -111 -73.5 -171.5t-167.5 -60.5q-106 0 -172.5 68t-66.5 166t66.5 165.5t175.5 67.5zM273 378q-63 0 -104.5 -41t-41.5 -113q0 -77 46 -115t104 -38q66 0 107 43t41 111q0 77 -47 115t-105 38zM332 657l94 -151h-55l-87 86l-83 -86h-53
l91 151h93z" />
    <glyph glyph-name="otilde" unicode="&#xf5;" horiz-adv-x="552" 
d="M278 458q102 0 170 -65t68 -170q0 -111 -73.5 -171.5t-167.5 -60.5q-106 0 -172.5 68t-66.5 166t66.5 165.5t175.5 67.5zM273 378q-63 0 -104.5 -41t-41.5 -113q0 -77 46 -115t104 -38q66 0 107 43t41 111q0 77 -47 115t-105 38zM181 524h-41q1 64 25.5 89.5t54.5 25.5
q26 0 71 -17q58 -22 68 -22q30 0 36 39h38q-1 -61 -25 -88t-53 -27t-88 26q-30 13 -53 13q-29 0 -33 -39z" />
    <glyph glyph-name="odieresis" unicode="&#xf6;" horiz-adv-x="552" 
d="M278 458q102 0 170 -65t68 -170q0 -111 -73.5 -171.5t-167.5 -60.5q-106 0 -172.5 68t-66.5 166t66.5 165.5t175.5 67.5zM273 378q-63 0 -104.5 -41t-41.5 -113q0 -77 46 -115t104 -38q66 0 107 43t41 111q0 77 -47 115t-105 38zM193 628q19 0 32.5 -13.5t13.5 -32.5
t-13.5 -32.5t-32.5 -13.5t-32.5 13.5t-13.5 32.5t13.5 32.5t32.5 13.5zM381 628q19 0 32.5 -13.5t13.5 -32.5t-13.5 -32.5t-32.5 -13.5t-32.5 13.5t-13.5 32.5t13.5 32.5t32.5 13.5z" />
    <glyph glyph-name="divide" unicode="&#xf7;" horiz-adv-x="583" 
d="M528 300h-473v82h473v-82zM292 540q22 0 37.5 -15.5t15.5 -37.5t-15.5 -37.5t-37.5 -15.5t-37.5 15.5t-15.5 37.5t15.5 37.5t37.5 15.5zM292 248q22 0 37.5 -15.5t15.5 -37.5t-15.5 -37.5t-37.5 -15.5t-37.5 15.5t-15.5 37.5t15.5 37.5t37.5 15.5z" />
    <glyph glyph-name="oslash" unicode="&#xf8;" horiz-adv-x="552" 
d="M460 473l33 -30l-44 -52q68 -79 68 -169q0 -100 -69.5 -165.5t-177.5 -65.5q-73 0 -132 37l-56 -65l-33 30l54 63q-68 70 -68 168q0 95 65.5 164.5t174.5 69.5q79 0 139 -40zM393 327l-200 -234q35 -25 82 -25q61 0 108.5 42.5t47.5 112.5q0 56 -38 104zM159 121l199 233
q-38 23 -82 23q-69 0 -112 -46t-43 -110q0 -58 38 -100z" />
    <glyph glyph-name="ugrave" unicode="&#xf9;" 
d="M438 0h-90v57q-60 -66 -136 -66q-31 0 -67 15.5t-60 56.5q-25 39 -25 130v256h90v-256q0 -21 0.5 -33.5t5.5 -33t13.5 -32t27 -20.5t44.5 -9q62 0 107 63v321h90v-449zM244 653l67 -147h-55l-112 147h100z" />
    <glyph glyph-name="uacute" unicode="&#xfa;" 
d="M438 0h-90v57q-60 -66 -136 -66q-31 0 -67 15.5t-60 56.5q-25 39 -25 130v256h90v-256q0 -21 0.5 -33.5t5.5 -33t13.5 -32t27 -20.5t44.5 -9q62 0 107 63v321h90v-449zM351 653l-110 -147h-55l66 147h99z" />
    <glyph glyph-name="ucircumflex" unicode="&#xfb;" 
d="M438 0h-90v57q-60 -66 -136 -66q-31 0 -67 15.5t-60 56.5q-25 39 -25 130v256h90v-256q0 -21 0.5 -33.5t5.5 -33t13.5 -32t27 -20.5t44.5 -9q62 0 107 63v321h90v-449zM296 657l94 -151h-55l-87 86l-83 -86h-53l91 151h93z" />
    <glyph glyph-name="udieresis" unicode="&#xfc;" 
d="M438 0h-90v57q-60 -66 -136 -66q-31 0 -67 15.5t-60 56.5q-25 39 -25 130v256h90v-256q0 -21 0.5 -33.5t5.5 -33t13.5 -32t27 -20.5t44.5 -9q62 0 107 63v321h90v-449zM157 628q19 0 32.5 -13.5t13.5 -32.5t-13.5 -32.5t-32.5 -13.5t-32.5 13.5t-13.5 32.5t13.5 32.5
t32.5 13.5zM345 628q19 0 32.5 -13.5t13.5 -32.5t-13.5 -32.5t-32.5 -13.5t-32.5 13.5t-13.5 32.5t13.5 32.5t32.5 13.5z" />
    <glyph glyph-name="yacute" unicode="&#xfd;" horiz-adv-x="437" 
d="M438 449l-318 -679h-99l153 326l-174 353h101l121 -253l116 253h100zM319 653l-110 -147h-55l66 147h99z" />
    <glyph glyph-name="thorn" unicode="&#xfe;" 
d="M57 682h91v-233h65q99 0 160 -38q53 -34 73 -87t20 -100q0 -100 -62 -166.5t-161 -66.5q-43 0 -95 20v-241h-91v912zM211 366h-63v-276q41 -21 86 -21q61 0 101 42.5t40 112.5q0 40 -13.5 69t-30.5 42.5t-44 21t-41 8.5t-35 1z" />
    <glyph glyph-name="ydieresis" unicode="&#xff;" horiz-adv-x="437" 
d="M438 449l-318 -679h-99l153 326l-174 353h101l121 -253l116 253h100zM135 628q19 0 32.5 -13.5t13.5 -32.5t-13.5 -32.5t-32.5 -13.5t-32.5 13.5t-13.5 32.5t13.5 32.5t32.5 13.5zM323 628q19 0 32.5 -13.5t13.5 -32.5t-13.5 -32.5t-32.5 -13.5t-32.5 13.5t-13.5 32.5
t13.5 32.5t32.5 13.5z" />
    <glyph glyph-name="Amacron" unicode="&#x100;" horiz-adv-x="667" 
d="M362 686l305 -686h-100l-91 201h-290l-86 -201h-100l293 686h69zM224 289h212l-110 247zM498 829v-79h-330v79h330z" />
    <glyph glyph-name="amacron" unicode="&#x101;" horiz-adv-x="427" 
d="M415 80v-54q-53 -35 -86 -35q-57 0 -68 46q-58 -46 -121 -46q-48 0 -79 32.5t-31 77.5q0 26 10 47t21.5 33.5t37.5 26t39.5 19t44.5 16.5l79 28v24q0 79 -81 79q-80 0 -142 -74v97q52 61 149 61q72 0 117.5 -37.5t45.5 -110.5v-231q0 -23 17 -23q15 0 47 24zM262 91v131
q-71 -24 -106.5 -46.5t-35.5 -58.5q0 -28 18 -45.5t46 -17.5q39 0 78 37zM363 618v-73h-331v73h331z" />
    <glyph glyph-name="Abreve" unicode="&#x102;" horiz-adv-x="667" 
d="M362 686l305 -686h-100l-91 201h-290l-86 -201h-100l293 686h69zM224 289h212l-110 247zM167 871h78q20 -62 92 -62q40 0 58 17t27 45h78q-13 -76 -61 -109t-105 -33q-53 0 -104.5 36t-62.5 106z" />
    <glyph glyph-name="abreve" unicode="&#x103;" horiz-adv-x="427" 
d="M415 80v-54q-53 -35 -86 -35q-57 0 -68 46q-58 -46 -121 -46q-48 0 -79 32.5t-31 77.5q0 26 10 47t21.5 33.5t37.5 26t39.5 19t44.5 16.5l79 28v24q0 79 -81 79q-80 0 -142 -74v97q52 61 149 61q72 0 117.5 -37.5t45.5 -110.5v-231q0 -23 17 -23q15 0 47 24zM262 91v131
q-71 -24 -106.5 -46.5t-35.5 -58.5q0 -28 18 -45.5t46 -17.5q39 0 78 37zM56 635h67q16 -62 76 -62q30 0 46 13.5t26 48.5h68q-7 -58 -46.5 -93.5t-95.5 -35.5t-93 34t-48 95z" />
    <glyph glyph-name="Aogonek" unicode="&#x104;" horiz-adv-x="667" 
d="M567 0l-91 201h-290l-86 -201h-100l293 686h69l305 -686h-25q-31 -43 -31 -68q0 -21 17.5 -35.5t36.5 -14.5q16 0 55 12v-74q-36 -17 -75 -17q-49 0 -83.5 26.5t-34.5 76.5q0 51 40 94zM436 289l-110 247l-102 -247h212z" />
    <glyph glyph-name="aogonek" unicode="&#x105;" horiz-adv-x="428" 
d="M183 243l78 27v24q0 80 -80 80q-76 0 -143 -74v97q51 61 148 61q41 0 81 -15.5t59 -47.5q15 -26 18.5 -51.5t3.5 -73.5v-191q0 -23 16 -23t50 24v-54q-37 -25 -60 -32q-24 -27 -24 -56q0 -17 13 -31t33 -14q17 0 52 11v-67q-35 -15 -68 -15q-46 0 -76 25.5t-30 67.5
q0 43 34 84q-19 10 -27 38q-59 -46 -123 -46q-50 0 -79 34.5t-29 75.5q0 32 13.5 56t40.5 41t46.5 25.5t52.5 19.5zM261 89v133l-60 -23q-44 -18 -63.5 -36t-19.5 -47q0 -28 18.5 -45t44.5 -17q43 0 80 35z" />
    <glyph glyph-name="Cacute" unicode="&#x106;" horiz-adv-x="708" 
d="M656 635v-105q-119 68 -236 68q-120 0 -195 -76t-75 -183q0 -104 71.5 -180.5t199.5 -76.5q126 0 242 76v-107q-110 -60 -248 -60q-91 0 -163.5 32t-115.5 83.5t-65.5 111.5t-22.5 122q0 144 105 247.5t264 103.5q109 0 239 -56zM395 879h143l-164 -150h-52z" />
    <glyph glyph-name="cacute" unicode="&#x107;" horiz-adv-x="437" 
d="M390 427v-95q-67 43 -125 43q-65 0 -101 -45.5t-36 -104.5q0 -63 38.5 -106.5t115.5 -43.5q52 0 118 30v-88q-74 -26 -131 -26q-111 0 -171 66.5t-60 164.5q0 43 12.5 83t38 75.5t70 56.5t101.5 21q58 0 130 -31zM349 653l-110 -147h-55l66 147h99z" />
    <glyph glyph-name="Ccircumflex" unicode="&#x108;" horiz-adv-x="708" 
d="M656 635v-105q-119 68 -236 68q-120 0 -195 -76t-75 -183q0 -104 71.5 -180.5t199.5 -76.5q126 0 242 76v-107q-110 -60 -248 -60q-91 0 -163.5 32t-115.5 83.5t-65.5 111.5t-22.5 122q0 144 105 247.5t264 103.5q109 0 239 -56zM551 729h-62l-104 95l-105 -95h-61
l94 157h142z" />
    <glyph glyph-name="ccircumflex" unicode="&#x109;" horiz-adv-x="437" 
d="M390 427v-95q-67 43 -125 43q-65 0 -101 -45.5t-36 -104.5q0 -63 38.5 -106.5t115.5 -43.5q52 0 118 30v-88q-74 -26 -131 -26q-111 0 -171 66.5t-60 164.5q0 43 12.5 83t38 75.5t70 56.5t101.5 21q58 0 130 -31zM279 657l94 -151h-55l-87 86l-83 -86h-53l91 151h93z" />
    <glyph glyph-name="Cdotaccent" unicode="&#x10a;" horiz-adv-x="708" 
d="M656 635v-105q-119 68 -236 68q-120 0 -195 -76t-75 -183q0 -104 71.5 -180.5t199.5 -76.5q126 0 242 76v-107q-110 -60 -248 -60q-91 0 -163.5 32t-115.5 83.5t-65.5 111.5t-22.5 122q0 144 105 247.5t264 103.5q109 0 239 -56zM385 860q22 0 37.5 -15.5t15.5 -37.5
t-15.5 -37.5t-37.5 -15.5t-37.5 15.5t-15.5 37.5t15.5 37.5t37.5 15.5z" />
    <glyph glyph-name="cdotaccent" unicode="&#x10b;" horiz-adv-x="437" 
d="M390 427v-95q-67 43 -125 43q-65 0 -101 -45.5t-36 -104.5q0 -63 38.5 -106.5t115.5 -43.5q52 0 118 30v-88q-74 -26 -131 -26q-111 0 -171 66.5t-60 164.5q0 43 12.5 83t38 75.5t70 56.5t101.5 21q58 0 130 -31zM234 628q19 0 32.5 -13.5t13.5 -32.5t-13.5 -32.5
t-32.5 -13.5t-32.5 13.5t-13.5 32.5t13.5 32.5t32.5 13.5z" />
    <glyph glyph-name="Ccaron" unicode="&#x10c;" horiz-adv-x="708" 
d="M656 635v-105q-119 68 -236 68q-120 0 -195 -76t-75 -183q0 -104 71.5 -180.5t199.5 -76.5q126 0 242 76v-107q-110 -60 -248 -60q-91 0 -163.5 32t-115.5 83.5t-65.5 111.5t-22.5 122q0 144 105 247.5t264 103.5q109 0 239 -56zM223 886h62l104 -95l105 95h61l-94 -157
h-142z" />
    <glyph glyph-name="ccaron" unicode="&#x10d;" horiz-adv-x="437" 
d="M390 427v-95q-67 43 -125 43q-65 0 -101 -45.5t-36 -104.5q0 -63 38.5 -106.5t115.5 -43.5q52 0 118 30v-88q-74 -26 -131 -26q-111 0 -171 66.5t-60 164.5q0 43 12.5 83t38 75.5t70 56.5t101.5 21q58 0 130 -31zM401 657l-111 -151h-92l-109 151h55l101 -85l100 85h56z
" />
    <glyph glyph-name="Dcaron" unicode="&#x10e;" horiz-adv-x="750" 
d="M76 682h230q48 0 80 -2t88 -19t98 -49q60 -45 95.5 -115.5t35.5 -155.5q0 -60 -18.5 -113t-48.5 -88.5t-52.5 -55t-44.5 -33.5q-38 -24 -88 -36t-80 -13.5t-79 -1.5h-216v682zM296 595h-123v-507h126q124 0 189 39q52 33 83 91.5t31 127.5t-34.5 130.5t-107.5 93.5
q-26 12 -55.5 17.5t-49 6.5t-59.5 1zM179 886h62l104 -95l105 95h61l-94 -157h-142z" />
    <glyph glyph-name="dcaron" unicode="&#x10f;" horiz-adv-x="594" 
d="M452 682v-682h-190q-62 0 -107.5 23.5t-68 61t-32.5 74t-10 73.5q0 104 65.5 165t155.5 61q51 0 97 -18v242h90zM362 75v286q-40 21 -83 21q-61 0 -103 -40.5t-42 -120.5q0 -98 66 -132q28 -14 95 -14h67zM512 444v18q23 23 31.5 45.5t9.5 54.5q-52 16 -52 64
q0 26 18 45.5t43 19.5q31 0 49 -27.5t18 -66.5q0 -8 -0.5 -17t-7 -30.5t-17.5 -39.5t-35 -37t-57 -29z" />
    <glyph glyph-name="Dcroat" unicode="&#x110;" horiz-adv-x="750" 
d="M76 309h-80v64h80v309h230q48 0 80 -2t88 -19t98 -49q60 -45 95.5 -115.5t35.5 -155.5q0 -60 -18.5 -113t-48.5 -88.5t-52.5 -55t-44.5 -33.5q-38 -24 -88 -36t-80 -13.5t-79 -1.5h-216v309zM367 309h-194v-221h126q124 0 189 39q52 33 83 91.5t31 127.5t-34.5 130.5
t-107.5 93.5q-26 12 -55.5 17.5t-49 6.5t-59.5 1h-123v-222h194v-64z" />
    <glyph glyph-name="dcroat" unicode="&#x111;" horiz-adv-x="510" 
d="M452 590h78v-52h-78v-538h-190q-62 0 -107.5 23.5t-68 61t-32.5 74t-10 73.5q0 104 65.5 165t155.5 61q51 0 97 -18v98h-107v52h107v92h90v-92zM362 75v286q-40 21 -83 21q-61 0 -103 -40.5t-42 -120.5q0 -99 66 -132q28 -14 94 -14h68z" />
    <glyph glyph-name="Emacron" unicode="&#x112;" horiz-adv-x="521" 
d="M462 682v-87h-289v-208h279v-87h-279v-212h298v-88h-396v682h387zM430 829v-79h-330v79h330z" />
    <glyph glyph-name="emacron" unicode="&#x113;" horiz-adv-x="479" 
d="M438 131v-87q-82 -53 -176 -53t-155 63q-67 69 -67 173t59 167.5t151 63.5q77 0 128 -49t63 -125q5 -30 5 -67h-316q3 -57 40 -99t105 -42q88 0 163 55zM132 270h226q-1 13 -4 26t-12.5 35t-33.5 36t-59 14q-52 0 -86 -38q-24 -26 -31 -73zM420 618v-73h-331v73h331z" />
    <glyph glyph-name="Ebreve" unicode="&#x114;" horiz-adv-x="521" 
d="M462 682v-87h-289v-208h279v-87h-279v-212h298v-88h-396v682h387zM104 871h78q20 -62 92 -62q40 0 58 17t27 45h78q-13 -76 -61 -109t-105 -33q-53 0 -104.5 36t-62.5 106z" />
    <glyph glyph-name="ebreve" unicode="&#x115;" horiz-adv-x="479" 
d="M438 131v-87q-82 -53 -176 -53t-155 63q-67 69 -67 173t59 167.5t151 63.5q77 0 128 -49t63 -125q5 -30 5 -67h-316q3 -57 40 -99t105 -42q88 0 163 55zM132 270h226q-1 13 -4 26t-12.5 35t-33.5 36t-59 14q-52 0 -86 -38q-24 -26 -31 -73zM98 635h67q16 -62 76 -62
q30 0 46 13.5t26 48.5h68q-7 -58 -46.5 -93.5t-95.5 -35.5t-93 34t-48 95z" />
    <glyph glyph-name="Edotaccent" unicode="&#x116;" horiz-adv-x="521" 
d="M462 682v-87h-289v-208h279v-87h-279v-212h298v-88h-396v682h387zM266 860q22 0 37.5 -15.5t15.5 -37.5t-15.5 -37.5t-37.5 -15.5t-37.5 15.5t-15.5 37.5t15.5 37.5t37.5 15.5z" />
    <glyph glyph-name="edotaccent" unicode="&#x117;" horiz-adv-x="479" 
d="M438 131v-87q-82 -53 -176 -53t-155 63q-67 69 -67 173t59 167.5t151 63.5q77 0 128 -49t63 -125q5 -30 5 -67h-316q3 -57 40 -99t105 -42q88 0 163 55zM132 270h226q-1 13 -4 26t-12.5 35t-33.5 36t-59 14q-52 0 -86 -38q-24 -26 -31 -73zM250 628q19 0 32.5 -13.5
t13.5 -32.5t-13.5 -32.5t-32.5 -13.5t-32.5 13.5t-13.5 32.5t13.5 32.5t32.5 13.5z" />
    <glyph glyph-name="Eogonek" unicode="&#x118;" horiz-adv-x="521" 
d="M471 -106v-74q-36 -17 -75 -17q-49 0 -83.5 26.5t-34.5 76.5q0 48 40 94h-243v682h387v-87h-289v-208h279v-87h-279v-212h298v-88h-77q-32 -43 -32 -68q0 -21 17.5 -35.5t36.5 -14.5q16 0 55 12z" />
    <glyph glyph-name="eogonek" unicode="&#x119;" horiz-adv-x="479" 
d="M446 217h-316q3 -57 40 -99t105 -42q88 0 163 55v-87q-35 -23 -67 -35q-35 -42 -35 -72q0 -17 14.5 -30.5t38.5 -13.5q18 0 45 11v-67q-32 -15 -67 -15q-47 0 -77 25.5t-30 66.5q0 37 29 78q-65 -4 -101 9q-22 7 -45 23t-47.5 42t-40 68.5t-15.5 92.5q0 104 59 167.5
t151 63.5q77 0 128 -49t63 -125q5 -30 5 -67zM132 270h226q-1 13 -4 26t-12.5 35t-33.5 36t-59 14q-52 0 -86 -38q-24 -26 -31 -73z" />
    <glyph glyph-name="Ecaron" unicode="&#x11a;" horiz-adv-x="521" 
d="M462 682v-87h-289v-208h279v-87h-279v-212h298v-88h-396v682h387zM99 886h62l104 -95l105 95h61l-94 -157h-142z" />
    <glyph glyph-name="ecaron" unicode="&#x11b;" horiz-adv-x="479" 
d="M438 131v-87q-82 -53 -176 -53t-155 63q-67 69 -67 173t59 167.5t151 63.5q77 0 128 -49t63 -125q5 -30 5 -67h-316q3 -57 40 -99t105 -42q88 0 163 55zM132 270h226q-1 13 -4 26t-12.5 35t-33.5 36t-59 14q-52 0 -86 -38q-24 -26 -31 -73zM412 657l-111 -151h-92
l-109 151h55l101 -85l100 85h56z" />
    <glyph glyph-name="Gcircumflex" unicode="&#x11c;" horiz-adv-x="740" 
d="M673 335v-288q-127 -56 -250 -56q-95 0 -169 31.5t-117 83t-65 110t-22 119.5q0 92 42.5 172t128.5 132t198 52q65 0 119 -14.5t121 -43.5v-100q-122 71 -242 71q-107 0 -186 -73.5t-79 -189.5q0 -115 76 -189.5t198 -74.5q56 0 149 30v142h-131v86h229zM557 729h-62
l-104 95l-105 -95h-61l94 157h142z" />
    <glyph glyph-name="gcircumflex" unicode="&#x11d;" horiz-adv-x="427" 
d="M422 448v-69h-92q47 -47 47 -99q0 -48 -29 -88.5t-99 -53.5q-59 -11 -70 -14q-27 -7 -27 -28q0 -10 4 -16t28.5 -16t73.5 -19q93 -18 127.5 -49t34.5 -87q0 -69 -60.5 -105t-147.5 -36q-89 0 -150.5 36t-61.5 106q0 53 36 81.5t78 37.5q-45 26 -45 57q0 20 18 38.5
t53 26.5q-47 17 -73 56t-26 84q0 70 49 113.5t147 43.5h185zM208 371q-37 0 -62.5 -24.5t-25.5 -57.5q0 -35 25 -58t63 -23q44 0 66.5 25.5t22.5 55.5t-22 56t-67 26zM187 -23q-44 0 -73 -17.5t-29 -51.5q0 -68 124 -68q51 0 87.5 15.5t36.5 50.5q0 26 -25.5 43t-56 22.5
t-64.5 5.5zM232 657l94 -151h-55l-87 86l-83 -86h-53l91 151h93z" />
    <glyph glyph-name="Gbreve" unicode="&#x11e;" horiz-adv-x="740" 
d="M673 335v-288q-127 -56 -250 -56q-95 0 -169 31.5t-117 83t-65 110t-22 119.5q0 92 42.5 172t128.5 132t198 52q65 0 119 -14.5t121 -43.5v-100q-122 71 -242 71q-107 0 -186 -73.5t-79 -189.5q0 -115 76 -189.5t198 -74.5q56 0 149 30v142h-131v86h229zM229 871h78
q20 -62 92 -62q40 0 58 17t27 45h78q-13 -76 -61 -109t-105 -33q-53 0 -104.5 36t-62.5 106z" />
    <glyph glyph-name="gbreve" unicode="&#x11f;" horiz-adv-x="427" 
d="M422 448v-69h-92q47 -47 47 -99q0 -48 -29 -88.5t-99 -53.5q-59 -11 -70 -14q-27 -7 -27 -28q0 -10 4 -16t28.5 -16t73.5 -19q93 -18 127.5 -49t34.5 -87q0 -69 -60.5 -105t-147.5 -36q-89 0 -150.5 36t-61.5 106q0 53 36 81.5t78 37.5q-45 26 -45 57q0 20 18 38.5
t53 26.5q-47 17 -73 56t-26 84q0 70 49 113.5t147 43.5h185zM208 371q-37 0 -62.5 -24.5t-25.5 -57.5q0 -35 25 -58t63 -23q44 0 66.5 25.5t22.5 55.5t-22 56t-67 26zM187 -23q-44 0 -73 -17.5t-29 -51.5q0 -68 124 -68q51 0 87.5 15.5t36.5 50.5q0 26 -25.5 43t-56 22.5
t-64.5 5.5zM87 635h67q16 -62 76 -62q30 0 46 13.5t26 48.5h68q-7 -58 -46.5 -93.5t-95.5 -35.5t-93 34t-48 95z" />
    <glyph glyph-name="Gdotaccent" unicode="&#x120;" horiz-adv-x="740" 
d="M673 335v-288q-127 -56 -250 -56q-95 0 -169 31.5t-117 83t-65 110t-22 119.5q0 92 42.5 172t128.5 132t198 52q65 0 119 -14.5t121 -43.5v-100q-122 71 -242 71q-107 0 -186 -73.5t-79 -189.5q0 -115 76 -189.5t198 -74.5q56 0 149 30v142h-131v86h229zM391 860
q22 0 37.5 -15.5t15.5 -37.5t-15.5 -37.5t-37.5 -15.5t-37.5 15.5t-15.5 37.5t15.5 37.5t37.5 15.5z" />
    <glyph glyph-name="gdotaccent" unicode="&#x121;" horiz-adv-x="427" 
d="M422 448v-69h-92q47 -47 47 -99q0 -48 -29 -88.5t-99 -53.5q-59 -11 -70 -14q-27 -7 -27 -28q0 -10 4 -16t28.5 -16t73.5 -19q93 -18 127.5 -49t34.5 -87q0 -69 -60.5 -105t-147.5 -36q-89 0 -150.5 36t-61.5 106q0 53 36 81.5t78 37.5q-45 26 -45 57q0 20 18 38.5
t53 26.5q-47 17 -73 56t-26 84q0 70 49 113.5t147 43.5h185zM208 371q-37 0 -62.5 -24.5t-25.5 -57.5q0 -35 25 -58t63 -23q44 0 66.5 25.5t22.5 55.5t-22 56t-67 26zM187 -23q-44 0 -73 -17.5t-29 -51.5q0 -68 124 -68q51 0 87.5 15.5t36.5 50.5q0 26 -25.5 43t-56 22.5
t-64.5 5.5zM187 628q19 0 32.5 -13.5t13.5 -32.5t-13.5 -32.5t-32.5 -13.5t-32.5 13.5t-13.5 32.5t13.5 32.5t32.5 13.5z" />
    <glyph glyph-name="Gcommaaccent" unicode="&#x122;" horiz-adv-x="740" 
d="M673 335v-288q-127 -56 -250 -56q-95 0 -169 31.5t-117 83t-65 110t-22 119.5q0 92 42.5 172t128.5 132t198 52q65 0 119 -14.5t121 -43.5v-100q-122 71 -242 71q-107 0 -186 -73.5t-79 -189.5q0 -115 76 -189.5t198 -74.5q56 0 149 30v142h-131v86h229zM323 -227v61
q24 -2 43 -2q69 0 69 31q0 12 -7.5 18.5t-23.5 8.5t-26.5 2t-30.5 -1l11 60h28q17 0 33.5 -2t46 -8.5t47.5 -25.5t18 -47q0 -42 -38 -71q-38 -27 -128 -27q-25 0 -42 3z" />
    <glyph glyph-name="gcommaaccent" unicode="&#x123;" horiz-adv-x="427" 
d="M422 448v-69h-92q47 -47 47 -99q0 -18 -4.5 -36.5t-17 -40.5t-40 -39.5t-66.5 -25.5q-59 -11 -70 -14q-27 -7 -27 -28q0 -10 3 -15t23 -14t61 -18q69 -15 93.5 -23t45.5 -24q42 -33 42 -93q0 -50 -33.5 -83t-78 -45.5t-96.5 -12.5q-89 0 -150.5 36t-61.5 106
q0 90 114 119q-45 26 -45 57q0 20 18 38.5t53 26.5q-32 14 -49 29q-50 44 -50 111q0 43 22 80.5t58 53.5q52 23 116 23h185zM208 371q-35 0 -61.5 -22.5t-26.5 -59.5q0 -35 25 -58t63 -23q42 0 65.5 24.5t23.5 56.5t-24 57t-65 25zM187 -23q-42 0 -72 -17.5t-30 -51.5
q0 -68 124 -68t124 66q0 71 -146 71zM294 720v-15q-32 -30 -34 -81q42 -13 42 -52q0 -21 -14 -37t-35 -16q-25 0 -40 22.5t-15 54.5q0 16 4 35t27.5 47.5t64.5 41.5z" />
    <glyph glyph-name="Hcircumflex" unicode="&#x124;" horiz-adv-x="729" 
d="M654 682v-682h-99v297h-382v-297h-98v682h98v-295h382v295h99zM531 729h-62l-104 95l-105 -95h-61l94 157h142z" />
    <glyph glyph-name="hcircumflex" unicode="&#x125;" 
d="M150 682v-292q57 68 138 68q48 0 83.5 -24.5t50.5 -60.5q17 -42 17 -117v-256h-89v278q0 42 -16 69q-25 41 -71 41q-55 0 -113 -66v-322h-89v682h89zM296 869l94 -151h-55l-87 86l-83 -86h-53l91 151h93z" />
    <glyph glyph-name="Hbar" unicode="&#x126;" horiz-adv-x="729" 
d="M654 564h75v-65h-75v-499h-99v297h-382v-297h-98v499h-75v65h75v118h98v-118h382v118h99v-118zM555 499h-382v-112h382v112z" />
    <glyph glyph-name="hbar" unicode="&#x127;" 
d="M150 584h165v-52h-165v-142q57 68 138 68q48 0 83.5 -24.5t50.5 -60.5q17 -42 17 -117v-256h-89v278q0 42 -16 69q-25 41 -71 41q-55 0 -113 -66v-322h-89v532h-70v52h70v98h89v-98z" />
    <glyph glyph-name="Itilde" unicode="&#x128;" horiz-adv-x="250" 
d="M174 682v-682h-98v682h98zM14 729h-52q7 57 34.5 89t66.5 32q29 0 92 -31q38 -18 50 -18q28 0 34 49h52q-4 -56 -31.5 -88.5t-65.5 -32.5q-18 0 -33 5t-66 28q-36 16 -47 16t-18 -8.5t-9.5 -16t-6.5 -24.5z" />
    <glyph glyph-name="itilde" unicode="&#x129;" horiz-adv-x="219" 
d="M154 449v-449h-90v449h90zM4 524h-41q1 64 25.5 89.5t54.5 25.5q26 0 71 -17q58 -22 68 -22q30 0 36 39h38q-1 -61 -25 -88t-53 -27t-88 26q-30 13 -53 13q-29 0 -33 -39z" />
    <glyph glyph-name="Imacron" unicode="&#x12a;" horiz-adv-x="250" 
d="M174 682v-682h-98v682h98zM290 829v-79h-330v79h330z" />
    <glyph glyph-name="imacron" unicode="&#x12b;" horiz-adv-x="219" 
d="M154 449v-449h-90v449h90zM275 618v-73h-331v73h331z" />
    <glyph glyph-name="Ibreve" unicode="&#x12c;" horiz-adv-x="250" 
d="M174 682v-682h-98v682h98zM-41 871h78q20 -62 92 -62q40 0 58 17t27 45h78q-13 -76 -61 -109t-105 -33q-53 0 -104.5 36t-62.5 106z" />
    <glyph glyph-name="ibreve" unicode="&#x12d;" horiz-adv-x="219" 
d="M154 449v-449h-90v449h90zM-32 635h67q16 -62 76 -62q30 0 46 13.5t26 48.5h68q-7 -58 -46.5 -93.5t-95.5 -35.5t-93 34t-48 95z" />
    <glyph glyph-name="Iogonek" unicode="&#x12e;" horiz-adv-x="250" 
d="M230 -106v-74q-36 -17 -75 -17q-51 0 -85 27.5t-34 75.5q0 50 40 94v682h98v-682h-22q-31 -43 -31 -68q0 -21 16.5 -35.5t35.5 -14.5q17 0 57 12z" />
    <glyph glyph-name="iogonek" unicode="&#x12f;" horiz-adv-x="219" 
d="M203 -96v-67q-33 -15 -67 -15q-46 0 -76.5 25.5t-30.5 67.5q0 44 36 85v449h89v-449h-20q-29 -37 -29 -62q0 -18 13.5 -31.5t32.5 -13.5q15 0 52 11zM109 638q23 0 38 -15.5t15 -36.5t-15.5 -37t-37.5 -16q-24 0 -38 17t-14 36q0 20 15 36t37 16z" />
    <glyph glyph-name="Idotaccent" unicode="&#x130;" horiz-adv-x="250" 
d="M174 682v-682h-98v682h98zM126 860q22 0 37.5 -15.5t15.5 -37.5t-15.5 -37.5t-37.5 -15.5t-37.5 15.5t-15.5 37.5t15.5 37.5t37.5 15.5z" />
    <glyph glyph-name="dotlessi" unicode="&#x131;" horiz-adv-x="219" 
d="M154 449v-449h-90v449h90z" />
    <glyph glyph-name="IJ" unicode="&#x132;" 
d="M174 682v-682h-98v682h98zM424 682v-673q0 -72 -12 -116.5t-46 -77.5q-48 -46 -128 -46q-2 0 -32 3l-18 91q86 -2 112 26.5t26 130.5v662h98z" />
    <glyph glyph-name="ij" unicode="&#x133;" horiz-adv-x="437" 
d="M109 638q22 0 37.5 -15.5t15.5 -36.5t-15.5 -37t-37.5 -16q-24 0 -38 17t-14 36q0 20 15 36t37 16zM154 449v-449h-89v449h89zM323 638q20 0 36.5 -14t16.5 -38q0 -21 -14.5 -37t-37.5 -16q-24 0 -38.5 17.5t-14.5 35.5q0 20 15 36t37 16zM370 449v-476q0 -39 -1.5 -60
t-9.5 -51t-27.5 -52t-51.5 -40l-67 65q33 12 52 42q11 18 13 35.5t2 65.5v471h90z" />
    <glyph glyph-name="Jcircumflex" unicode="&#x134;" horiz-adv-x="250" 
d="M174 682v-673q0 -72 -12 -116.5t-46 -77.5q-48 -46 -128 -46q-2 0 -32 3l-18 91q86 -2 112 26.5t26 130.5v662h98zM292 729h-62l-104 95l-105 -95h-61l94 157h142z" />
    <glyph glyph-name="jcircumflex" unicode="&#x135;" horiz-adv-x="219" 
d="M151 449v-476q0 -39 -1.5 -60t-9.5 -51t-27.5 -52t-51.5 -40l-67 65q29 10 53 42q10 16 12 32.5t2 58.5v10v471h90zM155 697l94 -151h-54l-87 86l-84 -86h-53l92 151h92z" />
    <glyph glyph-name="Kcommaaccent" unicode="&#x136;" horiz-adv-x="656" 
d="M583 682l-296 -323l369 -359h-134l-348 337v-337h-99v682h99v-312l287 312h122zM261 -227v61q24 -2 43 -2q69 0 69 31q0 12 -7.5 18.5t-23.5 8.5t-26.5 2t-30.5 -1l11 60h28q17 0 33.5 -2t46 -8.5t47.5 -25.5t18 -47q0 -42 -38 -71q-38 -27 -128 -27q-25 0 -42 3z" />
    <glyph glyph-name="kcommaaccent" unicode="&#x137;" horiz-adv-x="479" 
d="M461 449l-192 -220l231 -229h-119l-225 229l199 220h106zM152 682v-682h-90v682h90zM174 -204v55q22 -2 30 -2q53 0 53 27q0 14 -13.5 21t-26.5 6t-18 -1l18 49q13 0 20.5 -0.5t23 -2t25.5 -6t21.5 -11.5t17 -19.5t5.5 -29.5q0 -46 -39 -71q-28 -18 -86 -18q-21 0 -31 3z
" />
    <glyph glyph-name="kgreenlandic" unicode="&#x138;" horiz-adv-x="479" 
d="M152 226v-226h-90v449h90v-216l195 216h107l-192 -220l231 -229h-119z" />
    <glyph glyph-name="Lacute" unicode="&#x139;" horiz-adv-x="490" 
d="M173 682v-593h307v-89h-406v682h99zM165 879h143l-164 -150h-52z" />
    <glyph glyph-name="lacute" unicode="&#x13a;" horiz-adv-x="219" 
d="M154 682v-682h-89v682h89zM210 865l-110 -147h-55l66 147h99z" />
    <glyph glyph-name="Lcommaaccent" unicode="&#x13b;" horiz-adv-x="490" 
d="M173 682v-593h307v-89h-406v682h99zM178 -228v61q24 -2 43 -2q69 0 69 31q0 12 -7.5 18.5t-23.5 8.5t-26.5 2t-30.5 -1l11 60h28q17 0 33.5 -2t46 -8.5t47.5 -25.5t18 -47q0 -42 -38 -71q-38 -27 -128 -27q-26 0 -42 3z" />
    <glyph glyph-name="lcommaaccent" unicode="&#x13c;" horiz-adv-x="219" 
d="M154 682v-682h-89v682h89zM44 -204v55q22 -2 30 -2q53 0 53 27q0 14 -13.5 21t-26.5 6t-18 -1l19 51q112 0 112 -71q0 -46 -39 -71q-28 -18 -85 -18q-22 0 -32 3z" />
    <glyph glyph-name="Lcaron" unicode="&#x13d;" horiz-adv-x="490" 
d="M173 682v-593h307v-89h-406v682h99zM304 443v19q24 22 32 44.5t10 55.5q-52 16 -52 64q0 27 17.5 46t42.5 19q31 0 49.5 -27.5t18.5 -66.5q0 -11 -2.5 -24.5t-11.5 -41t-36 -51.5t-68 -37z" />
    <glyph glyph-name="lcaron" unicode="&#x13e;" horiz-adv-x="292" 
d="M152 682v-682h-89v682h89zM212 444v18q23 23 31.5 45.5t9.5 54.5q-52 16 -52 64q0 26 17.5 45.5t42.5 19.5q32 0 50 -27.5t18 -66.5q0 -8 -0.5 -17t-7 -30.5t-17.5 -39.5t-35 -37t-57 -29z" />
    <glyph glyph-name="Ldot" unicode="&#x13f;" horiz-adv-x="490" 
d="M172 682v-593h308v-89h-406v682h98zM324 401q22 0 38 -16t16 -38t-16 -38t-38 -16q-23 0 -39 16t-16 38t16 38t39 16z" />
    <glyph glyph-name="ldot" unicode="&#x140;" horiz-adv-x="312" 
d="M153 682v-682h-89v682h89zM252 405q20 0 36 -15t16 -38q0 -22 -15.5 -37.5t-36.5 -15.5q-22 0 -37.5 15.5t-15.5 37.5q0 23 16 38t37 15z" />
    <glyph glyph-name="Lslash" unicode="&#x141;" horiz-adv-x="490" 
d="M172 682v-260l138 113v-86l-138 -119v-238h308v-92h-406v250l-89 -71v91l89 73v339h98z" />
    <glyph glyph-name="lslash" unicode="&#x142;" horiz-adv-x="219" 
d="M155 682v-263l80 63v-79l-80 -65v-338h-89v266l-79 -61v79l79 64v334h89z" />
    <glyph glyph-name="Nacute" unicode="&#x143;" horiz-adv-x="781" 
d="M710 682v-682h-84l-456 525v-525h-92v682h79l460 -529v529h93zM421 879h143l-164 -150h-52z" />
    <glyph glyph-name="nacute" unicode="&#x144;" 
d="M61 449h91v-57q59 66 135 66q31 0 67 -15.5t60 -56.5q25 -39 25 -130v-256h-90v256q0 42 -4 61.5t-20 38.5q-25 28 -67 28q-62 0 -106 -63v-321h-91v449zM351 653l-110 -147h-55l66 147h99z" />
    <glyph glyph-name="Ncommaaccent" unicode="&#x145;" horiz-adv-x="781" 
d="M710 682v-682h-84l-456 525v-525h-92v682h79l460 -529v529h93zM323 -227v61q24 -2 43 -2q69 0 69 31q0 12 -7.5 18.5t-23.5 8.5t-26.5 2t-30.5 -1l11 60h28q17 0 33.5 -2t46 -8.5t47.5 -25.5t18 -47q0 -42 -38 -71q-38 -27 -128 -27q-25 0 -42 3z" />
    <glyph glyph-name="ncommaaccent" unicode="&#x146;" 
d="M61 449h91v-57q59 66 135 66q31 0 67 -15.5t60 -56.5q25 -39 25 -130v-256h-90v256q0 42 -4 61.5t-20 38.5q-25 28 -67 28q-62 0 -106 -63v-321h-91v449zM185 -206v55q22 -2 30 -2q53 0 53 27q0 14 -13.5 21t-26.5 6t-18 -1l19 51q112 0 112 -71q0 -46 -39 -71
q-28 -18 -85 -18q-21 0 -32 3z" />
    <glyph glyph-name="Ncaron" unicode="&#x147;" horiz-adv-x="781" 
d="M710 682v-682h-84l-456 525v-525h-92v682h79l460 -529v529h93zM224 886h62l104 -95l105 95h61l-94 -157h-142z" />
    <glyph glyph-name="ncaron" unicode="&#x148;" 
d="M61 449h91v-57q59 66 135 66q31 0 67 -15.5t60 -56.5q25 -39 25 -130v-256h-90v256q0 42 -4 61.5t-20 38.5q-25 28 -67 28q-62 0 -106 -63v-321h-91v449zM408 657l-111 -151h-92l-109 151h55l101 -85l100 85h56z" />
    <glyph glyph-name="napostrophe" unicode="&#x149;" horiz-adv-x="646" 
d="M51 443v19q23 23 31.5 45.5t9.5 54.5q-52 16 -52 64q0 26 18 45.5t43 19.5q31 0 49 -27.5t18 -66.5q0 -11 -2.5 -24.5t-11.5 -41t-36 -51.5t-67 -37zM205 449h90v-57q60 66 135 66q31 0 67 -15.5t61 -56.5q25 -39 25 -130v-256h-90v256q0 42 -4 61.5t-21 38.5
q-24 28 -67 28q-62 0 -106 -63v-321h-90v449z" />
    <glyph glyph-name="Eng" unicode="&#x14a;" horiz-adv-x="729" 
d="M653 434v-229q0 -105 -49 -159.5t-129 -54.5q-39 0 -53 3l-19 94q30 -3 38 -3q59 0 86.5 24t27.5 93v204q0 101 -47 147t-123 46q-68 0 -122 -35t-88 -82v-482h-99v682h99v-92q95 101 224 101q108 0 181 -66t73 -191z" />
    <glyph glyph-name="eng" unicode="&#x14b;" 
d="M349 -22v278q0 42 -4 61.5t-20 38.5q-25 28 -67 28q-62 0 -106 -63v-321h-91v449h91v-57q59 66 135 66q31 0 67 -15.5t60 -56.5q25 -39 25 -130v-283q0 -39 -1.5 -60t-9.5 -51t-27.5 -52t-51.5 -40l-67 65q37 13 52 43q10 17 12.5 35t2.5 65z" />
    <glyph glyph-name="Omacron" unicode="&#x14c;" horiz-adv-x="823" 
d="M410 691q164 0 266 -103t102 -246q0 -149 -104 -250t-269 -101q-157 0 -258.5 101.5t-101.5 246.5q0 92 41.5 171t126.5 130t197 51zM414 599q-55 0 -101 -16t-76 -42.5t-51 -61t-30.5 -70t-9.5 -70.5q0 -113 77.5 -185t187.5 -72q56 0 110 21.5t89 59.5q31 34 49.5 84
t18.5 96q0 44 -16.5 88t-48 82t-83.5 62t-116 24zM586 829v-79h-330v79h330z" />
    <glyph glyph-name="omacron" unicode="&#x14d;" horiz-adv-x="552" 
d="M278 458q102 0 170 -65t68 -170q0 -111 -73.5 -171.5t-167.5 -60.5q-106 0 -172.5 68t-66.5 166t66.5 165.5t175.5 67.5zM273 378q-63 0 -104.5 -41t-41.5 -113q0 -77 46 -115t104 -38q66 0 107 43t41 111q0 77 -47 115t-105 38zM452 618v-73h-331v73h331z" />
    <glyph glyph-name="Obreve" unicode="&#x14e;" horiz-adv-x="823" 
d="M410 691q164 0 266 -103t102 -246q0 -149 -104 -250t-269 -101q-157 0 -258.5 101.5t-101.5 246.5q0 92 41.5 171t126.5 130t197 51zM414 599q-55 0 -101 -16t-76 -42.5t-51 -61t-30.5 -70t-9.5 -70.5q0 -113 77.5 -185t187.5 -72q56 0 110 21.5t89 59.5q31 34 49.5 84
t18.5 96q0 44 -16.5 88t-48 82t-83.5 62t-116 24zM245 871h78q20 -62 92 -62q40 0 58 17t27 45h78q-13 -76 -61 -109t-105 -33q-53 0 -104.5 36t-62.5 106z" />
    <glyph glyph-name="obreve" unicode="&#x14f;" horiz-adv-x="552" 
d="M278 458q102 0 170 -65t68 -170q0 -111 -73.5 -171.5t-167.5 -60.5q-106 0 -172.5 68t-66.5 166t66.5 165.5t175.5 67.5zM273 378q-63 0 -104.5 -41t-41.5 -113q0 -77 46 -115t104 -38q66 0 107 43t41 111q0 77 -47 115t-105 38zM135 635h67q16 -62 76 -62q30 0 46 13.5
t26 48.5h68q-7 -58 -46.5 -93.5t-95.5 -35.5t-93 34t-48 95z" />
    <glyph glyph-name="Ohungarumlaut" unicode="&#x150;" horiz-adv-x="823" 
d="M410 691q164 0 266 -103t102 -246q0 -149 -104 -250t-269 -101q-157 0 -258.5 101.5t-101.5 246.5q0 92 41.5 171t126.5 130t197 51zM414 599q-55 0 -101 -16t-76 -42.5t-51 -61t-30.5 -70t-9.5 -70.5q0 -113 77.5 -185t187.5 -72q56 0 110 21.5t89 59.5q31 34 49.5 84
t18.5 96q0 44 -16.5 88t-48 82t-83.5 62t-116 24zM474 879l-125 -150h-44l44 150h125zM638 879l-125 -150h-44l44 150h125z" />
    <glyph glyph-name="ohungarumlaut" unicode="&#x151;" horiz-adv-x="552" 
d="M278 458q102 0 170 -65t68 -170q0 -111 -73.5 -171.5t-167.5 -60.5q-106 0 -172.5 68t-66.5 166t66.5 165.5t175.5 67.5zM273 378q-63 0 -104.5 -41t-41.5 -113q0 -77 46 -115t104 -38q66 0 107 43t41 111q0 77 -47 115t-105 38zM517 652l-111 -146h-55l66 146h100z
M356 652l-111 -146h-54l65 146h100z" />
    <glyph glyph-name="OE" unicode="&#x152;" horiz-adv-x="936" 
d="M875 682v-85h-279v-208h269v-88h-269v-216h290v-85h-420q-96 0 -168.5 19t-137.5 74q-113 97 -113 245q0 186 158 286q42 27 95 40.5t84.5 15.5t81.5 2h409zM452 85h46v512h-38q-78 0 -131.5 -15.5t-101.5 -59.5q-77 -71 -77 -181q0 -114 82 -185q80 -71 220 -71z" />
    <glyph glyph-name="oe" unicode="&#x153;" horiz-adv-x="833" 
d="M798 129v-90q-25 -15 -40.5 -23t-49 -16.5t-72.5 -8.5q-113 0 -167 89q-72 -89 -196 -89q-108 0 -173 70.5t-65 162.5q0 94 67 164t177 70q40 0 73 -9t56 -26t35 -29t26 -29q24 40 63.5 66.5t91.5 26.5q47 0 87 -24t61 -68q23 -48 26 -122h-282q1 -30 2.5 -46t9 -37.5
t22.5 -40.5q38 -47 106 -47t142 56zM525 302h183q-4 25 -16 43q-25 36 -71 36q-8 0 -17 -1.5t-25.5 -8t-31 -24.5t-22.5 -45zM277 371q-63 0 -106 -42t-43 -108q0 -64 44 -104t106 -40q69 0 107.5 43t38.5 104q0 63 -41.5 105t-105.5 42z" />
    <glyph glyph-name="Racute" unicode="&#x154;" horiz-adv-x="604" 
d="M78 682h171q67 0 117 -22q53 -22 80 -67.5t27 -100.5q0 -123 -114 -168q29 -19 57 -51.5t44 -56.5t51 -80q25 -40 93 -136h-116q-8 12 -68 103.5t-72 107.5q-45 58 -74.5 72t-72.5 14h-26v-297h-97v682zM205 599h-30v-215h38q68 0 95 10q32 13 48.5 40t16.5 58
q0 30 -14 55t-38 36q-33 16 -116 16zM273 879h143l-164 -150h-52z" />
    <glyph glyph-name="racute" unicode="&#x155;" horiz-adv-x="386" 
d="M59 449h89v-103q16 25 25.5 38t28 33.5t38.5 30.5t42 10q52 0 105 -51l-47 -78q-14 14 -38.5 29t-47.5 15q-34 0 -70 -35t-36 -103v-235h-89v449zM319 653l-110 -147h-55l66 147h99z" />
    <glyph glyph-name="Rcommaaccent" unicode="&#x156;" horiz-adv-x="604" 
d="M78 682h171q67 0 117 -22q53 -22 80 -67.5t27 -100.5q0 -123 -114 -168q29 -19 57 -51.5t44 -56.5t51 -80q25 -40 93 -136h-116q-8 12 -68 103.5t-72 107.5q-45 58 -74.5 72t-72.5 14h-26v-297h-97v682zM205 599h-30v-215h38q68 0 95 10q32 13 48.5 40t16.5 58
q0 30 -14 55t-38 36q-33 16 -116 16zM235 -227v61q24 -2 43 -2q69 0 69 31q0 12 -7.5 18.5t-23.5 8.5t-26.5 2t-30.5 -1l11 60h28q17 0 33.5 -2t46 -8.5t47.5 -25.5t18 -47q0 -42 -38 -71q-38 -27 -128 -27q-25 0 -42 3z" />
    <glyph glyph-name="rcommaaccent" unicode="&#x157;" horiz-adv-x="386" 
d="M59 449h89v-103q16 25 25.5 38t28 33.5t38.5 30.5t42 10q52 0 105 -51l-47 -78q-14 14 -38.5 29t-47.5 15q-34 0 -70 -35t-36 -103v-235h-89v449zM72 -206v55q22 -2 30 -2q53 0 53 27q0 14 -13.5 21t-26.5 6t-18 -1l19 51q112 0 112 -71q0 -46 -39 -71q-28 -18 -85 -18
q-22 0 -32 3z" />
    <glyph glyph-name="Rcaron" unicode="&#x158;" horiz-adv-x="604" 
d="M78 682h171q67 0 117 -22q53 -22 80 -67.5t27 -100.5q0 -123 -114 -168q29 -19 57 -51.5t44 -56.5t51 -80q25 -40 93 -136h-116q-8 12 -68 103.5t-72 107.5q-45 58 -74.5 72t-72.5 14h-26v-297h-97v682zM205 599h-30v-215h38q68 0 95 10q32 13 48.5 40t16.5 58
q0 30 -14 55t-38 36q-33 16 -116 16zM96 886h62l104 -95l105 95h61l-94 -157h-142z" />
    <glyph glyph-name="rcaron" unicode="&#x159;" horiz-adv-x="386" 
d="M59 449h89v-103q16 25 25.5 38t28 33.5t38.5 30.5t42 10q52 0 105 -51l-47 -78q-14 14 -38.5 29t-47.5 15q-34 0 -70 -35t-36 -103v-235h-89v449zM376 657l-111 -151h-92l-109 151h55l101 -85l100 85h56z" />
    <glyph glyph-name="Sacute" unicode="&#x15a;" horiz-adv-x="458" 
d="M399 643v-111q-74 71 -160 71q-49 0 -78.5 -23t-29.5 -56q0 -41 31.5 -68t138.5 -90q56 -33 88 -76q37 -48 37 -113q0 -81 -54 -133.5t-144 -52.5q-101 0 -184 63v124q80 -100 184 -100q41 0 73.5 24.5t32.5 65.5q0 65 -90 118q-88 53 -118 74t-51 48q-34 44 -34 102
q0 79 55 130t146 51q84 0 157 -48zM245 879h143l-164 -150h-52z" />
    <glyph glyph-name="sacute" unicode="&#x15b;" horiz-adv-x="385" 
d="M323 421v-88q-77 48 -130 48q-29 0 -43 -12.5t-14 -27.5q0 -19 18 -33.5t70 -43.5q6 -3 9 -5q112 -61 112 -141q0 -18 -7.5 -38t-23.5 -41t-48 -34.5t-75 -13.5q-66 0 -150 41v96q86 -59 143 -59q24 0 46 12.5t22 33.5q0 22 -15.5 35.5t-53.5 34.5q-69 38 -104 71.5
t-35 84.5q0 50 39.5 83.5t103.5 33.5q65 0 136 -37zM308 653l-110 -147h-55l66 147h99z" />
    <glyph glyph-name="Scircumflex" unicode="&#x15c;" horiz-adv-x="458" 
d="M399 643v-111q-74 71 -160 71q-49 0 -78.5 -23t-29.5 -56q0 -41 31.5 -68t138.5 -90q56 -33 88 -76q37 -48 37 -113q0 -81 -54 -133.5t-144 -52.5q-101 0 -184 63v124q80 -100 184 -100q41 0 73.5 24.5t32.5 65.5q0 65 -90 118q-88 53 -118 74t-51 48q-34 44 -34 102
q0 79 55 130t146 51q84 0 157 -48zM396 729h-62l-104 95l-105 -95h-61l94 157h142z" />
    <glyph glyph-name="scircumflex" unicode="&#x15d;" horiz-adv-x="385" 
d="M323 421v-88q-77 48 -130 48q-29 0 -43 -12.5t-14 -27.5q0 -19 18 -33.5t70 -43.5q6 -3 9 -5q112 -61 112 -141q0 -18 -7.5 -38t-23.5 -41t-48 -34.5t-75 -13.5q-66 0 -150 41v96q86 -59 143 -59q24 0 46 12.5t22 33.5q0 22 -15.5 35.5t-53.5 34.5q-69 38 -104 71.5
t-35 84.5q0 50 39.5 83.5t103.5 33.5q65 0 136 -37zM238 657l94 -151h-55l-87 86l-83 -86h-53l91 151h93z" />
    <glyph glyph-name="uni015E" unicode="&#x15e;" horiz-adv-x="458" 
d="M378 643v-111q-74 71 -159 71q-48 0 -78 -22.5t-30 -57.5q0 -50 68 -96q7 -4 62 -37t66 -41q98 -72 98 -172q0 -61 -36 -113.5t-117 -68.5l-1 -6q76 -12 76 -77q0 -49 -51 -77t-112 -28q-29 0 -65 4v63q9 -2 50 -2q76 0 76 32q0 35 -80 30l23 60q-50 10 -79 21t-66 39
v124q80 -100 184 -100q41 0 73.5 24t32.5 66q0 66 -89 118q-45 27 -65.5 39.5t-49.5 33t-41 34t-25 32.5t-17.5 39.5t-4.5 45.5q0 79 55 130t146 51q85 0 156 -48z" />
    <glyph glyph-name="uni015F" unicode="&#x15f;" horiz-adv-x="385" 
d="M222 -7v-1l-10 -21q28 -5 45 -18q27 -21 27 -56q0 -50 -46 -74q-30 -15 -107 -15q-17 0 -37 2v58q4 0 29 0.5t29 1.5q42 6 42 28q0 30 -76 30l31 66q-45 7 -108 38v96q86 -59 143 -59q24 0 46 12.5t22 33.5q0 22 -15.5 35.5t-53.5 34.5q-69 38 -104 71.5t-35 84.5
q0 54 42.5 85.5t94.5 31.5q62 0 118 -23q34 -13 24 -102q-77 48 -130 48q-29 0 -43 -12.5t-14 -27.5q0 -19 18 -33.5t70 -43.5q6 -3 9 -5q112 -61 112 -141q0 -49 -40 -88q-31 -29 -83 -37z" />
    <glyph glyph-name="Scaron" unicode="&#x160;" horiz-adv-x="458" 
d="M399 643v-111q-74 71 -160 71q-49 0 -78.5 -23t-29.5 -56q0 -41 31.5 -68t138.5 -90q56 -33 88 -76q37 -48 37 -113q0 -81 -54 -133.5t-144 -52.5q-101 0 -184 63v124q80 -100 184 -100q41 0 73.5 24.5t32.5 65.5q0 65 -90 118q-88 53 -118 74t-51 48q-34 44 -34 102
q0 79 55 130t146 51q84 0 157 -48zM63 886h62l104 -95l105 95h61l-94 -157h-142z" />
    <glyph glyph-name="scaron" unicode="&#x161;" horiz-adv-x="385" 
d="M323 421v-88q-77 48 -130 48q-29 0 -43 -12.5t-14 -27.5q0 -19 18 -33.5t70 -43.5q6 -3 9 -5q112 -61 112 -141q0 -18 -7.5 -38t-23.5 -41t-48 -34.5t-75 -13.5q-66 0 -150 41v96q86 -59 143 -59q24 0 46 12.5t22 33.5q0 22 -15.5 35.5t-53.5 34.5q-69 38 -104 71.5
t-35 84.5q0 50 39.5 83.5t103.5 33.5q65 0 136 -37zM350 657l-111 -151h-92l-109 151h55l101 -85l100 85h56z" />
    <glyph glyph-name="Tcommaaccent" unicode="&#x162;" horiz-adv-x="604" 
d="M587 682v-86h-238v-596h-98v596h-234v86h570zM210 -227v61q24 -2 43 -2q69 0 69 31q0 12 -7.5 18.5t-23.5 8.5t-26.5 2t-30.5 -1l11 60h28q17 0 33.5 -2t46 -8.5t47.5 -25.5t18 -47q0 -42 -38 -71q-38 -27 -128 -27q-26 0 -42 3z" />
    <glyph glyph-name="tcommaaccent" unicode="&#x163;" horiz-adv-x="347" 
d="M167 542v-93h142v-80h-142v-196q1 -43 3.5 -56.5t12.5 -25.5q18 -19 48 -19q49 0 101 32v-83q-55 -30 -115 -30q-29 0 -62.5 13.5t-54.5 43.5q-22 33 -22 122v199h-78v9zM126 -206v55q22 -2 30 -2q53 0 53 27q0 14 -13.5 21t-26.5 6t-18 -1l19 51q112 0 112 -71
q0 -46 -39 -71q-28 -18 -85 -18q-22 0 -32 3z" />
    <glyph glyph-name="Tcaron" unicode="&#x164;" horiz-adv-x="604" 
d="M587 682v-86h-238v-596h-98v596h-234v86h570zM136 886h62l104 -95l105 95h61l-94 -157h-142z" />
    <glyph glyph-name="tcaron" unicode="&#x165;" horiz-adv-x="439" 
d="M167 542v-93h142v-80h-142v-196q1 -45 3 -58t13 -24q18 -19 48 -19q49 0 101 32v-83q-55 -30 -115 -30q-29 0 -62.5 13.5t-54.5 43.5q-22 33 -22 122v199h-78v9zM346 444v18q24 22 32 44.5t9 55.5q-51 16 -51 64q0 27 17.5 46t42.5 19q31 0 49.5 -27.5t18.5 -66.5
q0 -8 -0.5 -17t-7 -30.5t-17.5 -39.5t-35.5 -37t-57.5 -29z" />
    <glyph glyph-name="Tbar" unicode="&#x166;" horiz-adv-x="604" 
d="M349 356h191v-64h-191v-292h-98v292h-187v64h187v240h-234v86h570v-86h-238v-240z" />
    <glyph glyph-name="tbar" unicode="&#x167;" horiz-adv-x="347" 
d="M167 282h142v-52h-142v-64q0 -17 0.5 -26t3.5 -24t9.5 -23t19.5 -14.5t31 -6.5q48 0 101 32v-83q-56 -30 -115 -30q-35 0 -74 19t-55 64q-10 27 -10 86v70h-86v52h86v87h-78v9l167 164v-93h142v-80h-142v-87z" />
    <glyph glyph-name="Utilde" unicode="&#x168;" horiz-adv-x="708" 
d="M647 682v-387q0 -35 -1.5 -56t-8 -56t-23.5 -64.5t-44 -53.5q-84 -74 -215 -74q-79 0 -148.5 29t-107.5 90q-38 60 -38 185v387h98v-387q0 -69 8.5 -101.5t34.5 -58.5q55 -57 153 -57q127 0 176 90q19 35 19 127v387h97zM243 729h-52q7 57 34.5 89t66.5 32q29 0 92 -31
q38 -18 50 -18q28 0 34 49h52q-4 -56 -31.5 -88.5t-65.5 -32.5q-18 0 -33 5t-66 28q-36 16 -47 16t-18 -8.5t-9.5 -16t-6.5 -24.5z" />
    <glyph glyph-name="utilde" unicode="&#x169;" 
d="M438 0h-90v57q-60 -66 -136 -66q-31 0 -67 15.5t-60 56.5q-25 39 -25 130v256h90v-256q0 -21 0.5 -33.5t5.5 -33t13.5 -32t27 -20.5t44.5 -9q62 0 107 63v321h90v-449zM145 524h-41q1 64 25.5 89.5t54.5 25.5q26 0 71 -17q58 -22 68 -22q30 0 36 39h38q-1 -61 -25 -88
t-53 -27t-88 26q-30 13 -53 13q-29 0 -33 -39z" />
    <glyph glyph-name="Umacron" unicode="&#x16a;" horiz-adv-x="708" 
d="M647 682v-387q0 -35 -1.5 -56t-8 -56t-23.5 -64.5t-44 -53.5q-84 -74 -215 -74q-79 0 -148.5 29t-107.5 90q-38 60 -38 185v387h98v-387q0 -69 8.5 -101.5t34.5 -58.5q55 -57 153 -57q127 0 176 90q19 35 19 127v387h97zM519 829v-79h-330v79h330z" />
    <glyph glyph-name="umacron" unicode="&#x16b;" 
d="M438 0h-90v57q-60 -66 -136 -66q-31 0 -67 15.5t-60 56.5q-25 39 -25 130v256h90v-256q0 -21 0.5 -33.5t5.5 -33t13.5 -32t27 -20.5t44.5 -9q62 0 107 63v321h90v-449zM416 618v-73h-331v73h331z" />
    <glyph glyph-name="Ubreve" unicode="&#x16c;" horiz-adv-x="708" 
d="M647 682v-387q0 -35 -1.5 -56t-8 -56t-23.5 -64.5t-44 -53.5q-84 -74 -215 -74q-79 0 -148.5 29t-107.5 90q-38 60 -38 185v387h98v-387q0 -69 8.5 -101.5t34.5 -58.5q55 -57 153 -57q127 0 176 90q19 35 19 127v387h97zM188 871h78q20 -62 92 -62q40 0 58 17t27 45h78
q-13 -76 -61 -109t-105 -33q-53 0 -104.5 36t-62.5 106z" />
    <glyph glyph-name="ubreve" unicode="&#x16d;" 
d="M438 0h-90v57q-60 -66 -136 -66q-31 0 -67 15.5t-60 56.5q-25 39 -25 130v256h90v-256q0 -21 0.5 -33.5t5.5 -33t13.5 -32t27 -20.5t44.5 -9q62 0 107 63v321h90v-449zM109 635h67q16 -62 76 -62q30 0 46 13.5t26 48.5h68q-7 -58 -46.5 -93.5t-95.5 -35.5t-93 34t-48 95z
" />
    <glyph glyph-name="Uring" unicode="&#x16e;" horiz-adv-x="708" 
d="M647 682v-387q0 -35 -1.5 -56t-8 -56t-23.5 -64.5t-44 -53.5q-84 -74 -215 -74q-79 0 -148.5 29t-107.5 90q-38 60 -38 185v387h98v-387q0 -69 8.5 -101.5t34.5 -58.5q55 -57 153 -57q127 0 176 90q19 35 19 127v387h97zM355 931q45 0 73 -31.5t28 -69.5q0 -41 -28 -71
t-73 -30q-44 0 -72.5 30t-28.5 71q0 42 29.5 71.5t71.5 29.5zM355 775q23 0 39 16.5t16 38.5t-16 38.5t-39 16.5t-39 -16.5t-16 -38.5t16 -38.5t39 -16.5z" />
    <glyph glyph-name="uring" unicode="&#x16f;" 
d="M438 0h-90v57q-60 -66 -136 -66q-31 0 -67 15.5t-60 56.5q-25 39 -25 130v256h90v-256q0 -21 0.5 -33.5t5.5 -33t13.5 -32t27 -20.5t44.5 -9q62 0 107 63v321h90v-449zM252 691q35 0 63 -26t28 -66q0 -39 -27 -66t-66 -27q-38 0 -65 26.5t-27 65.5q0 40 28.5 66.5
t65.5 26.5zM249 651q-25 0 -40 -14.5t-15 -38.5t16.5 -40.5t40.5 -16.5q23 0 39.5 16.5t16.5 39.5q0 24 -17.5 39t-40.5 15z" />
    <glyph glyph-name="Uhungarumlaut" unicode="&#x170;" horiz-adv-x="708" 
d="M647 682v-387q0 -35 -1.5 -56t-8 -56t-23.5 -64.5t-44 -53.5q-84 -74 -215 -74q-79 0 -148.5 29t-107.5 90q-38 60 -38 185v387h98v-387q0 -69 8.5 -101.5t34.5 -58.5q55 -57 153 -57q127 0 176 90q19 35 19 127v387h97zM417 879l-125 -150h-44l44 150h125zM581 879
l-125 -150h-44l44 150h125z" />
    <glyph glyph-name="uhungarumlaut" unicode="&#x171;" 
d="M438 0h-90v57q-60 -66 -136 -66q-31 0 -67 15.5t-60 56.5q-25 39 -25 130v256h90v-256q0 -21 0.5 -33.5t5.5 -33t13.5 -32t27 -20.5t44.5 -9q62 0 107 63v321h90v-449zM476 652l-111 -146h-55l66 146h100zM315 652l-111 -146h-54l65 146h100z" />
    <glyph glyph-name="Uogonek" unicode="&#x172;" horiz-adv-x="708" 
d="M61 295v387h98v-387q0 -69 8.5 -101.5t34.5 -58.5q55 -57 153 -57q127 0 176 90q19 35 19 127v387h97v-387q0 -35 -1.5 -56t-8 -56t-23.5 -64.5t-44 -53.5q-71 -62 -183 -73q-26 -38 -26 -60q0 -20 16.5 -35t38.5 -15t54 12v-74q-36 -17 -75 -17q-52 0 -85.5 28t-33.5 74
t35 88q-74 8 -128.5 39.5t-83.5 77.5q-38 60 -38 185z" />
    <glyph glyph-name="uogonek" unicode="&#x173;" 
d="M486 -96v-67q-35 -15 -68 -15q-45 0 -76 25t-31 68q0 44 37 85v57q-60 -66 -136 -66q-31 0 -67 15.5t-60 56.5q-25 39 -25 130v256h90v-256q0 -21 0.5 -33.5t5.5 -33t13.5 -32t27 -20.5t44.5 -9q62 0 107 63v321h90v-449h-22q-28 -38 -28 -61q0 -20 14 -33t32 -13
q14 0 52 11z" />
    <glyph glyph-name="Wcircumflex" unicode="&#x174;" horiz-adv-x="1042" 
d="M1041 682l-276 -686h-21l-223 556l-225 -556h-21l-275 686h98l188 -470l189 470h93l190 -470l186 470h97zM688 729h-62l-104 95l-105 -95h-61l94 157h142z" />
    <glyph glyph-name="wcircumflex" unicode="&#x175;" horiz-adv-x="719" 
d="M719 449l-198 -458h-28l-133 314l-131 -314h-29l-200 458h95l118 -272l114 272h66l114 -272l117 272h95zM405 657l94 -151h-55l-87 86l-83 -86h-53l91 151h93z" />
    <glyph glyph-name="Ycircumflex" unicode="&#x176;" horiz-adv-x="604" 
d="M604 682l-252 -321v-361h-100v361l-252 321h118l183 -235l185 235h118zM465 729h-62l-104 95l-105 -95h-61l94 157h142z" />
    <glyph glyph-name="ycircumflex" unicode="&#x177;" horiz-adv-x="437" 
d="M438 449l-318 -679h-99l153 326l-174 353h101l121 -253l116 253h100zM269 657l94 -151h-55l-87 86l-83 -86h-53l91 151h93z" />
    <glyph glyph-name="Ydieresis" unicode="&#x178;" horiz-adv-x="604" 
d="M604 682l-252 -321v-361h-100v361l-252 321h118l183 -235l185 235h118zM406 860q22 0 37.5 -15.5t15.5 -37.5t-15.5 -37.5t-37.5 -15.5t-37.5 15.5t-15.5 37.5t15.5 37.5t37.5 15.5zM200 860q22 0 37.5 -15.5t15.5 -37.5t-15.5 -37.5t-37.5 -15.5t-37.5 15.5t-15.5 37.5
t15.5 37.5t37.5 15.5z" />
    <glyph glyph-name="Zacute" unicode="&#x179;" horiz-adv-x="646" 
d="M628 682l-436 -596h436v-86h-616l437 596h-409v86h588zM324 879h143l-164 -150h-52z" />
    <glyph glyph-name="zacute" unicode="&#x17a;" horiz-adv-x="417" 
d="M405 449l-238 -367h238v-82h-394l236 366h-226v83h384zM309 653l-110 -147h-55l66 147h99z" />
    <glyph glyph-name="Zdotaccent" unicode="&#x17b;" horiz-adv-x="646" 
d="M628 682l-436 -596h436v-86h-616l437 596h-409v86h588zM324 860q22 0 37.5 -15.5t15.5 -37.5t-15.5 -37.5t-37.5 -15.5t-37.5 15.5t-15.5 37.5t15.5 37.5t37.5 15.5z" />
    <glyph glyph-name="zdotaccent" unicode="&#x17c;" horiz-adv-x="417" 
d="M405 449l-238 -367h238v-82h-394l236 366h-226v83h384zM209 628q19 0 32.5 -13.5t13.5 -32.5t-13.5 -32.5t-32.5 -13.5t-32.5 13.5t-13.5 32.5t13.5 32.5t32.5 13.5z" />
    <glyph glyph-name="Zcaron" unicode="&#x17d;" horiz-adv-x="646" 
d="M628 682l-436 -596h436v-86h-616l437 596h-409v86h588zM157 886h62l104 -95l105 95h61l-94 -157h-142z" />
    <glyph glyph-name="zcaron" unicode="&#x17e;" horiz-adv-x="417" 
d="M405 449l-238 -367h238v-82h-394l236 366h-226v83h384zM366 657l-111 -151h-92l-109 151h55l101 -85l100 85h56z" />
    <glyph glyph-name="florin" unicode="&#x192;" horiz-adv-x="552" 
d="M-12 -198l17 76q51 -11 75 -11q17 0 29 6t18.5 18.5t9 22.5t5.5 28l86 508h-98l12 68h98l12 66q6 32 11.5 50.5t19.5 44t41.5 38t67.5 12.5q34 0 104 -19l-18 -75q-48 12 -75 12q-32 0 -43.5 -17t-20.5 -61l-9 -51h99l-12 -68h-100l-93 -533q-11 -65 -38.5 -96t-86.5 -31
q-49 0 -111 12z" />
    <glyph glyph-name="AEacute" unicode="&#x1fc;" horiz-adv-x="896" 
d="M851 682v-87h-280v-206h271v-88h-271v-213h291v-88h-389v301h-186l-178 -301h-107l404 682h445zM473 389v227l-135 -227h135zM649 879h143l-164 -150h-52z" />
    <glyph glyph-name="aeacute" unicode="&#x1fd;" horiz-adv-x="667" 
d="M628 126v-87q-22 -15 -38 -23.5t-47 -16.5t-68 -8q-54 0 -94.5 23t-56.5 47q-88 -70 -168 -70q-59 0 -90 34t-31 81q0 62 63 102q41 25 102 42l62 19v14q0 18 -1.5 29t-7.5 28t-23 26t-43 9q-76 0 -142 -74v107q69 50 144 50q89 0 135 -58q20 17 33 26.5t41.5 20.5
t58.5 11q81 0 126 -56.5t45 -143.5v-14h-277q3 -86 43 -132q36 -40 98 -40q64 0 136 54zM362 301h177q-4 28 -16 46t-28.5 24.5t-24.5 8t-16 1.5q-67 0 -92 -80zM262 79v145l-48 -19q-51 -20 -71 -39t-20 -43q0 -26 17.5 -48.5t46.5 -22.5q26 0 75 27zM434 653l-110 -147
h-55l66 147h99z" />
    <glyph glyph-name="Oslashacute" unicode="&#x1fe;" horiz-adv-x="823" 
d="M717 653l-46 -56q45 -41 76 -106.5t31 -147.5q0 -149 -103.5 -250.5t-262.5 -101.5q-126 0 -212 58l-49 -53l-47 33l47 58q-47 43 -76.5 108.5t-29.5 142.5q0 146 101 249.5t266 103.5q110 0 211 -57l48 59zM605 523l-342 -400q70 -40 148 -40q119 0 192.5 75.5
t73.5 185.5q0 107 -72 179zM216 160l343 401q-67 39 -146 39q-64 0 -116 -22.5t-84 -60t-49.5 -82.5t-17.5 -93q0 -69 31 -128q14 -26 39 -54zM412 879h143l-164 -150h-52z" />
    <glyph glyph-name="oslashacute" unicode="&#x1ff;" horiz-adv-x="552" 
d="M460 473l33 -30l-44 -52q68 -79 68 -169q0 -100 -69.5 -165.5t-177.5 -65.5q-73 0 -132 37l-56 -65l-33 30l54 63q-68 70 -68 168q0 95 65.5 164.5t174.5 69.5q79 0 139 -40zM393 327l-200 -234q35 -25 82 -25q61 0 108.5 42.5t47.5 112.5q0 56 -38 104zM159 121l199 233
q-38 23 -82 23q-69 0 -112 -46t-43 -110q0 -58 38 -100zM377 653l-110 -147h-55l66 147h99z" />
    <glyph glyph-name="uni0218" unicode="&#x218;" horiz-adv-x="458" 
d="M399 643v-111q-74 71 -160 71q-49 0 -78.5 -23t-29.5 -56q0 -41 31.5 -68t138.5 -90q56 -33 88 -76q37 -48 37 -113q0 -81 -54 -133.5t-144 -52.5q-101 0 -184 63v124q80 -100 184 -100q41 0 73.5 24.5t32.5 65.5q0 65 -90 118q-88 53 -118 74t-51 48q-34 44 -34 102
q0 79 55 130t146 51q84 0 157 -48zM137 -227v61q24 -2 43 -2q69 0 69 31q0 12 -7.5 18.5t-23.5 8.5t-26.5 2t-30.5 -1l11 60h28q17 0 33.5 -2t46 -8.5t47.5 -25.5t18 -47q0 -42 -38 -71q-38 -27 -128 -27q-25 0 -42 3z" />
    <glyph glyph-name="uni0219" unicode="&#x219;" horiz-adv-x="385" 
d="M323 421v-88q-77 48 -130 48q-29 0 -43 -12.5t-14 -27.5q0 -19 18 -33.5t70 -43.5q6 -3 9 -5q112 -61 112 -141q0 -18 -7.5 -38t-23.5 -41t-48 -34.5t-75 -13.5q-66 0 -150 41v96q86 -59 143 -59q24 0 46 12.5t22 33.5q0 22 -15.5 35.5t-53.5 34.5q-69 38 -104 71.5
t-35 84.5q0 50 39.5 83.5t103.5 33.5q65 0 136 -37zM112 -206v55q22 -2 30 -2q53 0 53 27q0 14 -13.5 21t-26.5 6t-18 -1l19 51q112 0 112 -71q0 -46 -39 -71q-28 -18 -85 -18q-22 0 -32 3z" />
    <glyph glyph-name="uni021A" unicode="&#x21a;" horiz-adv-x="604" 
d="M587 682v-86h-238v-596h-98v596h-234v86h570zM210 -227v61q24 -2 43 -2q69 0 69 31q0 12 -7.5 18.5t-23.5 8.5t-26.5 2t-30.5 -1l11 60h28q17 0 33.5 -2t46 -8.5t47.5 -25.5t18 -47q0 -42 -38 -71q-38 -27 -128 -27q-26 0 -42 3z" />
    <glyph glyph-name="uni021B" unicode="&#x21b;" horiz-adv-x="347" 
d="M167 542v-93h142v-80h-142v-196q1 -43 3.5 -56.5t12.5 -25.5q18 -19 48 -19q49 0 101 32v-83q-55 -30 -115 -30q-29 0 -62.5 13.5t-54.5 43.5q-22 33 -22 122v199h-78v9zM126 -206v55q22 -2 30 -2q53 0 53 27q0 14 -13.5 21t-26.5 6t-18 -1l19 51q112 0 112 -71
q0 -46 -39 -71q-28 -18 -85 -18q-22 0 -32 3z" />
    <glyph glyph-name="circumflex" unicode="&#x2c6;" horiz-adv-x="333" 
d="M212 657l94 -151h-55l-87 86l-83 -86h-53l91 151h93z" />
    <glyph glyph-name="caron" unicode="&#x2c7;" horiz-adv-x="333" 
d="M324 657l-111 -151h-92l-109 151h55l101 -85l100 85h56z" />
    <glyph glyph-name="uni02C9" unicode="&#x2c9;" horiz-adv-x="333" 
d="M332 618v-73h-331v73h331z" />
    <glyph glyph-name="breve" unicode="&#x2d8;" horiz-adv-x="333" 
d="M25 635h67q16 -62 76 -62q30 0 46 13.5t26 48.5h68q-7 -58 -46.5 -93.5t-95.5 -35.5t-93 34t-48 95z" />
    <glyph glyph-name="dotaccent" unicode="&#x2d9;" horiz-adv-x="333" 
d="M167 628q19 0 32.5 -13.5t13.5 -32.5t-13.5 -32.5t-32.5 -13.5t-32.5 13.5t-13.5 32.5t13.5 32.5t32.5 13.5z" />
    <glyph glyph-name="ring" unicode="&#x2da;" horiz-adv-x="333" 
d="M168 691q35 0 63 -26t28 -66q0 -39 -27 -66t-66 -27q-38 0 -65 26.5t-27 65.5q0 40 28.5 66.5t65.5 26.5zM165 651q-25 0 -40 -14.5t-15 -38.5t16.5 -40.5t40.5 -16.5q23 0 39.5 16.5t16.5 39.5q0 24 -17.5 39t-40.5 15z" />
    <glyph glyph-name="ogonek" unicode="&#x2db;" horiz-adv-x="333" 
d="M266 -96v-67q-35 -15 -67 -15q-46 0 -76.5 25.5t-30.5 66.5q0 49 44 95h67q-35 -45 -35 -71q0 -20 15 -32.5t34 -12.5t49 11z" />
    <glyph glyph-name="tilde" unicode="&#x2dc;" horiz-adv-x="333" 
d="M61 524h-41q1 64 25.5 89.5t54.5 25.5q26 0 71 -17q58 -22 68 -22q30 0 36 39h38q-1 -61 -25 -88t-53 -27t-88 26q-30 13 -53 13q-29 0 -33 -39z" />
    <glyph glyph-name="hungarumlaut" unicode="&#x2dd;" horiz-adv-x="333" 
d="M372 652l-111 -146h-55l66 146h100zM211 652l-111 -146h-54l65 146h100z" />
    <glyph glyph-name="uni03A9" unicode="&#x3a9;" horiz-adv-x="670" 
d="M613 0h-223v81q119 121 119 292q0 114 -47 183.5t-131 69.5q-85 0 -134.5 -71t-49.5 -183q0 -174 121 -291v-81h-223v81h137q-139 127 -139 310q0 139 81 230t209 91q131 0 206 -87.5t75 -231.5q0 -188 -140 -312h139v-81z" />
    <glyph glyph-name="uni03BC" unicode="&#x3bc;" horiz-adv-x="552" 
d="M371 449h89v-313l-1 -27q3 -29 26 -29q20 0 46 15v-70q-76 -34 -116 -34q-18 0 -28.5 9t-12.5 17.5t-3 21.5q-15 -15 -24 -23t-29 -17t-41 -9q-23 0 -42.5 9.5t-31 20t-34.5 34.5v-283h-88v678h88v-326q47 -59 102 -59q11 0 25 4t32.5 14.5t31 35t11.5 58.5v273z" />
    <glyph glyph-name="pi" unicode="&#x3c0;" horiz-adv-x="588" 
d="M616 11q-28 -19 -81 -19q-69 0 -99 42t-30 104v280h-157v-278q0 -83 -15 -140h-112q16 61 16 146v272q-45 0 -86 -23q-5 12 -14.5 36t-14.5 36q54 33 149 33h437v-82h-92v-265q0 -79 50 -79q11 0 29 8q4 -13 10.5 -37t9.5 -34z" />
    <glyph glyph-name="Wgrave" unicode="&#x1e80;" horiz-adv-x="1042" 
d="M1041 682l-276 -686h-21l-223 556l-225 -556h-21l-275 686h98l188 -470l189 470h93l190 -470l186 470h97zM524 879l73 -150h-52l-164 150h143z" />
    <glyph glyph-name="wgrave" unicode="&#x1e81;" horiz-adv-x="719" 
d="M719 449l-198 -458h-28l-133 314l-131 -314h-29l-200 458h95l118 -272l114 272h66l114 -272l117 272h95zM353 653l67 -147h-55l-112 147h100z" />
    <glyph glyph-name="Wacute" unicode="&#x1e82;" horiz-adv-x="1042" 
d="M1041 682l-276 -686h-21l-223 556l-225 -556h-21l-275 686h98l188 -470l189 470h93l190 -470l186 470h97zM522 879h143l-164 -150h-52z" />
    <glyph glyph-name="wacute" unicode="&#x1e83;" horiz-adv-x="719" 
d="M719 449l-198 -458h-28l-133 314l-131 -314h-29l-200 458h95l118 -272l114 272h66l114 -272l117 272h95zM460 653l-110 -147h-55l66 147h99z" />
    <glyph glyph-name="Wdieresis" unicode="&#x1e84;" horiz-adv-x="1042" 
d="M1041 682l-276 -686h-21l-223 556l-225 -556h-21l-275 686h98l188 -470l189 470h93l190 -470l186 470h97zM625 860q22 0 37.5 -15.5t15.5 -37.5t-15.5 -37.5t-37.5 -15.5t-37.5 15.5t-15.5 37.5t15.5 37.5t37.5 15.5zM419 860q22 0 37.5 -15.5t15.5 -37.5t-15.5 -37.5
t-37.5 -15.5t-37.5 15.5t-15.5 37.5t15.5 37.5t37.5 15.5z" />
    <glyph glyph-name="wdieresis" unicode="&#x1e85;" horiz-adv-x="719" 
d="M719 449l-198 -458h-28l-133 314l-131 -314h-29l-200 458h95l118 -272l114 272h66l114 -272l117 272h95zM266 628q19 0 32.5 -13.5t13.5 -32.5t-13.5 -32.5t-32.5 -13.5t-32.5 13.5t-13.5 32.5t13.5 32.5t32.5 13.5zM454 628q19 0 32.5 -13.5t13.5 -32.5t-13.5 -32.5
t-32.5 -13.5t-32.5 13.5t-13.5 32.5t13.5 32.5t32.5 13.5z" />
    <glyph glyph-name="Ygrave" unicode="&#x1ef2;" horiz-adv-x="604" 
d="M604 682l-252 -321v-361h-100v361l-252 321h118l183 -235l185 235h118zM275 879l73 -150h-52l-164 150h143z" />
    <glyph glyph-name="ygrave" unicode="&#x1ef3;" horiz-adv-x="437" 
d="M438 449l-318 -679h-99l153 326l-174 353h101l121 -253l116 253h100zM212 653l67 -147h-55l-112 147h100z" />
    <glyph glyph-name="endash" unicode="&#x2013;" 
d="M509 282v-63h-518v63h518z" />
    <glyph glyph-name="emdash" unicode="&#x2014;" horiz-adv-x="1000" 
d="M1009 285v-64h-1018v64h1018z" />
    <glyph glyph-name="quoteleft" unicode="&#x2018;" horiz-adv-x="219" 
d="M171 691v-18q-23 -23 -31.5 -45.5t-9.5 -55.5q52 -15 52 -64q0 -26 -18 -45.5t-43 -19.5q-31 0 -49 28t-18 66q0 8 0.5 17t7 31t17.5 40t35 37t57 29z" />
    <glyph glyph-name="quoteright" unicode="&#x2019;" horiz-adv-x="219" 
d="M49 443v19q23 22 31 44.5t10 55.5q-52 16 -52 64q0 26 17.5 45.5t42.5 19.5q31 0 49.5 -27.5t18.5 -66.5q0 -11 -2.5 -24.5t-11.5 -41t-36 -51.5t-67 -37z" />
    <glyph glyph-name="quotesinglbase" unicode="&#x201a;" horiz-adv-x="219" 
d="M49 -119v18q38 38 41 101q-52 16 -52 64q0 26 18 45.5t42 19.5q31 0 49.5 -28t18.5 -66q0 -11 -2.5 -24.5t-11.5 -41t-36 -51.5t-67 -37z" />
    <glyph glyph-name="quotedblleft" unicode="&#x201c;" horiz-adv-x="427" 
d="M375 691v-18q-24 -22 -32 -44.5t-10 -56.5q52 -15 52 -64q0 -26 -17.5 -45.5t-42.5 -19.5q-31 0 -49.5 28t-18.5 66q0 8 0.5 17t7 31t17.5 40t35.5 37t57.5 29zM150 691v-18q-23 -22 -31 -44.5t-10 -56.5q52 -15 52 -64q0 -26 -17.5 -45.5t-42.5 -19.5q-31 0 -49.5 28
t-18.5 66q0 8 0.5 17t7 31t17.5 40t35 37t57 29z" />
    <glyph glyph-name="quotedblright" unicode="&#x201d;" horiz-adv-x="427" 
d="M49 443v19q24 22 32 44.5t10 55.5q-52 16 -52 64q0 27 17.5 46t42.5 19q31 0 49.5 -27.5t18.5 -66.5q0 -11 -2.5 -24.5t-11.5 -41t-36 -51.5t-68 -37zM274 443v19q23 22 31 44.5t10 55.5q-52 16 -52 64q0 27 17.5 46t42.5 19q31 0 49.5 -27.5t18.5 -66.5
q0 -11 -2.5 -24.5t-11.5 -41t-36 -51.5t-67 -37z" />
    <glyph glyph-name="quotedblbase" unicode="&#x201e;" horiz-adv-x="448" 
d="M60 -119v18q23 23 31.5 46t9.5 55q-52 16 -52 64q0 26 18 45.5t43 19.5q31 0 49 -28t18 -66q0 -11 -2.5 -24.5t-11.5 -41t-36 -51.5t-67 -37zM284 -119v18q23 23 31.5 46t9.5 55q-51 16 -51 64q0 26 17.5 45.5t42.5 19.5q31 0 49 -28t18 -66q0 -11 -2.5 -24.5t-11.5 -41
t-36 -51.5t-67 -37z" />
    <glyph glyph-name="dagger" unicode="&#x2020;" horiz-adv-x="490" 
d="M264 376q1 -14 7 -82t11 -128.5t7 -79.5q6 -96 6 -171q0 -30 -1.5 -50.5t-6 -44.5t-16 -37t-28.5 -13q-18 0 -31 16.5t-16 38.5q-5 33 -5 98q0 109 34 453q-85 -26 -130 -26q-23 0 -45.5 10t-22.5 33q0 19 16.5 33t50.5 14q65 0 131 -26q-28 142 -28 186q0 48 14.5 69.5
t35.5 21.5q47 0 47 -88q0 -37 -6 -73q-7 -43 -24 -116q68 26 130 26q37 0 53 -15t16 -31q0 -18 -18.5 -31t-47.5 -13q-41 0 -133 26z" />
    <glyph glyph-name="daggerdbl" unicode="&#x2021;" horiz-adv-x="490" 
d="M263 440q84 25 133 25q30 0 48 -13t18 -32q0 -20 -19.5 -32.5t-49.5 -12.5q-49 0 -130 26q2 -39 7 -72q11 -79 11 -100q0 -16 -14 -111q-4 -24 -4 -56q95 25 135 25q10 0 23 -2.5t27.5 -13.5t14.5 -28q0 -19 -16.5 -30.5t-28.5 -13t-22 -1.5q-61 0 -133 27
q7 -20 18.5 -75.5t11.5 -94.5q0 -23 -4.5 -40.5t-10.5 -25.5t-14.5 -13t-13 -5.5t-8.5 -0.5q-17 0 -31 20t-14 62q0 60 29 173q-81 -28 -135 -28q-18 0 -31 5t-19 10.5t-9.5 13.5t-4 11.5t-0.5 5.5q0 19 19.5 31.5t47.5 12.5q47 0 132 -25q0 3 -1 10t-2 18t-2 30
q-11 87 -11 111q0 10 6 55.5t6 51.5q5 44 4 63q-93 -26 -133 -26q-33 0 -49.5 13.5t-16.5 28.5q0 3 0.5 7t4.5 12t11 14t21.5 10.5t33.5 4.5q48 0 128 -25q-29 134 -29 170q0 39 14 60t35 21q18 0 33 -19.5t15 -63.5q0 -45 -31 -168z" />
    <glyph glyph-name="bullet" unicode="&#x2022;" horiz-adv-x="354" 
d="M53 341q0 52 36.5 88t87.5 36t87.5 -36.5t36.5 -87.5q0 -52 -36.5 -88t-87.5 -36t-87.5 36.5t-36.5 87.5z" />
    <glyph glyph-name="ellipsis" unicode="&#x2026;" horiz-adv-x="1000" 
d="M166 111q25 0 42.5 -17.5t17.5 -42.5t-17.5 -42.5t-42.5 -17.5t-42.5 17.5t-17.5 42.5t17.5 42.5t42.5 17.5zM500 111q25 0 42.5 -17.5t17.5 -42.5t-17.5 -42.5t-42.5 -17.5t-42.5 17.5t-17.5 42.5t17.5 42.5t42.5 17.5zM834 -9q-25 0 -42.5 17.5t-17.5 42.5t17.5 42.5
t42.5 17.5t42.5 -17.5t17.5 -42.5t-17.5 -42.5t-42.5 -17.5z" />
    <glyph glyph-name="perthousand" unicode="&#x2030;" horiz-adv-x="1010" 
d="M486 297q63 0 107.5 -44.5t44.5 -107.5t-44.5 -107.5t-107.5 -44.5t-107.5 44.5t-44.5 107.5t44.5 107.5t107.5 44.5zM486 223q-33 0 -56 -22.5t-23 -55.5t23.5 -56t55.5 -23q33 0 56 23t23 56t-23 55.5t-56 22.5zM165 690q63 0 107.5 -45t44.5 -108q0 -62 -44.5 -107
t-107.5 -45t-107.5 44.5t-44.5 107.5q0 64 44.5 108.5t107.5 44.5zM164 616q-32 0 -55.5 -23t-23.5 -56q0 -32 23 -55.5t56 -23.5q32 0 55.5 23.5t23.5 55.5q0 33 -23.5 56t-55.5 23zM846 297q62 0 107 -44.5t45 -107.5t-45 -107.5t-107 -44.5q-63 0 -107.5 44.5
t-44.5 107.5t44.5 107.5t107.5 44.5zM846 223q-33 0 -56 -22.5t-23 -55.5t23 -56t56 -23q32 0 55 23t23 56t-23 55.5t-55 22.5zM586 692l-449 -701h-76l450 701h75z" />
    <glyph glyph-name="guilsinglleft" unicode="&#x2039;" horiz-adv-x="312" 
d="M271 0h-88l-147 225l147 224h88l-148 -224z" />
    <glyph glyph-name="guilsinglright" unicode="&#x203a;" horiz-adv-x="312" 
d="M42 449h87l148 -225l-148 -224h-87l148 224z" />
    <glyph glyph-name="fraction" unicode="&#x2044;" horiz-adv-x="198" 
d="M360 691l-455 -718h-67l454 718h68z" />
    <glyph glyph-name="Euro" unicode="&#x20ac;" horiz-adv-x="610" 
d="M208 444h290l-14 -76h-288q-2 -22 0 -54h278l-14 -76h-252q22 -81 71 -119t113 -38q85 0 169 67v-107q-74 -50 -172 -50q-61 0 -110.5 20.5t-78 48t-50 65t-30 63t-13.5 50.5h-79l14 76h56q-1 19 1 54h-71l13 76h69q9 41 29 81.5t53 79t85.5 62.5t116.5 24q75 0 171 -33
l-19 -93q-89 36 -155 36q-136 0 -183 -157z" />
    <glyph glyph-name="afii61289" unicode="&#x2113;" horiz-adv-x="464" 
d="M380 46q-58 -60 -124 -60q-53 0 -86 33q-39 39 -39 125v96q-9 -10 -26.5 -29.5t-26.5 -29.5q-5 8 -16.5 23t-17.5 22q15 16 44 47.5t43 47.5v224q0 91 35.5 137t93.5 46q53 0 77.5 -34t24.5 -77q0 -119 -111 -263q-5 -6 -29 -37v-168q0 -92 56 -92q34 0 73 43
q20 -36 29 -54zM303 606q0 50 -35 50q-46 0 -46 -101v-150q10 12 14 20q67 96 67 181z" />
    <glyph glyph-name="trademark" unicode="&#x2122;" horiz-adv-x="1000" 
d="M240 285v338h-130v59h325v-59h-129v-338h-66zM480 285v397h98l100 -318l97 318h96v-397h-61v333l-102 -333h-60l-107 338v-338h-61z" />
    <glyph glyph-name="Omega" unicode="&#x2126;" horiz-adv-x="670" 
d="M613 0h-223v81q119 121 119 292q0 114 -47 183.5t-131 69.5q-85 0 -134.5 -71t-49.5 -183q0 -174 121 -291v-81h-223v81h137q-139 127 -139 310q0 139 81 230t209 91q131 0 206 -87.5t75 -231.5q0 -188 -140 -312h139v-81z" />
    <glyph glyph-name="estimated" unicode="&#x212e;" horiz-adv-x="637" 
d="M577 272h-420v-187q60 -60 149 -60q128 0 200 123q6 -4 17.5 -11t17.5 -10q-46 -70 -101 -104.5t-134 -34.5q-120 0 -193 81t-73 203t72.5 203t193.5 81q123 0 194.5 -79.5t76.5 -204.5zM456 309v148q-62 64 -151 64q-88 0 -148 -62v-150h299z" />
    <glyph glyph-name="onethird" unicode="&#x2153;" horiz-adv-x="844" 
d="M195 687v-355h-69v355h69zM671 691l-455 -718h-67l455 718h67zM568 17v63q48 -29 94 -29q9 0 19.5 2t24.5 14.5t14 34.5q0 24 -15 37t-29.5 15t-39.5 3v52q13 0 20 0.5t20.5 3t21 7.5t13.5 15t6 24q0 19 -15.5 34t-47.5 15t-76 -21v56q41 17 82 17q51 0 88 -23.5
t37 -73.5q0 -51 -47 -75q54 -23 54 -84q0 -48 -38 -78.5t-92 -30.5q-44 0 -94 22z" />
    <glyph glyph-name="twothirds" unicode="&#x2154;" horiz-adv-x="844" 
d="M294 386v-54h-267v7q68 68 124 139q44 55 44 96q0 33 -20.5 47t-43.5 14q-49 0 -96 -58v78q49 36 103 36q55 0 91 -31t36 -80q0 -24 -9 -48t-29.5 -51.5t-36 -45t-46.5 -49.5h150zM689 691l-455 -718h-67l454 718h68zM568 17v63q48 -29 94 -29q9 0 19.5 2t24.5 14.5
t14 34.5q0 24 -15 37t-29.5 15t-39.5 3v52q13 0 20 0.5t20.5 3t21 7.5t13.5 15t6 24q0 19 -15.5 34t-47.5 15t-76 -21v56q41 17 82 17q51 0 88 -23.5t37 -73.5q0 -51 -47 -75q1 0 2 -1q52 -25 52 -83q0 -48 -38 -78.5t-92 -30.5q-44 0 -94 22z" />
    <glyph glyph-name="oneeighth" unicode="&#x215b;" horiz-adv-x="844" 
d="M764 181q54 -28 54 -82q0 -43 -37.5 -73.5t-96.5 -30.5t-97 31t-38 73q0 53 55 82q-46 33 -46 77q0 43 38 72.5t91 29.5q50 0 87.5 -29t37.5 -73q0 -47 -48 -77zM743 257q0 19 -15 33.5t-43 14.5q-25 0 -41.5 -13t-16.5 -35q0 -24 19.5 -36.5t39.5 -12.5q21 0 39 13
t18 36zM748 102q0 18 -15.5 34.5t-49.5 16.5t-49 -16.5t-15 -35.5q0 -21 16 -36t49 -15q32 0 48 15.5t16 36.5zM195 687v-355h-69v355h69zM677 691l-455 -718h-67l454 718h68z" />
    <glyph glyph-name="threeeighths" unicode="&#x215c;" horiz-adv-x="844" 
d="M764 181q54 -28 54 -82q0 -43 -37.5 -73.5t-96.5 -30.5t-97 31t-38 73q0 53 55 82q-46 33 -46 77q0 43 38 72.5t91 29.5q50 0 87.5 -29t37.5 -73q0 -47 -48 -77zM743 257q0 19 -15 33.5t-43 14.5q-25 0 -41.5 -13t-16.5 -35q0 -24 19.5 -36.5t39.5 -12.5q21 0 39 13
t18 36zM748 102q0 18 -15.5 34.5t-49.5 16.5t-49 -16.5t-15 -35.5q0 -21 16 -36t49 -15q32 0 48 15.5t16 36.5zM45 349v63q48 -29 94 -29q6 0 13 1.5t18.5 5.5t19 15.5t7.5 28.5q0 18 -7 29.5t-22.5 16.5t-25.5 6.5t-29 2.5v52q13 0 20 0.5t20.5 3t21 7.5t13.5 15t6 24
q0 19 -15.5 33.5t-47.5 14.5q-34 0 -76 -20v55q34 17 82 17q51 0 88 -23.5t37 -73.5q0 -51 -47 -75q18 -8 27 -16q27 -24 27 -67q0 -48 -38 -78.5t-92 -30.5q-44 0 -94 22zM680 691l-455 -718h-67l454 718h68z" />
    <glyph glyph-name="fiveeighths" unicode="&#x215d;" horiz-adv-x="844" 
d="M764 181q54 -28 54 -82q0 -43 -37.5 -73.5t-96.5 -30.5t-97 31t-38 73q0 53 55 82q-46 33 -46 77q0 43 38 72.5t91 29.5q50 0 87.5 -29t37.5 -73q0 -47 -48 -77zM743 257q0 19 -15 33.5t-43 14.5q-25 0 -41.5 -13t-16.5 -35q0 -24 19.5 -36.5t39.5 -12.5q21 0 39 13
t18 36zM748 102q0 18 -15.5 34.5t-49.5 16.5t-49 -16.5t-15 -35.5q0 -21 16 -36t49 -15q32 0 48 15.5t16 36.5zM257 687v-51h-126v-82q77 0 111.5 -34.5t34.5 -77.5q0 -49 -38 -82t-102 -33q-45 0 -101 23v61q49 -29 91 -29q33 0 56.5 16.5t23.5 43.5q0 31 -28 46.5
t-64 15.5q-30 0 -49 -8v191h191zM677 691l-455 -718h-67l454 718h68z" />
    <glyph glyph-name="seveneighths" unicode="&#x215e;" horiz-adv-x="844" 
d="M764 181q54 -28 54 -82q0 -43 -37.5 -73.5t-96.5 -30.5t-97 31t-38 73q0 53 55 82q-46 33 -46 77q0 43 38 72.5t91 29.5q50 0 87.5 -29t37.5 -73q0 -47 -48 -77zM743 257q0 19 -15 33.5t-43 14.5q-25 0 -41.5 -13t-16.5 -35q0 -24 19.5 -36.5t39.5 -12.5q21 0 39 13
t18 36zM748 102q0 18 -15.5 34.5t-49.5 16.5t-49 -16.5t-15 -35.5q0 -21 16 -36t49 -15q32 0 48 15.5t16 36.5zM321 691l-186 -364l-62 23l147 284h-172v57h273zM674 691l-455 -718h-67l455 718h67z" />
    <glyph glyph-name="partialdiff" unicode="&#x2202;" horiz-adv-x="537" 
d="M508 482q0 -92 -24 -193q-31 -125 -100 -212t-168 -87q-80 0 -130 52t-50 136q0 141 76.5 229.5t175.5 88.5q41 0 72 -17.5t45 -43.5h2q5 50 5 67q0 76 -32.5 113.5t-90.5 37.5q-45 0 -86 -23q-5 15 -22 67q49 31 120 31q95 0 151 -63t56 -183zM396 352q-23 73 -96 73
q-66 0 -115.5 -75t-49.5 -178q0 -49 22 -77.5t59 -28.5q63 0 111 80t69 206z" />
    <glyph glyph-name="Delta" unicode="&#x2206;" horiz-adv-x="559" 
d="M571 0h-550v45q165 515 210 655h133q35 -109 104 -327.5t103 -327.5v-45zM454 82q-111 361 -145 469l-8 32t-7 27h-3q-3 -13 -13 -57q-25 -79 -73.5 -236t-72.5 -235h322z" />
    <glyph glyph-name="product" unicode="&#x220f;" horiz-adv-x="667" 
d="M593 -230h-100v844h-318v-844h-100v930h518v-930z" />
    <glyph glyph-name="summation" unicode="&#x2211;" horiz-adv-x="589" 
d="M535 -230h-510v49q52 79 148.5 223.5t131.5 196.5q-44 68 -130 203.5t-130 202.5v55h469v-81h-353q146 -224 244 -378q-86 -130 -260 -390h390v-81z" />
    <glyph glyph-name="minus" unicode="&#x2212;" horiz-adv-x="583" 
d="M528 300h-473v82h473v-82z" />
    <glyph glyph-name="uni2215" unicode="&#x2215;" horiz-adv-x="198" 
d="M360 691l-455 -718h-67l454 718h68z" />
    <glyph glyph-name="uni2219" unicode="&#x2219;" horiz-adv-x="260" 
d="M130 400q22 0 38 -16t16 -39t-16 -38.5t-38 -15.5t-38 15.5t-16 38.5t16 39t38 16z" />
    <glyph glyph-name="radical" unicode="&#x221a;" horiz-adv-x="461" 
d="M474 728q-66 -300 -160 -740h-86q-64 176 -118 323q-8 -5 -25 -15.5t-26 -16.5q-22 36 -33 53q19 12 40.5 26t48 31.5t40.5 26.5q19 -52 57 -156.5t58 -157.5q52 246 134 626h70z" />
    <glyph glyph-name="infinity" unicode="&#x221e;" horiz-adv-x="723" 
d="M679 293q0 -70 -45 -117.5t-112 -47.5q-51 0 -94.5 27.5t-70.5 73.5h-2q-69 -101 -161 -101q-66 0 -113 44t-47 119q0 74 46.5 118.5t111.5 44.5q100 0 163 -100h2q25 40 66.5 70t95.5 30q68 0 114 -45.5t46 -115.5zM599 293q0 39 -22.5 65t-63.5 26q-64 0 -120 -92
q49 -94 120 -94q41 0 63.5 27.5t22.5 67.5zM319 292q-54 92 -120 92q-41 0 -63.5 -27t-22.5 -67q0 -39 24.5 -65.5t61.5 -26.5q67 0 120 94z" />
    <glyph glyph-name="integral" unicode="&#x222b;" horiz-adv-x="462" 
d="M383 665q-16 7 -39 7q-71 0 -71 -91v-631q0 -80 -39 -128t-117 -48q-45 0 -71 11l18 72q17 -6 39 -6q71 0 71 90v631q0 81 40.5 129t119.5 48q49 0 69 -13q-4 -13 -10.5 -37t-9.5 -34z" />
    <glyph glyph-name="approxequal" unicode="&#x2248;" horiz-adv-x="583" 
d="M523 421q-57 -86 -134 -86q-54 0 -104 31q-53 32 -88 32q-44 0 -82 -65l-54 61q28 41 59 63.5t75 22.5q52 0 103 -31q53 -32 89 -32q46 0 82 65zM523 198q-56 -86 -134 -86q-54 0 -104 31q-53 32 -88 32q-44 0 -82 -65l-54 61q28 41 59 63.5t75 22.5q52 0 103 -31
q53 -32 89 -32q45 0 82 64z" />
    <glyph glyph-name="notequal" unicode="&#x2260;" horiz-adv-x="583" 
d="M499 144h-233l-52 -117h-89l53 117h-94v82h131l64 142h-195v82h232l56 127h89l-57 -127h95v-82h-132l-64 -142h196v-82z" />
    <glyph glyph-name="lessequal" unicode="&#x2264;" horiz-adv-x="583" 
d="M499 0h-415v82h415v-82zM499 138l-415 186v68l415 186v-87l-306 -132v-2l306 -133v-86z" />
    <glyph glyph-name="greaterequal" unicode="&#x2265;" horiz-adv-x="583" 
d="M499 0h-415v82h415v-82zM499 324l-415 -185v87l306 132v2l-306 132v87l415 -186v-69z" />
    <glyph glyph-name="lozenge" unicode="&#x25ca;" horiz-adv-x="516" 
d="M451 350q-30 -59 -90.5 -175t-91.5 -175h-48q-30 58 -90.5 174.5t-90.5 174.5q30 59 90.5 176t90.5 175h48q30 -59 90.5 -175.5t91.5 -174.5zM376 350q-43 85 -131 255q-21 -43 -64.5 -128t-65.5 -127q86 -170 130 -255q22 43 65.5 127.5t65.5 127.5z" />
    <glyph glyph-name="one.alt" unicode="&#xe000;" 
d="M328 0h-102v523l-130 -107l-38 85l233 190h37v-691z" />
    <glyph glyph-name="zero.fitted" unicode="&#xf639;" 
d="M254 691q93 0 154.5 -97.5t61.5 -250.5q0 -159 -62.5 -255.5t-157.5 -96.5q-97 0 -158.5 95t-61.5 255q0 165 67 257.5t157 92.5zM250 598q-50 0 -86 -62.5t-36 -192.5q0 -142 36.5 -200.5t84.5 -58.5q49 0 86 59t37 197q0 66 -10 116t-24 76t-32.5 42t-31.5 20t-24 4z
" />
    <glyph glyph-name="two.fitted" unicode="&#xf63a;" horiz-adv-x="489" 
d="M459 94v-94h-432v7q176 214 236 314q49 83 49 146q0 67 -37.5 97t-80.5 30q-87 0 -153 -92v124q80 65 165 65q88 0 146 -59t58 -151q0 -47 -14 -92t-49 -99t-62 -89.5t-86 -106.5h260z" />
    <glyph glyph-name="three.fitted" unicode="&#xf63b;" horiz-adv-x="447" 
d="M32 30v106q76 -48 150 -48q44 0 76 26t32 81q0 48 -32.5 80t-109.5 32v90q137 0 137 103q0 40 -29.5 71t-88.5 31q-52 0 -118 -33v93q58 29 130 29q89 0 145.5 -47t56.5 -136q0 -102 -87 -148q51 -17 74.5 -62.5t23.5 -99.5q0 -93 -61.5 -150t-146.5 -57q-77 0 -152 39z
" />
    <glyph glyph-name="four.fitted" unicode="&#xf63c;" 
d="M395 691v-383h76v-84h-76v-224h-95v224h-289v43l344 424h40zM300 308v198l-158 -198h158z" />
    <glyph glyph-name="five.fitted" unicode="&#xf63d;" horiz-adv-x="457" 
d="M386 682v-87h-214v-172q112 6 180 -55t68 -158q0 -93 -61.5 -156t-165.5 -63q-80 0 -161 42v101q73 -48 144 -48q62 0 103.5 35.5t41.5 88.5q0 45 -30 75.5t-63.5 41t-63.5 10.5q-60 0 -81 -10v355h303z" />
    <glyph glyph-name="six.fitted" unicode="&#xf63e;" 
d="M317 691l59 -75q-159 -102 -209 -250q53 28 108 28q78 0 134 -56t56 -141q0 -87 -60 -146.5t-145 -59.5q-35 0 -70 12.5t-69 39t-55.5 77t-21.5 117.5q0 175 128 326q49 58 145 128zM146 265q-4 -24 -4 -52q0 -63 37 -97t82 -34q44 0 76 30.5t32 81.5q0 56 -36 83t-82 27
q-49 0 -105 -39z" />
    <glyph glyph-name="seven.fitted" unicode="&#xf63f;" horiz-adv-x="472" 
d="M469 682l-309 -691l-87 38l250 560h-295v93h441z" />
    <glyph glyph-name="eight.fitted" unicode="&#xf640;" 
d="M373 348q95 -56 95 -161q0 -81 -60 -138.5t-157 -57.5q-96 0 -157.5 58.5t-61.5 138.5q0 73 50 125q17 17 47 35q-16 13 -25.5 22.5t-24.5 29t-23 44.5t-8 55q0 82 61 137t146 55q82 0 142.5 -54.5t60.5 -136.5q0 -93 -85 -152zM361 496q0 40 -28.5 71t-79.5 31
q-46 0 -77.5 -28t-31.5 -73q0 -47 35.5 -75t74.5 -28q40 0 73.5 28t33.5 74zM369 193q0 42 -30.5 74t-89.5 32q-60 0 -89 -33.5t-29 -73.5q0 -43 31.5 -75t89.5 -32q57 0 87 32t30 76z" />
    <glyph glyph-name="nine.fitted" unicode="&#xf641;" 
d="M187 -9l-60 72q23 15 48 34.5t59 52.5t61.5 77.5t39.5 91.5q-48 -29 -109 -29q-82 0 -136 60t-54 138q0 80 57.5 141.5t146.5 61.5q100 0 160.5 -71t60.5 -178q0 -125 -78 -251.5t-196 -199.5zM354 416q5 40 5 53q0 49 -28.5 90t-88.5 41q-56 0 -82.5 -36t-26.5 -76
q0 -49 36.5 -79t77.5 -30q51 0 107 37z" />
    <glyph glyph-name="zero.taboldstyle" unicode="&#xf643;" horiz-adv-x="506" 
d="M255 458q95 0 156.5 -66t61.5 -170q0 -110 -67 -170.5t-154 -60.5q-97 0 -158 67t-61 166q0 98 60 166t162 68zM250 372q-52 0 -90 -38.5t-38 -110.5q0 -71 40.5 -108.5t91.5 -37.5q54 0 92 39t38 109q0 65 -38.5 106t-95.5 41z" />
    <glyph glyph-name="one.taboldstyle" unicode="&#xf644;" horiz-adv-x="506" 
d="M353 0h-89v316l-114 -83l-40 59l211 166h32v-458z" />
    <glyph glyph-name="two.taboldstyle" unicode="&#xf645;" horiz-adv-x="506" 
d="M436 82v-82h-375q15 15 44 42.5t39 38t28 29t31 34.5t27 36q59 82 59 136q0 26 -20 44t-53 18q-12 0 -24.5 -2.5t-24.5 -8t-21 -10.5t-21.5 -14t-18.5 -13.5t-18.5 -15.5t-15.5 -13v98q79 59 151 59q70 0 114.5 -35.5t44.5 -89.5q0 -42 -24.5 -93t-47 -80t-63.5 -78h189z
" />
    <glyph glyph-name="three.taboldstyle" unicode="&#xf646;" horiz-adv-x="506" 
d="M297 367h-231v82h367l-156 -291q70 -15 110.5 -62t40.5 -119q0 -94 -68.5 -152t-150.5 -58q-76 0 -143 43v93q65 -54 143 -54q60 0 93 35t33 85q0 55 -45 91t-140 28z" />
    <glyph glyph-name="four.taboldstyle" unicode="&#xf647;" horiz-adv-x="506" 
d="M313 0h-309v22l379 436h19v-385h95v-73h-95v-234h-89v234zM144 73h169v203z" />
    <glyph glyph-name="five.taboldstyle" unicode="&#xf648;" horiz-adv-x="506" 
d="M448 449v-82h-209l-32 -201q91 2 156 -51t65 -139q0 -87 -63.5 -148t-159.5 -61q-77 0 -161 47v100q68 -62 152 -62q67 0 103 36t36 80q0 60 -63 96t-164 17l58 368h282z" />
    <glyph glyph-name="six.taboldstyle" unicode="&#xf649;" horiz-adv-x="506" 
d="M316 692l55 -71q-68 -44 -115 -96t-64 -85.5t-33 -78.5q62 32 111 32q85 0 139 -57.5t54 -139.5q0 -86 -59.5 -145.5t-145.5 -59.5q-36 0 -71.5 13t-68.5 40t-54 77t-21 116q0 51 13 105t42 114.5t85 122t133 113.5zM141 267q-17 -90 21.5 -140.5t96.5 -50.5q51 0 81 34
t30 83q0 53 -34 84t-87 31q-23 0 -44 -7t-32 -13t-32 -21z" />
    <glyph glyph-name="seven.taboldstyle" unicode="&#xf64a;" horiz-adv-x="506" 
d="M473 449l-309 -682l-83 36l266 564h-294v82h420z" />
    <glyph glyph-name="eight.taboldstyle" unicode="&#xf64b;" horiz-adv-x="506" 
d="M353 349q58 -23 88 -68t30 -97q0 -78 -59.5 -135.5t-157.5 -57.5q-94 0 -156.5 58t-62.5 136q0 108 120 164q-31 20 -48.5 34.5t-36.5 47.5t-19 73q0 78 60 134t147 56q80 0 141.5 -54t61.5 -135q0 -33 -11.5 -61t-32 -47t-33 -28.5t-31.5 -19.5zM372 500
q0 37 -29.5 71.5t-87.5 34.5q-55 0 -85 -33.5t-30 -72.5q0 -40 35 -74t82 -34q49 0 82 32.5t33 75.5zM376 192q0 45 -34 78.5t-90 33.5q-55 0 -88.5 -33t-33.5 -79t32.5 -79.5t92.5 -33.5q57 0 89 33t32 80z" />
    <glyph glyph-name="nine.taboldstyle" unicode="&#xf64c;" horiz-adv-x="506" 
d="M191 -233l-55 71q68 44 114.5 93t64 81.5t32.5 75.5q-62 -32 -111 -32q-85 0 -139 57.5t-54 139.5q0 85 59.5 145t145.5 60q36 0 71.5 -13t68.5 -40t54 -77t21 -116q0 -111 -62.5 -228.5t-209.5 -216.5zM365 182q17 90 -21.5 140.5t-96.5 50.5q-51 0 -81 -34t-30 -83
q0 -53 34 -84t87 -31q23 0 44 7t32 13t32 21z" />
    <glyph glyph-name="zero.denominator" unicode="&#xf655;" horiz-adv-x="323" 
d="M164 359q58 0 95.5 -51.5t37.5 -129.5q0 -83 -38.5 -133t-96.5 -50q-60 0 -98 49t-38 133q0 90 41.5 136t96.5 46zM161 305q-26 0 -46 -31.5t-20 -96.5q0 -68 20 -98t46 -30q30 0 48.5 35.5t18.5 91.5q0 70 -21 99.5t-46 29.5z" />
    <glyph glyph-name="one.denominator" unicode="&#xf656;" horiz-adv-x="323" 
d="M196 355v-355h-69v355h69z" />
    <glyph glyph-name="two.denominator" unicode="&#xf657;" horiz-adv-x="323" 
d="M295 54v-54h-267v7q84 89 124 139q44 56 44 96q0 33 -20.5 47.5t-43.5 14.5q-51 0 -95 -59v79q51 36 102 36q55 0 91 -31.5t36 -79.5q0 -32 -20 -68.5t-40 -60t-61 -66.5h150z" />
    <glyph glyph-name="three.denominator" unicode="&#xf658;" horiz-adv-x="323" 
d="M46 17v63q48 -29 94 -29q9 0 19.5 2t24.5 14.5t14 34.5q0 24 -15 37t-29.5 15t-39.5 3v52q16 0 25.5 1t25 5t23 15t7.5 29t-14.5 33t-49.5 15q-31 0 -75 -21v56q41 17 82 17q51 0 88 -23.5t37 -73.5t-47 -74q54 -21 54 -84q0 -48 -38 -78.5t-92 -30.5q-44 0 -94 22z" />
    <glyph glyph-name="four.denominator" unicode="&#xf659;" horiz-adv-x="323" 
d="M253 360v-196h45v-49h-45v-115h-68v115h-170v25l205 220h33zM185 164v84l-78 -84h78z" />
    <glyph glyph-name="five.denominator" unicode="&#xf65a;" horiz-adv-x="323" 
d="M258 355v-51h-126v-81q78 -1 112 -35.5t34 -77.5q0 -49 -38 -82t-102 -33q-52 0 -100 24v61q49 -30 90 -30q33 0 56.5 16.5t23.5 44.5q0 31 -28 46t-64 15q-29 0 -48 -8v191h190z" />
    <glyph glyph-name="six.denominator" unicode="&#xf65b;" horiz-adv-x="323" 
d="M202 362l41 -45q-92 -51 -121 -119q23 10 52 10q54 0 87 -31t33 -73q0 -45 -37 -77t-90 -32q-51 0 -92 32.5t-41 95.5q0 93 78 171q29 29 90 68zM106 137q-2 -9 -2 -25q0 -32 20.5 -48t43.5 -16q24 0 41 15t17 39q0 29 -20 41t-44 12q-29 0 -56 -18z" />
    <glyph glyph-name="seven.denominator" unicode="&#xf65c;" horiz-adv-x="323" 
d="M310 357l-186 -362l-61 23l147 285h-173v54h273z" />
    <glyph glyph-name="eight.denominator" unicode="&#xf65d;" horiz-adv-x="323" 
d="M242 181q54 -28 54 -82q0 -43 -37.5 -73.5t-96.5 -30.5t-97 31t-38 73q0 53 56 82q-47 34 -47 77t38 72.5t91 29.5q50 0 87.5 -29t37.5 -73q0 -46 -48 -77zM221 256q0 21 -15.5 35t-42.5 14q-24 0 -41 -13t-17 -35q0 -24 19.5 -36.5t39.5 -12.5q22 0 39.5 13t17.5 35z
M226 97q0 56 -65 56q-34 0 -49 -16.5t-15 -35.5q0 -20 16.5 -35.5t48.5 -15.5q25 0 40.5 10.5t19.5 19.5t4 17z" />
    <glyph glyph-name="nine.denominator" unicode="&#xf65e;" horiz-adv-x="323" 
d="M126 -5l-41 43q94 53 121 122q-32 -10 -55 -10q-52 0 -85.5 32t-33.5 72q0 42 36 75t91 33q63 0 99.5 -38.5t36.5 -90.5q0 -65 -46 -131t-123 -107zM220 219q3 21 3 25q0 24 -15 44t-48 20q-31 0 -45 -17.5t-14 -35.5q0 -25 19.5 -39t42.5 -14q28 0 57 17z" />
    <glyph glyph-name="zero.numerator" unicode="&#xf661;" horiz-adv-x="323" 
d="M164 691q57 0 95 -50t38 -131q0 -83 -38.5 -133t-96.5 -50q-60 0 -98 49t-38 133q0 94 43 138t95 44zM161 637q-26 0 -46 -31.5t-20 -96.5q0 -68 20 -98t46 -30q30 0 48.5 35.5t18.5 91.5q0 70 -21 99.5t-46 29.5z" />
    <glyph glyph-name="one.numerator" unicode="&#xf662;" horiz-adv-x="323" 
d="M196 687v-355h-69v355h69z" />
    <glyph glyph-name="two.numerator" unicode="&#xf663;" horiz-adv-x="323" 
d="M295 386v-54h-267v7q68 68 124 139q44 55 44 96q0 33 -20.5 47t-43.5 14q-52 0 -95 -58v78q46 36 102 36q55 0 91 -31t36 -80q0 -24 -9 -48t-29.5 -51.5t-36 -45t-46.5 -49.5h150z" />
    <glyph glyph-name="three.numerator" unicode="&#xf664;" horiz-adv-x="323" 
d="M46 349v63q48 -29 94 -29q6 0 13 1.5t18.5 5.5t19 15.5t7.5 28.5q0 18 -7 29.5t-22.5 16.5t-25.5 6.5t-29 2.5v52q16 0 26 1t25 5t22.5 15t7.5 29q0 19 -15.5 33.5t-47.5 14.5t-76 -20v55q34 17 82 17q51 0 88 -23.5t37 -73.5q0 -51 -47 -75q54 -20 54 -83
q0 -48 -38 -78.5t-92 -30.5q-44 0 -94 22z" />
    <glyph glyph-name="four.numerator" unicode="&#xf665;" horiz-adv-x="323" 
d="M253 691v-196h45v-49h-45v-114h-68v114h-170v26l205 219h33zM185 495v85l-78 -85h78z" />
    <glyph glyph-name="five.numerator" unicode="&#xf666;" horiz-adv-x="323" 
d="M258 687v-51h-126v-82q77 0 111.5 -34.5t34.5 -77.5q0 -49 -38 -82t-102 -33q-47 0 -100 23v61q46 -29 90 -29q33 0 56.5 16.5t23.5 43.5q0 31 -28 46.5t-64 15.5q-29 0 -48 -8v191h190z" />
    <glyph glyph-name="six.numerator" unicode="&#xf667;" horiz-adv-x="323" 
d="M202 694l41 -45q-91 -50 -121 -119q21 9 52 9q54 0 87 -30.5t33 -73.5q0 -45 -37 -76.5t-90 -31.5q-51 0 -92 32t-41 96q0 91 78 171q29 29 90 68zM106 469q-2 -12 -2 -26q0 -30 20 -46.5t44 -16.5t41 14.5t17 39.5q0 29 -20.5 41t-43.5 12q-27 0 -56 -18z" />
    <glyph glyph-name="seven.numerator" unicode="&#xf668;" horiz-adv-x="323" 
d="M322 688l-186 -361l-62 23l147 284h-172v54h273z" />
    <glyph glyph-name="eight.numerator" unicode="&#xf669;" horiz-adv-x="323" 
d="M242 513q54 -28 54 -83q0 -43 -37.5 -73t-96.5 -30t-97 31t-38 73q0 53 56 82q-47 34 -47 77t38 72t91 29q50 0 87.5 -28.5t37.5 -72.5q0 -48 -48 -77zM221 589q0 19 -15 33.5t-43 14.5q-25 0 -41.5 -13t-16.5 -35q0 -24 19.5 -37t39.5 -13q21 0 39 13t18 37zM226 434
q0 18 -15 34t-50 16q-34 0 -49 -16.5t-15 -34.5q0 -20 16.5 -36t48.5 -16t48 15.5t16 37.5z" />
    <glyph glyph-name="nine.numerator" unicode="&#xf66a;" horiz-adv-x="323" 
d="M126 327l-41 43q92 48 121 122q-32 -10 -55 -10q-52 0 -85.5 31.5t-33.5 72.5q0 42 36 74.5t91 32.5q64 0 100 -38.5t36 -89.5q0 -67 -46 -132.5t-123 -105.5zM220 551q3 21 3 25q0 23 -14.5 43.5t-48.5 20.5q-31 0 -45 -17.5t-14 -36.5q0 -24 20 -38t42 -14q29 0 57 17z
" />
    <glyph glyph-name="abreve.sc" unicode="&#xf66d;" horiz-adv-x="481" 
d="M335 120h-192l-51 -120h-86l201 486h58l210 -486h-86zM173 191h130l-67 166zM74 679h78q18 -62 89 -62q40 0 61 18.5t27 43.5h78q-9 -69 -59 -105.5t-107 -36.5q-56 0 -106 35.5t-61 106.5z" />
    <glyph glyph-name="amacron.sc" unicode="&#xf66e;" horiz-adv-x="481" 
d="M335 120h-192l-51 -120h-86l201 486h58l210 -486h-86zM173 191h130l-67 166zM406 616v-79h-330v79h330z" />
    <glyph glyph-name="aogonek.sc" unicode="&#xf66f;" horiz-adv-x="481" 
d="M470 10h2l-1 -1l4 -9h-11q-31 -41 -31 -69q0 -18 16 -33.5t41 -15.5q17 0 52 12v-74q-36 -17 -75 -17q-52 0 -85.5 28t-33.5 74q0 49 40 95l-53 120h-192l-51 -120h-86l201 486h58zM173 191h130l-67 166z" />
    <glyph glyph-name="aeacute.sc" unicode="&#xf670;" horiz-adv-x="632" 
d="M325 128h-155l-66 -128h-98l278 483h309v-77h-185v-123h180v-77h-180v-129h193v-77h-276v128zM213 206h112v200zM443 687h143l-164 -150h-52z" />
    <glyph glyph-name="cacute.sc" unicode="&#xf671;" horiz-adv-x="505" 
d="M462 448v-93q-90 55 -168 55t-122.5 -50.5t-44.5 -122.5q0 -44 17 -78t44 -51.5t55 -26t56 -8.5q76 0 168 60v-94q-79 -45 -174 -45q-62 0 -112 22.5t-80 58.5t-45.5 78.5t-15.5 86.5q0 98 67.5 173.5t184.5 75.5q75 0 170 -41zM279 687h143l-164 -150h-52z" />
    <glyph glyph-name="ccaron.sc" unicode="&#xf672;" horiz-adv-x="505" 
d="M462 448v-93q-90 55 -168 55t-122.5 -50.5t-44.5 -122.5q0 -44 17 -78t44 -51.5t55 -26t56 -8.5q76 0 168 60v-94q-79 -45 -174 -45q-62 0 -112 22.5t-80 58.5t-45.5 78.5t-15.5 86.5q0 98 67.5 173.5t184.5 75.5q75 0 170 -41zM443 695l-93 -158h-144l-93 158h61
l104 -93l106 93h59z" />
    <glyph glyph-name="ccircumflex.sc" unicode="&#xf673;" horiz-adv-x="505" 
d="M462 448v-93q-90 55 -168 55t-122.5 -50.5t-44.5 -122.5q0 -44 17 -78t44 -51.5t55 -26t56 -8.5q76 0 168 60v-94q-79 -45 -174 -45q-62 0 -112 22.5t-80 58.5t-45.5 78.5t-15.5 86.5q0 98 67.5 173.5t184.5 75.5q75 0 170 -41zM448 537h-62l-104 95l-105 -95h-61l94 157
h142z" />
    <glyph glyph-name="cdotaccent.sc" unicode="&#xf674;" horiz-adv-x="505" 
d="M462 448v-93q-90 55 -168 55t-122.5 -50.5t-44.5 -122.5q0 -44 17 -78t44 -51.5t55 -26t56 -8.5q76 0 168 60v-94q-79 -45 -174 -45q-62 0 -112 22.5t-80 58.5t-45.5 78.5t-15.5 86.5q0 98 67.5 173.5t184.5 75.5q75 0 170 -41zM283 657q20 0 35.5 -15t15.5 -37t-15 -37
t-36 -15q-22 0 -37 15t-15 37t16 37t36 15z" />
    <glyph glyph-name="dcaron.sc" unicode="&#xf675;" horiz-adv-x="532" 
d="M58 0v483h162q121 0 184 -52q42 -33 65.5 -83t23.5 -105q0 -72 -35 -125t-80 -80q-60 -38 -167 -38h-153zM142 406v-328h74q87 0 129 32q31 23 46.5 62t15.5 73q0 78 -58 127q-39 34 -135 34h-72zM397 695l-93 -158h-144l-93 158h61l104 -93l106 93h59z" />
    <glyph glyph-name="dcroat.sc" unicode="&#xf676;" horiz-adv-x="531" 
d="M58 209h-58v67h58v207h162q120 0 184 -52q88 -71 88 -188q0 -72 -35 -125t-79 -80q-60 -38 -168 -38h-152v209zM268 209h-127v-131h74q88 0 130 32q31 23 46.5 62t15.5 73q0 77 -58 127q-24 20 -54 27t-82 7h-72v-130h127v-67z" />
    <glyph glyph-name="ebreve.sc" unicode="&#xf677;" horiz-adv-x="367" 
d="M142 406v-125h185v-76h-185v-128h197v-77h-280v483h274v-77h-191zM27 679h78q18 -62 89 -62q40 0 61 18.5t27 43.5h78q-9 -69 -59 -105.5t-107 -36.5q-56 0 -106 35.5t-61 106.5z" />
    <glyph glyph-name="ecaron.sc" unicode="&#xf678;" horiz-adv-x="367" 
d="M142 406v-125h185v-76h-185v-128h197v-77h-280v483h274v-77h-191zM359 695l-93 -158h-144l-93 158h61l104 -93l106 93h59z" />
    <glyph glyph-name="edotaccent.sc" unicode="&#xf679;" horiz-adv-x="367" 
d="M142 406v-125h185v-76h-185v-128h197v-77h-280v483h274v-77h-191zM202 657q20 0 35.5 -15t15.5 -37t-15 -37t-36 -15q-22 0 -37 15t-15 37t16 37t36 15z" />
    <glyph glyph-name="emacron.sc" unicode="&#xf67a;" horiz-adv-x="367" 
d="M142 406v-125h185v-76h-185v-128h197v-77h-280v483h274v-77h-191zM359 616v-79h-330v79h330z" />
    <glyph glyph-name="eng.sc" unicode="&#xf67b;" horiz-adv-x="502" 
d="M289 -7l-15 76q26 -2 34 -2q37 0 52.5 20t15.5 67v123q0 20 -0.5 33t-6.5 37t-17 38.5t-33 26.5t-54 12q-75 0 -139 -79v-345h-79v494h79v-56q65 63 149 63q101 0 151 -79q29 -46 29 -144v-131q0 -81 -36.5 -118.5t-91.5 -37.5q-16 0 -38 2z" />
    <glyph glyph-name="eogonek.sc" unicode="&#xf67c;" horiz-adv-x="367" 
d="M262 0q-32 -39 -32 -70q0 -19 16 -34.5t46 -15.5q19 0 47 13v-74q-36 -17 -75 -17q-49 0 -84 27t-35 75q0 55 41 96h-127v483h274v-77h-191v-125h185v-76h-185v-128h197v-77h-77z" />
    <glyph glyph-name="gbreve.sc" unicode="&#xf67d;" horiz-adv-x="526" 
d="M473 246v-211q-90 -41 -175 -41q-65 0 -115.5 22t-80.5 58.5t-45 78.5t-15 85q0 101 69.5 176t184.5 75q70 0 168 -43v-89q-93 55 -169 55q-67 0 -117 -47t-50 -124q0 -80 50 -125.5t122 -45.5q36 0 90 18v82h-87v76h170zM97 679h78q18 -62 89 -62q40 0 61 18.5t27 43.5
h78q-9 -69 -59 -105.5t-107 -36.5q-56 0 -106 35.5t-61 106.5z" />
    <glyph glyph-name="gcircumflex.sc" unicode="&#xf67e;" horiz-adv-x="526" 
d="M473 246v-211q-90 -41 -175 -41q-65 0 -115.5 22t-80.5 58.5t-45 78.5t-15 85q0 101 69.5 176t184.5 75q70 0 168 -43v-89q-93 55 -169 55q-67 0 -117 -47t-50 -124q0 -80 50 -125.5t122 -45.5q36 0 90 18v82h-87v76h170zM447 537h-62l-104 95l-105 -95h-61l94 157h142z
" />
    <glyph glyph-name="gcommaaccent.sc" unicode="&#xf67f;" horiz-adv-x="526" 
d="M473 246v-211q-90 -41 -175 -41q-65 0 -115.5 22t-80.5 58.5t-45 78.5t-15 85q0 101 69.5 176t184.5 75q70 0 168 -43v-89q-93 55 -169 55q-67 0 -117 -47t-50 -124q0 -80 50 -125.5t122 -45.5q36 0 90 18v82h-87v76h170zM196 -227v61q24 -2 43 -2q69 0 69 31
q0 12 -7.5 18.5t-23.5 8.5t-26.5 2t-30.5 -1l11 60h28q17 0 33.5 -2t46 -8.5t47.5 -25.5t18 -47q0 -42 -38 -71q-38 -27 -128 -27q-25 0 -42 3z" />
    <glyph glyph-name="gdotaccent.sc" unicode="&#xf680;" horiz-adv-x="526" 
d="M473 246v-211q-90 -41 -175 -41q-65 0 -115.5 22t-80.5 58.5t-45 78.5t-15 85q0 101 69.5 176t184.5 75q70 0 168 -43v-89q-93 55 -169 55q-67 0 -117 -47t-50 -124q0 -80 50 -125.5t122 -45.5q36 0 90 18v82h-87v76h170zM289 657q20 0 35.5 -15t15.5 -37t-15 -37
t-36 -15q-22 0 -37 15t-15 37t16 37t36 15z" />
    <glyph glyph-name="hbar.sc" unicode="&#xf681;" horiz-adv-x="518" 
d="M460 401h58v-63h-58v-338h-83v204h-236v-204h-83v338h-58v63h58v82h83v-82h236v82h83v-82zM377 338h-236v-58h236v58z" />
    <glyph glyph-name="hcircumflex.sc" unicode="&#xf682;" horiz-adv-x="518" 
d="M460 483v-483h-83v204h-236v-204h-83v483h83v-203h236v203h83zM425 537h-62l-104 95l-105 -95h-61l94 157h142z" />
    <glyph glyph-name="ibreve.sc" unicode="&#xf683;" horiz-adv-x="201" 
d="M142 483v-483h-83v483h83zM-66 679h78q18 -62 89 -62q40 0 61 18.5t27 43.5h78q-9 -69 -59 -105.5t-107 -36.5q-56 0 -106 35.5t-61 106.5z" />
    <glyph glyph-name="i_j.sc" unicode="&#xf684;" horiz-adv-x="402" 
d="M142 483v-483h-83v483h83zM344 483v-468q0 -78 -20 -113q-32 -60 -99 -60q-12 0 -45 6l-13 80q35 -5 42 -5q34 0 43 22.5t9 77.5v460h83z" />
    <glyph glyph-name="imacron.sc" unicode="&#xf685;" horiz-adv-x="201" 
d="M142 483v-483h-83v483h83zM266 616v-79h-330v79h330z" />
    <glyph glyph-name="iogonek.sc" unicode="&#xf686;" horiz-adv-x="201" 
d="M212 -106v-74q-36 -17 -75 -17q-52 0 -85.5 28t-33.5 74q0 51 41 96v482h83v-483h-8q-31 -44 -31 -69q0 -19 15.5 -34.5t46.5 -15.5q19 0 47 13z" />
    <glyph glyph-name="itilde.sc" unicode="&#xf687;" horiz-adv-x="201" 
d="M142 483v-483h-83v483h83zM-11 537h-52q6 61 35.5 91.5t65.5 30.5q14 0 27.5 -4t23.5 -8.5t41 -19.5q38 -18 50 -18t21 12.5t12 35.5h52q-4 -51 -30.5 -85.5t-65.5 -34.5q-18 0 -33 5t-66 28q-36 16 -47 16t-18 -8.5t-9.5 -16t-6.5 -24.5z" />
    <glyph glyph-name="jcircumflex.sc" unicode="&#xf688;" horiz-adv-x="201" 
d="M142 483v-468q0 -78 -20 -113q-32 -60 -99 -60q-12 0 -45 6l-13 80q35 -5 42 -5q34 0 43 22.5t9 77.5v460h83zM266 537h-62l-104 95l-105 -95h-61l94 157h142z" />
    <glyph glyph-name="kcommaaccent.sc" unicode="&#xf689;" horiz-adv-x="470" 
d="M424 483l-198 -224l248 -259h-115l-217 223v-223h-83v483h83v-204l177 204h105zM153 -227v61q24 -2 43 -2q69 0 69 31q0 12 -7.5 18.5t-23.5 8.5t-26.5 2t-30.5 -1l11 60h28q17 0 33.5 -2t46 -8.5t47.5 -25.5t18 -47q0 -42 -38 -71q-38 -27 -128 -27q-25 0 -42 3z" />
    <glyph glyph-name="lacute.sc" unicode="&#xf68a;" horiz-adv-x="360" 
d="M141 483v-406h204v-77h-287v483h83zM177 687h143l-164 -150h-52z" />
    <glyph glyph-name="lcaron.sc" unicode="&#xf68b;" horiz-adv-x="360" 
d="M141 483v-406h204v-77h-287v483h83zM220 282v15q36 33 37 84q-47 13 -47 54q0 21 16 37.5t39 16.5q28 0 44.5 -23t16.5 -56q0 -7 -0.5 -14.5t-6.5 -25.5t-16 -32.5t-31.5 -30.5t-51.5 -25z" />
    <glyph glyph-name="lcommaaccent.sc" unicode="&#xf68c;" horiz-adv-x="360" 
d="M141 483v-406h204v-77h-287v483h83zM113 -227v61q24 -2 43 -2q69 0 69 31q0 12 -7.5 18.5t-23.5 8.5t-26.5 2t-30.5 -1l11 60h28q17 0 33.5 -2t46 -8.5t47.5 -25.5t18 -47q0 -42 -38 -71q-38 -27 -128 -27q-25 0 -42 3z" />
    <glyph glyph-name="ldot.sc" unicode="&#xf68d;" horiz-adv-x="360" 
d="M141 483v-406h204v-77h-287v483h83zM246 328q20 0 35.5 -15t15.5 -37t-15 -37t-36 -15q-22 0 -37 15t-15 37t16 37t36 15z" />
    <glyph glyph-name="nacute.sc" unicode="&#xf68e;" horiz-adv-x="550" 
d="M494 483v-483h-73l-281 342v-342h-84v483h70l285 -345v345h83zM272 687h143l-164 -150h-52z" />
    <glyph glyph-name="ncaron.sc" unicode="&#xf68f;" horiz-adv-x="550" 
d="M494 483v-483h-73l-281 342v-342h-84v483h70l285 -345v345h83zM441 695l-93 -158h-144l-93 158h61l104 -93l106 93h59z" />
    <glyph glyph-name="ncommaaccent.sc" unicode="&#xf690;" horiz-adv-x="550" 
d="M494 483v-483h-73l-281 342v-342h-84v483h70l285 -345v345h83zM188 -227v61q24 -2 43 -2q69 0 69 31q0 12 -7.5 18.5t-23.5 8.5t-26.5 2t-30.5 -1l11 60h28q17 0 33.5 -2t46 -8.5t47.5 -25.5t18 -47q0 -42 -38 -71q-38 -27 -128 -27q-26 0 -42 3z" />
    <glyph glyph-name="obreve.sc" unicode="&#xf691;" horiz-adv-x="581" 
d="M38 240q0 103 69.5 176t181.5 73q113 0 183.5 -73t70.5 -174q0 -105 -71.5 -176.5t-185.5 -71.5q-107 0 -177.5 71t-70.5 175zM127 240q0 -75 48 -121t115 -46q68 0 116 46.5t48 123.5q0 68 -44.5 117.5t-118.5 49.5q-77 0 -120.5 -51t-43.5 -119zM124 679h78
q18 -62 89 -62q40 0 61 18.5t27 43.5h78q-9 -69 -59 -105.5t-107 -36.5q-56 0 -106 35.5t-61 106.5z" />
    <glyph glyph-name="ohungarumlaut.sc" unicode="&#xf692;" horiz-adv-x="581" 
d="M38 240q0 103 69.5 176t181.5 73q113 0 183.5 -73t70.5 -174q0 -105 -71.5 -176.5t-185.5 -71.5q-107 0 -177.5 71t-70.5 175zM127 240q0 -75 48 -121t115 -46q68 0 116 46.5t48 123.5q0 68 -44.5 117.5t-118.5 49.5q-77 0 -120.5 -51t-43.5 -119zM354 687l-125 -150h-44
l44 150h125zM518 687l-125 -150h-44l44 150h125z" />
    <glyph glyph-name="omacron.sc" unicode="&#xf693;" horiz-adv-x="581" 
d="M38 240q0 103 69.5 176t181.5 73q113 0 183.5 -73t70.5 -174q0 -105 -71.5 -176.5t-185.5 -71.5q-107 0 -177.5 71t-70.5 175zM127 240q0 -75 48 -121t115 -46q68 0 116 46.5t48 123.5q0 68 -44.5 117.5t-118.5 49.5q-77 0 -120.5 -51t-43.5 -119zM456 616v-79h-330v79
h330z" />
    <glyph glyph-name="oslashacute.sc" unicode="&#xf694;" horiz-adv-x="583" 
d="M441 444l32 37h75l-65 -75q61 -71 61 -164q0 -105 -71.5 -176.5t-185.5 -71.5q-75 0 -131 35l-31 -35h-75l61 70q-72 73 -72 176t69.5 176t181.5 73q84 0 151 -45zM167 128l220 253q-46 29 -95 29q-79 0 -121.5 -52t-42.5 -118t39 -112zM426 341l-214 -248q40 -20 79 -20
q68 0 116 46.5t48 123.5q0 55 -29 98zM288 687h143l-164 -150h-52z" />
    <glyph glyph-name="racute.sc" unicode="&#xf695;" horiz-adv-x="435" 
d="M56 483h114q178 0 178 -138q0 -94 -81 -123q19 -17 28 -26.5t23 -28t33 -49.5q54 -90 81 -118h-100q-24 47 -86 137q-41 60 -82 60h-24v-197h-84v483zM161 409h-21v-142h28q55 0 72 15q24 21 24 57q0 42 -26.5 56t-76.5 14zM214 687h143l-164 -150h-52z" />
    <glyph glyph-name="rcaron.sc" unicode="&#xf696;" horiz-adv-x="435" 
d="M56 483h114q178 0 178 -138q0 -94 -81 -123q19 -17 28 -26.5t23 -28t33 -49.5q54 -90 81 -118h-100q-24 47 -86 137q-41 60 -82 60h-24v-197h-84v483zM161 409h-21v-142h28q55 0 72 15q24 21 24 57q0 42 -26.5 56t-76.5 14zM373 695l-93 -158h-144l-93 158h61l104 -93
l106 93h59z" />
    <glyph glyph-name="rcommaaccent.sc" unicode="&#xf697;" horiz-adv-x="435" 
d="M56 483h114q178 0 178 -138q0 -94 -81 -123q19 -17 28 -26.5t23 -28t33 -49.5q54 -90 81 -118h-100q-24 47 -86 137q-41 60 -82 60h-24v-197h-84v483zM161 409h-21v-142h28q55 0 72 15q24 21 24 57q0 42 -26.5 56t-76.5 14zM150 -227v61q24 -2 43 -2q69 0 69 31
q0 12 -7.5 18.5t-23.5 8.5t-26.5 2t-30.5 -1l11 60h28q17 0 33.5 -2t46 -8.5t47.5 -25.5t18 -47q0 -42 -38 -71q-38 -27 -128 -27q-26 0 -42 3z" />
    <glyph glyph-name="sacute.sc" unicode="&#xf698;" horiz-adv-x="339" 
d="M291 458v-90q-20 14 -31 21t-35 15t-48 8q-30 0 -46.5 -13.5t-16.5 -32.5q0 -25 19 -41.5t89 -58.5q87 -53 87 -137q0 -59 -39 -97t-101 -38q-71 0 -132 42v102q21 -21 34 -32t40 -23.5t57 -12.5q25 0 43.5 14.5t18.5 37.5q0 37 -55 75q-82 50 -110.5 79.5t-28.5 80.5
q0 56 38 94t105 38q59 0 112 -31zM181 687h143l-164 -150h-52z" />
    <glyph glyph-name="scedilla.sc" unicode="&#xf699;" horiz-adv-x="339" 
d="M208 -2l-6 -16q32 -6 50.5 -23t21.5 -28.5t3 -21.5q0 -20 -14 -41.5t-34 -34.5q-40 -23 -118 -23q-27 0 -43 3v61q4 0 21 -1t20 -1q29 0 50 7.5t21 22.5q0 23 -30.5 28t-46.5 1l28 66q-52 10 -94 39v102q21 -21 34 -32t40 -23.5t57 -12.5q25 0 43.5 14.5t18.5 37.5
q0 37 -55 75q-82 50 -110.5 79.5t-28.5 80.5q0 56 38 94t105 38q59 0 112 -31v-90q-20 14 -31 21t-35 15t-48 8q-31 0 -47 -14t-16 -32q0 -24 19.5 -41t88.5 -59q87 -53 87 -137q0 -47 -26 -83t-75 -48z" />
    <glyph glyph-name="scircumflex.sc" unicode="&#xf69a;" horiz-adv-x="339" 
d="M291 458v-90q-20 14 -31 21t-35 15t-48 8q-30 0 -46.5 -13.5t-16.5 -32.5q0 -25 19 -41.5t89 -58.5q87 -53 87 -137q0 -59 -39 -97t-101 -38q-71 0 -132 42v102q21 -21 34 -32t40 -23.5t57 -12.5q25 0 43.5 14.5t18.5 37.5q0 37 -55 75q-82 50 -110.5 79.5t-28.5 80.5
q0 56 38 94t105 38q59 0 112 -31zM335 537h-62l-104 95l-105 -95h-61l94 157h142z" />
    <glyph glyph-name="scommaaccent.sc" unicode="&#xf69b;" horiz-adv-x="339" 
d="M291 458v-90q-20 14 -31 21t-35 15t-48 8q-30 0 -46.5 -13.5t-16.5 -32.5q0 -25 19 -41.5t89 -58.5q87 -53 87 -137q0 -59 -39 -97t-101 -38q-71 0 -132 42v102q21 -21 34 -32t40 -23.5t57 -12.5q25 0 43.5 14.5t18.5 37.5q0 37 -55 75q-82 50 -110.5 79.5t-28.5 80.5
q0 56 38 94t105 38q59 0 112 -31zM67 -227v61q24 -2 43 -2q69 0 69 31q0 12 -7.5 18.5t-23.5 8.5t-26.5 2t-30.5 -1l11 60h28q17 0 33.5 -2t46 -8.5t47.5 -25.5t18 -47q0 -42 -38 -71q-38 -27 -128 -27q-25 0 -42 3z" />
    <glyph glyph-name="tbar.sc" unicode="&#xf69c;" horiz-adv-x="436" 
d="M260 282h131v-63h-131v-219h-83v219h-132v63h132v128h-157v73h396v-73h-156v-128z" />
    <glyph glyph-name="tcaron.sc" unicode="&#xf69d;" horiz-adv-x="436" 
d="M416 483v-73h-156v-410h-83v410h-157v73h396zM384 695l-93 -158h-144l-93 158h61l104 -93l106 93h59z" />
    <glyph glyph-name="tcommaaccent.sc" unicode="&#xf69e;" horiz-adv-x="436" 
d="M416 483v-73h-156v-410h-83v410h-157v73h396zM126 -227v61q24 -2 43 -2q69 0 69 31q0 12 -7.5 18.5t-23.5 8.5t-26.5 2t-30.5 -1l11 60h28q17 0 33.5 -2t46 -8.5t47.5 -25.5t18 -47q0 -42 -38 -71q-38 -27 -128 -27q-26 0 -42 3z" />
    <glyph glyph-name="ubreve.sc" unicode="&#xf69f;" horiz-adv-x="505" 
d="M456 483v-273q0 -64 -13 -101t-42 -63q-57 -52 -146 -52q-43 0 -86 13.5t-69 40.5q-28 31 -39.5 65t-11.5 97v273h83v-273q0 -45 5 -66t21 -37q34 -37 94 -37q66 0 95 37q16 20 21 40t5 63v273h83zM86 679h78q18 -62 89 -62q40 0 61 18.5t27 43.5h78q-9 -69 -59 -105.5
t-107 -36.5q-56 0 -106 35.5t-61 106.5z" />
    <glyph glyph-name="uhungarumlaut.sc" unicode="&#xf6a0;" horiz-adv-x="505" 
d="M456 483v-273q0 -64 -13 -101t-42 -63q-57 -52 -146 -52q-43 0 -86 13.5t-69 40.5q-28 31 -39.5 65t-11.5 97v273h83v-273q0 -45 5 -66t21 -37q34 -37 94 -37q66 0 95 37q16 20 21 40t5 63v273h83zM316 687l-125 -150h-44l44 150h125zM480 687l-125 -150h-44l44 150h125z
" />
    <glyph glyph-name="umacron.sc" unicode="&#xf6a1;" horiz-adv-x="505" 
d="M456 483v-273q0 -64 -13 -101t-42 -63q-57 -52 -146 -52q-43 0 -86 13.5t-69 40.5q-28 31 -39.5 65t-11.5 97v273h83v-273q0 -45 5 -66t21 -37q34 -37 94 -37q66 0 95 37q16 20 21 40t5 63v273h83zM418 616v-79h-330v79h330z" />
    <glyph glyph-name="uogonek.sc" unicode="&#xf6a2;" horiz-adv-x="505" 
d="M364 -106v-74q-36 -17 -74 -17q-52 0 -85.5 28t-33.5 74q0 47 38 92q-45 8 -77 27.5t-47.5 40.5t-24 51.5t-10 49t-1.5 44.5v273h83v-273q0 -45 5 -66t21 -37q34 -37 94 -37q66 0 95 37q16 20 21 40t5 63v273h83v-273q0 -67 -17.5 -112.5t-71.5 -76.5q-34 -19 -83 -26
q-28 -37 -28 -64q0 -19 15.5 -34.5t46.5 -15.5q20 0 46 13z" />
    <glyph glyph-name="uring.sc" unicode="&#xf6a3;" horiz-adv-x="505" 
d="M456 483v-273q0 -64 -13 -101t-42 -63q-57 -52 -146 -52q-43 0 -86 13.5t-69 40.5q-28 31 -39.5 65t-11.5 97v273h83v-273q0 -45 5 -66t21 -37q34 -37 94 -37q66 0 95 37q16 20 21 40t5 63v273h83zM253 728q45 0 73 -31.5t28 -69.5q0 -41 -28 -71t-73 -30q-44 0 -72.5 30
t-28.5 71q0 42 29.5 71.5t71.5 29.5zM253 572q23 0 39 16t16 39t-16 39t-39 16t-39 -16t-16 -39t16 -39t39 -16z" />
    <glyph glyph-name="utilde.sc" unicode="&#xf6a4;" horiz-adv-x="505" 
d="M456 483v-273q0 -64 -13 -101t-42 -63q-57 -52 -146 -52q-43 0 -86 13.5t-69 40.5q-28 31 -39.5 65t-11.5 97v273h83v-273q0 -45 5 -66t21 -37q34 -37 94 -37q66 0 95 37q16 20 21 40t5 63v273h83zM141 537h-52q6 61 35.5 91.5t65.5 30.5q14 0 27.5 -4t23.5 -8.5
t41 -19.5q38 -18 50 -18t21 12.5t12 35.5h52q-4 -51 -30.5 -85.5t-65.5 -34.5q-18 0 -33 5t-66 28q-36 16 -47 16t-18 -8.5t-9.5 -16t-6.5 -24.5z" />
    <glyph glyph-name="wacute.sc" unicode="&#xf6a5;" horiz-adv-x="742" 
d="M507 -3l-136 350l-136 -350h-27l-201 486h93l119 -287l119 287h67l118 -287l119 287h93l-201 -486h-27zM368 687h143l-164 -150h-52z" />
    <glyph glyph-name="wcircumflex.sc" unicode="&#xf6a6;" horiz-adv-x="742" 
d="M507 -3l-136 350l-136 -350h-27l-201 486h93l119 -287l119 287h67l118 -287l119 287h93l-201 -486h-27zM537 537h-62l-104 95l-105 -95h-61l94 157h142z" />
    <glyph glyph-name="wdieresis.sc" unicode="&#xf6a7;" horiz-adv-x="742" 
d="M507 -3l-136 350l-136 -350h-27l-201 486h93l119 -287l119 287h67l118 -287l119 287h93l-201 -486h-27zM475 553q-22 0 -37.5 15.5t-15.5 37.5t15.5 37.5t37.5 15.5t37.5 -15.5t15.5 -37.5t-15.5 -37.5t-37.5 -15.5zM268 553q-22 0 -37.5 15.5t-15.5 37.5t15.5 37.5
t37.5 15.5t37.5 -15.5t15.5 -37.5t-15.5 -37.5t-37.5 -15.5z" />
    <glyph glyph-name="wgrave.sc" unicode="&#xf6a8;" horiz-adv-x="742" 
d="M507 -3l-136 350l-136 -350h-27l-201 486h93l119 -287l119 287h67l118 -287l119 287h93l-201 -486h-27zM375 687l73 -150h-52l-164 150h143z" />
    <glyph glyph-name="ycircumflex.sc" unicode="&#xf6a9;" horiz-adv-x="446" 
d="M441 483l-176 -266v-217h-85v217l-175 266h98l120 -185l120 185h98zM396 537h-62l-104 95l-105 -95h-61l94 157h142z" />
    <glyph glyph-name="ygrave.sc" unicode="&#xf6aa;" horiz-adv-x="446" 
d="M441 483l-176 -266v-217h-85v217l-175 266h98l120 -185l120 185h98zM227 687l73 -150h-52l-164 150h143z" />
    <glyph glyph-name="zacute.sc" unicode="&#xf6ab;" horiz-adv-x="470" 
d="M455 483l-286 -407h278v-76h-435l287 407h-261v76h417zM242 687h143l-164 -150h-52z" />
    <glyph glyph-name="zdotaccent.sc" unicode="&#xf6ac;" horiz-adv-x="470" 
d="M455 483l-286 -407h278v-76h-435l287 407h-261v76h417zM236 657q20 0 35.5 -15t15.5 -37t-15 -37t-36 -15q-22 0 -37 15t-15 37t16 37t36 15z" />
    <glyph glyph-name="idotaccent.sc" unicode="&#xf6ad;" horiz-adv-x="201" 
d="M142 483v-483h-83v483h83zM101 657q20 0 35.5 -15t15.5 -37t-15 -37t-36 -15q-22 0 -37 15t-15 37t16 37t36 15z" />
    <glyph glyph-name="one.fitted" unicode="&#xf6dc;" horiz-adv-x="248" 
d="M173 682v-682h-98v682h98z" />
    <glyph glyph-name="lslash.sc" unicode="&#xf6f9;" horiz-adv-x="365" 
d="M144 276l110 98l1 -74l-111 -99v-124h203v-77h-286v126l-59 -52v76l59 52v281h83v-207z" />
    <glyph glyph-name="oe.sc" unicode="&#xf6fa;" horiz-adv-x="643" 
d="M607 483v-75h-185v-125h179v-77h-179v-130h193v-76h-288q-65 0 -114.5 13t-94.5 52q-78 69 -78 175q0 112 81 182q69 61 206 61h280zM306 76h32v332h-27q-92 0 -138 -47q-47 -49 -47 -119q0 -23 7 -47t24 -53t55.5 -47.5t93.5 -18.5z" />
    <glyph glyph-name="scaron.sc" unicode="&#xf6fd;" horiz-adv-x="339" 
d="M291 458v-90q-20 14 -31 21t-35 15t-48 8q-30 0 -46.5 -13.5t-16.5 -32.5q0 -25 19 -41.5t89 -58.5q87 -53 87 -137q0 -59 -39 -97t-101 -38q-71 0 -132 42v102q21 -21 34 -32t40 -23.5t57 -12.5q25 0 43.5 14.5t18.5 37.5q0 37 -55 75q-82 50 -110.5 79.5t-28.5 80.5
q0 56 38 94t105 38q59 0 112 -31zM335 695l-93 -158h-144l-93 158h61l104 -93l106 93h59z" />
    <glyph glyph-name="zcaron.sc" unicode="&#xf6ff;" horiz-adv-x="470" 
d="M455 483l-286 -407h278v-76h-435l287 407h-261v76h417zM401 695l-93 -158h-144l-93 158h61l104 -93l106 93h59z" />
    <glyph glyph-name="ampersand.sc" unicode="&#xf726;" horiz-adv-x="456" 
d="M351 119l99 -119h-106l-49 59q-74 -65 -140 -65q-54 0 -90 34t-36 84q0 32 18 61t35 43t50 37q-53 61 -53 112q0 46 31.5 85t96.5 39q66 0 97 -39t31 -81q0 -69 -87 -129l56 -69q26 38 38 78h84q-20 -70 -75 -130zM236 101l14 10l-72 88l-24 -18q-41 -31 -41 -66
q0 -15 12 -27.5t35 -12.5q36 0 76 26zM203 293q18 14 26.5 21.5t17.5 22t9 30.5q0 19 -13.5 33.5t-34.5 14.5t-34 -13.5t-13 -32.5q0 -28 42 -76z" />
    <glyph glyph-name="zero.oldstyle" unicode="&#xf730;" horiz-adv-x="506" 
d="M255 458q95 0 156.5 -66t61.5 -170q0 -110 -67 -170.5t-154 -60.5q-97 0 -158 67t-61 166q0 98 60 166t162 68zM250 371q-56 0 -92 -40.5t-36 -107.5q0 -71 39.5 -108t92.5 -37q60 0 95 42t35 105q0 70 -40.5 108t-93.5 38z" />
    <glyph glyph-name="one.oldstyle" unicode="&#xf731;" horiz-adv-x="389" 
d="M296 0h-90v316l-114 -83l-40 59l212 166h32v-458z" />
    <glyph glyph-name="two.oldstyle" unicode="&#xf732;" horiz-adv-x="455" 
d="M411 82v-82h-375q54 52 75 72.5t46 48.5t48 59q61 80 61 137q0 28 -20 44.5t-53 16.5q-32 0 -64 -15.5t-46.5 -28t-35.5 -33.5v98q75 59 151 59q65 0 111.5 -34.5t46.5 -90.5q0 -42 -24 -92.5t-47 -80.5t-63 -78h189z" />
    <glyph glyph-name="three.oldstyle" unicode="&#xf733;" horiz-adv-x="436" 
d="M262 366h-231v82h367l-156 -291q78 -19 114 -67q37 -49 37 -114q0 -90 -64.5 -150t-154.5 -60q-76 0 -141 42l-2 94q65 -54 143 -54q57 0 92 35.5t35 84.5q0 66 -60 99q-46 27 -126 20z" />
    <glyph glyph-name="four.oldstyle" unicode="&#xf734;" horiz-adv-x="504" 
d="M310 0h-307v22l379 436h19v-385h95v-73h-95v-234h-91v234zM143 73h167v203z" />
    <glyph glyph-name="five.oldstyle" unicode="&#xf735;" horiz-adv-x="467" 
d="M428 448v-82h-209l-32 -201q85 2 153 -48.5t68 -141.5q0 -87 -63.5 -148t-159.5 -61q-77 0 -161 47v100q68 -62 152 -62q67 0 103 36t36 80q0 51 -45 85t-123 34q-21 0 -59 -5l58 367h282z" />
    <glyph glyph-name="six.oldstyle" unicode="&#xf736;" horiz-adv-x="486" 
d="M306 692l55 -71q-55 -35 -95 -73t-63.5 -76.5t-33 -58.5t-20.5 -52q62 32 111 32q85 0 139 -57.5t54 -139.5q0 -86 -59.5 -145.5t-145.5 -59.5q-36 0 -71.5 13t-68.5 40t-54 77t-21 116q0 176 128 328q49 58 145 127zM131 267q-5 -25 -5 -46q0 -70 36.5 -107t86.5 -37
q45 0 79 31t34 85q0 58 -37 86t-86 28q-23 0 -44 -6.5t-32.5 -13t-31.5 -20.5z" />
    <glyph glyph-name="seven.oldstyle" unicode="&#xf737;" horiz-adv-x="460" 
d="M450 448l-309 -681l-83 36l266 563h-294v82h420z" />
    <glyph glyph-name="eight.oldstyle" unicode="&#xf738;" horiz-adv-x="506" 
d="M353 349q118 -57 118 -165q0 -78 -59.5 -135.5t-157.5 -57.5t-158.5 59t-60.5 135q0 86 76 139q14 11 44 25q-31 20 -48.5 34.5t-36.5 47.5t-19 73q0 78 60 134t147 56q84 0 143.5 -55.5t59.5 -133.5q0 -33 -11.5 -61t-32 -47t-33 -28.5t-31.5 -19.5zM369 499
q0 42 -30 74t-84 32q-46 0 -79 -29t-33 -76q0 -49 37 -78t77 -29q42 0 77 29.5t35 76.5zM376 192q0 44 -31.5 77.5t-92.5 33.5t-92 -35t-31 -76q0 -46 33 -79t93 -33q59 0 90 33.5t31 78.5z" />
    <glyph glyph-name="nine.oldstyle" unicode="&#xf739;" horiz-adv-x="490" 
d="M183 -234l-57 69q100 62 163 150q31 44 48 105q-57 -33 -115 -33q-81 0 -135 60t-54 138q0 79 57 141t150 62q90 0 153.5 -61.5t63.5 -180.5q0 -81 -28 -157.5t-73 -132.5t-88 -95t-85 -65zM355 181q5 31 5 51q0 57 -31.5 98t-90.5 41q-57 0 -85 -37.5t-28 -77.5
q0 -52 36 -83t82 -31q54 0 112 39z" />
    <glyph glyph-name="a.sc" unicode="&#xf761;" horiz-adv-x="481" 
d="M335 120h-192l-51 -120h-86l201 486h58l210 -486h-86zM173 191h130l-67 166z" />
    <glyph glyph-name="b.sc" unicode="&#xf762;" horiz-adv-x="408" 
d="M58 0v483h128q67 0 105 -20q26 -14 41 -41.5t15 -59.5q0 -25 -7 -44t-21.5 -31.5t-23.5 -18t-25 -13.5q58 -9 87 -43t29 -80q0 -35 -16.5 -63t-44.5 -42q-34 -18 -60.5 -22.5t-71.5 -4.5h-135zM141 409v-130h34q35 0 60.5 16t25.5 55q0 21 -8 34t-23.5 18t-26 6t-28.5 1
h-34zM141 209v-135h55q54 0 77 14q12 7 20 22.5t8 31.5q0 67 -108 67h-52z" />
    <glyph glyph-name="c.sc" unicode="&#xf763;" horiz-adv-x="505" 
d="M462 448v-93q-90 55 -168 55t-122.5 -50.5t-44.5 -122.5q0 -44 17 -78t44 -51.5t55 -26t56 -8.5q76 0 168 60v-94q-79 -45 -174 -45q-62 0 -112 22.5t-80 58.5t-45.5 78.5t-15.5 86.5q0 98 67.5 173.5t184.5 75.5q75 0 170 -41z" />
    <glyph glyph-name="d.sc" unicode="&#xf764;" horiz-adv-x="532" 
d="M58 0v483h162q121 0 184 -52q42 -33 65.5 -83t23.5 -105q0 -72 -35 -125t-80 -80q-60 -38 -167 -38h-153zM142 406v-328h74q87 0 129 32q31 23 46.5 62t15.5 73q0 78 -58 127q-39 34 -135 34h-72z" />
    <glyph glyph-name="e.sc" unicode="&#xf765;" horiz-adv-x="367" 
d="M142 406v-125h185v-76h-185v-128h197v-77h-280v483h274v-77h-191z" />
    <glyph glyph-name="f.sc" unicode="&#xf766;" horiz-adv-x="346" 
d="M142 406v-112h176v-77h-176v-217h-83v483h259v-77h-176z" />
    <glyph glyph-name="g.sc" unicode="&#xf767;" horiz-adv-x="526" 
d="M473 246v-211q-90 -41 -175 -41q-65 0 -115.5 22t-80.5 58.5t-45 78.5t-15 85q0 101 69.5 176t184.5 75q70 0 168 -43v-89q-93 55 -169 55q-67 0 -117 -47t-50 -124q0 -80 50 -125.5t122 -45.5q36 0 90 18v82h-87v76h170z" />
    <glyph glyph-name="h.sc" unicode="&#xf768;" horiz-adv-x="518" 
d="M460 483v-483h-83v204h-236v-204h-83v483h83v-203h236v203h83z" />
    <glyph glyph-name="i.sc" unicode="&#xf769;" horiz-adv-x="201" 
d="M142 483v-483h-83v483h83z" />
    <glyph glyph-name="j.sc" unicode="&#xf76a;" horiz-adv-x="201" 
d="M142 483v-468q0 -78 -20 -113q-32 -60 -99 -60q-12 0 -45 6l-13 80q35 -5 42 -5q34 0 43 22.5t9 77.5v460h83z" />
    <glyph glyph-name="k.sc" unicode="&#xf76b;" horiz-adv-x="470" 
d="M424 483l-198 -224l248 -259h-115l-217 223v-223h-83v483h83v-204l177 204h105z" />
    <glyph glyph-name="l.sc" unicode="&#xf76c;" horiz-adv-x="360" 
d="M141 483v-406h204v-77h-287v483h83z" />
    <glyph glyph-name="m.sc" unicode="&#xf76d;" horiz-adv-x="590" 
d="M125 483l170 -215l170 215h68v-483h-83v330l-146 -183h-18l-146 183v-330h-83v483h68z" />
    <glyph glyph-name="n.sc" unicode="&#xf76e;" horiz-adv-x="550" 
d="M494 483v-483h-73l-281 342v-342h-84v483h70l285 -345v345h83z" />
    <glyph glyph-name="o.sc" unicode="&#xf76f;" horiz-adv-x="581" 
d="M38 240q0 103 69.5 176t181.5 73q113 0 183.5 -73t70.5 -174q0 -105 -71.5 -176.5t-185.5 -71.5q-107 0 -177.5 71t-70.5 175zM127 240q0 -75 48 -121t115 -46q68 0 116 46.5t48 123.5q0 68 -44.5 117.5t-118.5 49.5q-77 0 -120.5 -51t-43.5 -119z" />
    <glyph glyph-name="p.sc" unicode="&#xf770;" horiz-adv-x="375" 
d="M57 483h131q96 0 133 -39q39 -40 39 -102q0 -66 -41 -100q-27 -22 -55 -31t-78 -9h-46v-202h-83v483zM183 409h-43v-133h48q14 0 22.5 0.5t22.5 4t22 10.5t14 20.5t6 32.5t-6.5 32t-14.5 19t-22.5 9.5t-23.5 4t-25 0.5z" />
    <glyph glyph-name="q.sc" unicode="&#xf771;" horiz-adv-x="581" 
d="M525 -46l-63 -64q-70 15 -112.5 37t-105.5 73q-96 24 -147 80q-59 68 -59 162q0 104 70 175.5t182 71.5q114 0 183.5 -72.5t69.5 -173.5q0 -98 -62 -168q-19 -21 -41.5 -36.5t-36.5 -22t-41 -16.5q66 -38 163 -46zM290 410q-77 0 -120.5 -50.5t-43.5 -118.5
q0 -75 48 -121.5t116 -46.5q71 0 118 48t47 120q0 64 -41.5 116.5t-123.5 52.5z" />
    <glyph glyph-name="r.sc" unicode="&#xf772;" horiz-adv-x="435" 
d="M56 483h114q178 0 178 -138q0 -94 -81 -123q19 -17 28 -26.5t23 -28t33 -49.5q54 -90 81 -118h-100q-24 47 -86 137q-41 60 -82 60h-24v-197h-84v483zM161 409h-21v-142h28q55 0 72 15q24 21 24 57q0 42 -26.5 56t-76.5 14z" />
    <glyph glyph-name="s.sc" unicode="&#xf773;" horiz-adv-x="339" 
d="M291 458v-90q-20 14 -31 21t-35 15t-48 8q-30 0 -46.5 -13.5t-16.5 -32.5q0 -25 19 -41.5t89 -58.5q87 -53 87 -137q0 -59 -39 -97t-101 -38q-71 0 -132 42v102q21 -21 34 -32t40 -23.5t57 -12.5q25 0 43.5 14.5t18.5 37.5q0 37 -55 75q-82 50 -110.5 79.5t-28.5 80.5
q0 56 38 94t105 38q59 0 112 -31z" />
    <glyph glyph-name="t.sc" unicode="&#xf774;" horiz-adv-x="436" 
d="M416 483v-73h-156v-410h-83v410h-157v73h396z" />
    <glyph glyph-name="u.sc" unicode="&#xf775;" horiz-adv-x="505" 
d="M456 483v-273q0 -64 -13 -101t-42 -63q-57 -52 -146 -52q-43 0 -86 13.5t-69 40.5q-28 31 -39.5 65t-11.5 97v273h83v-273q0 -45 5 -66t21 -37q34 -37 94 -37q66 0 95 37q16 20 21 40t5 63v273h83z" />
    <glyph glyph-name="v.sc" unicode="&#xf776;" horiz-adv-x="437" 
d="M206 -3l-202 486h91l123 -307l124 307h90l-200 -486h-26z" />
    <glyph glyph-name="w.sc" unicode="&#xf777;" horiz-adv-x="742" 
d="M507 -3l-136 350l-136 -350h-27l-201 486h93l119 -287l119 287h67l118 -287l119 287h93l-201 -486h-27z" />
    <glyph glyph-name="x.sc" unicode="&#xf778;" horiz-adv-x="510" 
d="M203 249l-184 234h103l132 -168l133 168h102l-183 -234l196 -249h-103l-144 183l-144 -183h-103z" />
    <glyph glyph-name="y.sc" unicode="&#xf779;" horiz-adv-x="446" 
d="M441 483l-176 -266v-217h-85v217l-175 266h98l120 -185l120 185h98z" />
    <glyph glyph-name="z.sc" unicode="&#xf77a;" horiz-adv-x="470" 
d="M455 483l-286 -407h278v-76h-435l287 407h-261v76h417z" />
    <glyph glyph-name="agrave.sc" unicode="&#xf7e0;" horiz-adv-x="481" 
d="M335 120h-192l-51 -120h-86l201 486h58l210 -486h-86zM173 191h130l-67 166zM244 687l73 -150h-52l-164 150h143z" />
    <glyph glyph-name="aacute.sc" unicode="&#xf7e1;" horiz-adv-x="481" 
d="M335 120h-192l-51 -120h-86l201 486h58l210 -486h-86zM173 191h130l-67 166zM237 687h143l-164 -150h-52z" />
    <glyph glyph-name="acircumflex.sc" unicode="&#xf7e2;" horiz-adv-x="481" 
d="M335 120h-192l-51 -120h-86l201 486h58l210 -486h-86zM173 191h130l-67 166zM406 537h-62l-104 95l-105 -95h-61l94 157h142z" />
    <glyph glyph-name="atilde.sc" unicode="&#xf7e3;" horiz-adv-x="481" 
d="M335 120h-192l-51 -120h-86l201 486h58l210 -486h-86zM173 191h130l-67 166zM129 537h-52q6 61 35.5 91.5t65.5 30.5q14 0 27.5 -4t23.5 -8.5t41 -19.5q38 -18 50 -18t21 12.5t12 35.5h52q-4 -51 -30.5 -85.5t-65.5 -34.5q-18 0 -33 5t-66 28q-36 16 -47 16t-18 -8.5
t-9.5 -16t-6.5 -24.5z" />
    <glyph glyph-name="adieresis.sc" unicode="&#xf7e4;" horiz-adv-x="481" 
d="M335 120h-192l-51 -120h-86l201 486h58l210 -486h-86zM173 191h130l-67 166zM344 553q-22 0 -37.5 15.5t-15.5 37.5t15.5 37.5t37.5 15.5t37.5 -15.5t15.5 -37.5t-15.5 -37.5t-37.5 -15.5zM137 553q-22 0 -37.5 15.5t-15.5 37.5t15.5 37.5t37.5 15.5t37.5 -15.5
t15.5 -37.5t-15.5 -37.5t-37.5 -15.5z" />
    <glyph glyph-name="aring.sc" unicode="&#xf7e5;" horiz-adv-x="481" 
d="M335 120h-192l-51 -120h-86l201 486h58l210 -486h-86zM173 191h130l-67 166zM241 728q45 0 73 -31.5t28 -69.5q0 -41 -28 -71t-73 -30q-44 0 -72.5 30t-28.5 71q0 42 29.5 71.5t71.5 29.5zM241 572q23 0 39 16t16 39t-16 39t-39 16t-39 -16t-16 -39t16 -39t39 -16z" />
    <glyph glyph-name="ae.sc" unicode="&#xf7e6;" horiz-adv-x="632" 
d="M325 128h-155l-66 -128h-98l278 483h309v-77h-185v-123h180v-77h-180v-129h193v-77h-276v128zM213 206h112v200z" />
    <glyph glyph-name="ccedilla.sc" unicode="&#xf7e7;" 
d="M319 -5l-11 -24q28 -5 45 -18q28 -22 28 -56q0 -8 -2.5 -19t-14 -28t-30.5 -27q-30 -15 -107 -15q-17 0 -37 2v58q4 0 29 0.5t29 1.5q42 6 42 28q0 30 -76 30l31 69q-73 13 -120 53q-87 73 -87 190q0 98 67.5 173.5t184.5 75.5q76 0 169 -41v-93q-90 55 -168 55
t-122.5 -50.5t-44.5 -122.5q0 -84 54.5 -124t118.5 -40q75 0 167 60v-94q-37 -21 -65 -29.5t-80 -14.5z" />
    <glyph glyph-name="egrave.sc" unicode="&#xf7e8;" horiz-adv-x="367" 
d="M142 406v-125h185v-76h-185v-128h197v-77h-280v483h274v-77h-191zM187 687l73 -150h-52l-164 150h143z" />
    <glyph glyph-name="eacute.sc" unicode="&#xf7e9;" horiz-adv-x="367" 
d="M142 406v-125h185v-76h-185v-128h197v-77h-280v483h274v-77h-191zM180 687h143l-164 -150h-52z" />
    <glyph glyph-name="ecircumflex.sc" unicode="&#xf7ea;" horiz-adv-x="367" 
d="M142 406v-125h185v-76h-185v-128h197v-77h-280v483h274v-77h-191zM349 537h-62l-104 95l-105 -95h-61l94 157h142z" />
    <glyph glyph-name="edieresis.sc" unicode="&#xf7eb;" horiz-adv-x="367" 
d="M142 406v-125h185v-76h-185v-128h197v-77h-280v483h274v-77h-191zM287 553q-22 0 -37.5 15.5t-15.5 37.5t15.5 37.5t37.5 15.5t37.5 -15.5t15.5 -37.5t-15.5 -37.5t-37.5 -15.5zM80 553q-22 0 -37.5 15.5t-15.5 37.5t15.5 37.5t37.5 15.5t37.5 -15.5t15.5 -37.5
t-15.5 -37.5t-37.5 -15.5z" />
    <glyph glyph-name="igrave.sc" unicode="&#xf7ec;" horiz-adv-x="201" 
d="M142 483v-483h-83v483h83zM104 687l73 -150h-52l-164 150h143z" />
    <glyph glyph-name="iacute.sc" unicode="&#xf7ed;" horiz-adv-x="201" 
d="M142 483v-483h-83v483h83zM97 687h143l-164 -150h-52z" />
    <glyph glyph-name="icircumflex.sc" unicode="&#xf7ee;" horiz-adv-x="201" 
d="M142 483v-483h-83v483h83zM266 537h-62l-104 95l-105 -95h-61l94 157h142z" />
    <glyph glyph-name="idieresis.sc" unicode="&#xf7ef;" horiz-adv-x="201" 
d="M142 483v-483h-83v483h83zM204 553q-22 0 -37.5 15.5t-15.5 37.5t15.5 37.5t37.5 15.5t37.5 -15.5t15.5 -37.5t-15.5 -37.5t-37.5 -15.5zM-3 553q-22 0 -37.5 15.5t-15.5 37.5t15.5 37.5t37.5 15.5t37.5 -15.5t15.5 -37.5t-15.5 -37.5t-37.5 -15.5z" />
    <glyph glyph-name="eth.sc" unicode="&#xf7f0;" horiz-adv-x="531" 
d="M58 209h-58v67h58v207h162q120 0 184 -52q88 -71 88 -188q0 -72 -35 -125t-79 -80q-60 -38 -168 -38h-152v209zM268 209h-127v-131h74q88 0 130 32q31 23 46.5 62t15.5 73q0 77 -58 127q-24 20 -54 27t-82 7h-72v-130h127v-67z" />
    <glyph glyph-name="ntilde.sc" unicode="&#xf7f1;" horiz-adv-x="550" 
d="M494 483v-483h-73l-281 342v-342h-84v483h70l285 -345v345h83zM164 537h-52q6 61 35.5 91.5t65.5 30.5q14 0 27.5 -4t23.5 -8.5t41 -19.5q38 -18 50 -18t21 12.5t12 35.5h52q-4 -51 -30.5 -85.5t-65.5 -34.5q-18 0 -33 5t-66 28q-36 16 -47 16t-18 -8.5t-9.5 -16
t-6.5 -24.5z" />
    <glyph glyph-name="ograve.sc" unicode="&#xf7f2;" horiz-adv-x="581" 
d="M38 240q0 103 69.5 176t181.5 73q113 0 183.5 -73t70.5 -174q0 -105 -71.5 -176.5t-185.5 -71.5q-107 0 -177.5 71t-70.5 175zM127 240q0 -75 48 -121t115 -46q68 0 116 46.5t48 123.5q0 68 -44.5 117.5t-118.5 49.5q-77 0 -120.5 -51t-43.5 -119zM294 687l73 -150h-52
l-164 150h143z" />
    <glyph glyph-name="oacute.sc" unicode="&#xf7f3;" horiz-adv-x="581" 
d="M38 240q0 103 69.5 176t181.5 73q113 0 183.5 -73t70.5 -174q0 -105 -71.5 -176.5t-185.5 -71.5q-107 0 -177.5 71t-70.5 175zM127 240q0 -75 48 -121t115 -46q68 0 116 46.5t48 123.5q0 68 -44.5 117.5t-118.5 49.5q-77 0 -120.5 -51t-43.5 -119zM287 687h143l-164 -150
h-52z" />
    <glyph glyph-name="ocircumflex.sc" unicode="&#xf7f4;" horiz-adv-x="581" 
d="M38 240q0 103 69.5 176t181.5 73q113 0 183.5 -73t70.5 -174q0 -105 -71.5 -176.5t-185.5 -71.5q-107 0 -177.5 71t-70.5 175zM127 240q0 -75 48 -121t115 -46q68 0 116 46.5t48 123.5q0 68 -44.5 117.5t-118.5 49.5q-77 0 -120.5 -51t-43.5 -119zM456 537h-62l-104 95
l-105 -95h-61l94 157h142z" />
    <glyph glyph-name="otilde.sc" unicode="&#xf7f5;" horiz-adv-x="581" 
d="M38 240q0 103 69.5 176t181.5 73q113 0 183.5 -73t70.5 -174q0 -105 -71.5 -176.5t-185.5 -71.5q-107 0 -177.5 71t-70.5 175zM127 240q0 -75 48 -121t115 -46q68 0 116 46.5t48 123.5q0 68 -44.5 117.5t-118.5 49.5q-77 0 -120.5 -51t-43.5 -119zM179 537h-52
q6 61 35.5 91.5t65.5 30.5q14 0 27.5 -4t23.5 -8.5t41 -19.5q38 -18 50 -18t21 12.5t12 35.5h52q-4 -51 -30.5 -85.5t-65.5 -34.5q-18 0 -33 5t-66 28q-36 16 -47 16t-18 -8.5t-9.5 -16t-6.5 -24.5z" />
    <glyph glyph-name="odieresis.sc" unicode="&#xf7f6;" horiz-adv-x="581" 
d="M38 240q0 103 69.5 176t181.5 73q113 0 183.5 -73t70.5 -174q0 -105 -71.5 -176.5t-185.5 -71.5q-107 0 -177.5 71t-70.5 175zM127 240q0 -75 48 -121t115 -46q68 0 116 46.5t48 123.5q0 68 -44.5 117.5t-118.5 49.5q-77 0 -120.5 -51t-43.5 -119zM394 553
q-22 0 -37.5 15.5t-15.5 37.5t15.5 37.5t37.5 15.5t37.5 -15.5t15.5 -37.5t-15.5 -37.5t-37.5 -15.5zM187 553q-22 0 -37.5 15.5t-15.5 37.5t15.5 37.5t37.5 15.5t37.5 -15.5t15.5 -37.5t-15.5 -37.5t-37.5 -15.5z" />
    <glyph glyph-name="oslash.sc" unicode="&#xf7f8;" horiz-adv-x="583" 
d="M441 444l32 37h75l-65 -75q61 -71 61 -164q0 -105 -71.5 -176.5t-185.5 -71.5q-75 0 -131 35l-31 -35h-75l61 70q-72 73 -72 176t69.5 176t181.5 73q84 0 151 -45zM167 128l220 253q-46 29 -95 29q-79 0 -121.5 -52t-42.5 -118t39 -112zM426 341l-214 -248q40 -20 79 -20
q68 0 116 46.5t48 123.5q0 55 -29 98z" />
    <glyph glyph-name="ugrave.sc" unicode="&#xf7f9;" horiz-adv-x="505" 
d="M456 483v-273q0 -64 -13 -101t-42 -63q-57 -52 -146 -52q-43 0 -86 13.5t-69 40.5q-28 31 -39.5 65t-11.5 97v273h83v-273q0 -45 5 -66t21 -37q34 -37 94 -37q66 0 95 37q16 20 21 40t5 63v273h83zM256 687l73 -150h-52l-164 150h143z" />
    <glyph glyph-name="uacute.sc" unicode="&#xf7fa;" horiz-adv-x="505" 
d="M456 483v-273q0 -64 -13 -101t-42 -63q-57 -52 -146 -52q-43 0 -86 13.5t-69 40.5q-28 31 -39.5 65t-11.5 97v273h83v-273q0 -45 5 -66t21 -37q34 -37 94 -37q66 0 95 37q16 20 21 40t5 63v273h83zM249 687h143l-164 -150h-52z" />
    <glyph glyph-name="ucircumflex.sc" unicode="&#xf7fb;" horiz-adv-x="505" 
d="M456 483v-273q0 -64 -13 -101t-42 -63q-57 -52 -146 -52q-43 0 -86 13.5t-69 40.5q-28 31 -39.5 65t-11.5 97v273h83v-273q0 -45 5 -66t21 -37q34 -37 94 -37q66 0 95 37q16 20 21 40t5 63v273h83zM418 537h-62l-104 95l-105 -95h-61l94 157h142z" />
    <glyph glyph-name="udieresis.sc" unicode="&#xf7fc;" horiz-adv-x="505" 
d="M456 483v-273q0 -64 -13 -101t-42 -63q-57 -52 -146 -52q-43 0 -86 13.5t-69 40.5q-28 31 -39.5 65t-11.5 97v273h83v-273q0 -45 5 -66t21 -37q34 -37 94 -37q66 0 95 37q16 20 21 40t5 63v273h83zM356 553q-22 0 -37.5 15.5t-15.5 37.5t15.5 37.5t37.5 15.5t37.5 -15.5
t15.5 -37.5t-15.5 -37.5t-37.5 -15.5zM149 553q-22 0 -37.5 15.5t-15.5 37.5t15.5 37.5t37.5 15.5t37.5 -15.5t15.5 -37.5t-15.5 -37.5t-37.5 -15.5z" />
    <glyph glyph-name="yacute.sc" unicode="&#xf7fd;" horiz-adv-x="446" 
d="M441 483l-176 -266v-217h-85v217l-175 266h98l120 -185l120 185h98zM240 687h143l-164 -150h-52z" />
    <glyph glyph-name="thorn.sc" unicode="&#xf7fe;" horiz-adv-x="375" 
d="M57 483h83v-101h48q96 0 133 -39q39 -40 39 -102q0 -67 -41 -100q-27 -22 -55 -31t-78 -9h-46v-101h-83v483zM183 308h-43v-133h48q14 0 22.5 0.5t22.5 4t22 10.5t14 20.5t6 32.5t-6.5 32t-14.5 19t-22.5 9.5t-23.5 4t-25 0.5z" />
    <glyph glyph-name="ydieresis.sc" unicode="&#xf7ff;" horiz-adv-x="446" 
d="M441 483l-176 -266v-217h-85v217l-175 266h98l120 -185l120 185h98zM327 553q-22 0 -37.5 15.5t-15.5 37.5t15.5 37.5t37.5 15.5t37.5 -15.5t15.5 -37.5t-15.5 -37.5t-37.5 -15.5zM120 553q-22 0 -37.5 15.5t-15.5 37.5t15.5 37.5t37.5 15.5t37.5 -15.5t15.5 -37.5
t-15.5 -37.5t-37.5 -15.5z" />
    </font>
</defs>
</svg>
